<svg xmlns="http://www.w3.org/2000/svg" viewBox="0 0 183.33 388.63"><title>elephant</title><g id="Layer_2" data-name="Layer 2"><g id="Layer_1-2" data-name="Layer 1"><polygon points="63.19 82.04 56.44 48.86 73.47 78.13 63.19 82.04" style="fill:#e2dfdc"/><polygon points="97.94 69.95 111.04 38.73 108.64 72.5 97.94 69.95" style="fill:#e2dfdc"/><path d="M55.64,78.07s-48,64.3-43.93,77.18,51.54-42.88,50.66-55.71A47.36,47.36,0,0,0,55.64,78.07Z" style="fill:#a3a09b"/><path d="M117,78.45s50.31,62.48,46.75,75.5S110.69,113,111.09,100.16A47.3,47.3,0,0,1,117,78.45Z" style="fill:#a3a09b"/><path d="M94.32,329.57c31,33-21,22-26.5,37.5s0,16,0,16" style="fill:none;stroke:#a3a09b;stroke-miterlimit:10;stroke-width:8px"/><path d="M63.38,385.07c7.94,5.5,19.37,3,19.37,3s-13.8-11.6-16.43-9.5S63.38,385.07,63.38,385.07Z" style="fill:#4c4239"/><path d="M88.47,85.23C87.13,83.13,86,81.05,84.88,79c-.56-1-1-2-1.58-3s-1-1.93-1.51-2.82a1.8,1.8,0,0,1,.07-1.33,5.51,5.51,0,0,0,0-1.28V69.39l-.08-1.21a30.24,30.24,0,0,0-.66-4.62c-1.46-6-5.14-12.92-8.62-19.79L71.2,41.18l-.34-.65c-.11-.21-.22-.43-.35-.71l-.76-1.57c-.52-1-.91-2.17-1.37-3.26s-.79-2.26-1.09-3.46a31.6,31.6,0,0,1-.44-15.19A32,32,0,0,1,73.7,2.8,27.55,27.55,0,0,1,81.06.4,22.78,22.78,0,0,1,88.47.23a36.64,36.64,0,0,0-3.29,12.23,17.07,17.07,0,0,0-3.7,7.17,16.62,16.62,0,0,0,.31,8c.16.7.44,1.42.67,2.13s.53,1.44.9,2.15L83.88,33l.3.6.34.65,1.35,2.63c1.8,3.53,3.62,7,5.36,10.81a66.61,66.61,0,0,1,4.53,12.43,45.58,45.58,0,0,1,1,7l.1,1.73,0,1.66A15.08,15.08,0,0,0,97,72.18a2.53,2.53,0,0,1,0,1.61,46.85,46.85,0,0,1-3.82,5.93A55.68,55.68,0,0,1,88.47,85.23Z" style="fill:#a3a09b"/><ellipse cx="85.75" cy="110.09" rx="41.32" ry="46.53" style="fill:#a3a09b"/><circle cx="89.43" cy="209.56" r="72.67" style="fill:#a3a09b"/><circle cx="91.67" cy="258.03" r="91.67" style="fill:#a3a09b"/><polygon points="55.05 117.21 44.43 174.22 133.78 174.22 116.5 114.22 55.05 117.21" style="fill:#a3a09b"/></g></g></svg>