<svg xmlns="http://www.w3.org/2000/svg" viewBox="0 0 40.71 158.46"><title>Giraffe</title><g id="Layer_2" data-name="Layer 2"><g id="Draw_Layer" data-name="Draw Layer"><path d="M16.52,44.89a12,12,0,0,0-5.3,1.54,12.23,12.23,0,0,0-2.35,1.84,14.7,14.7,0,0,0-2.11,2.66,15.21,15.21,0,0,0-1.07,2,28.58,28.58,0,0,0-1.15,3c-.29.84-.49,1.72-.72,2.58-.08.32-.16.65-.23,1-.29.67-.54,1.36-.8,2a28,28,0,0,0-1,3.37A56.14,56.14,0,0,0,.31,73C.08,75.48,0,77.94,0,80.41c0,4.84.38,9.67.59,14.51s.26,9.64.58,14.45c.18,2.81.41,5.61.83,8.4.18,1.17.39,2.34.67,3.49a19.81,19.81,0,0,0,1.6,4.23,13.74,13.74,0,0,0,2.44,3.45,16.85,16.85,0,0,0,2.07,1.7,10.87,10.87,0,0,0,2.53,1.26,13.15,13.15,0,0,0,1.53.53,10.91,10.91,0,0,0,4.89.13,13.05,13.05,0,0,0,5.12-2,21.78,21.78,0,0,0,3.43-2.86,27,27,0,0,0,2.65-3.47,22.27,22.27,0,0,0,1.92-4c.43-1.08.81-2.2,1.14-3.32a52.41,52.41,0,0,0,1.51-7.12q.59-4,.9-8a96.67,96.67,0,0,0,.12-14.34c-.38-5.24-1.13-10.45-2-15.64-.39-2.41-.84-4.8-1.3-7.2-.23-1.2-.49-2.4-.74-3.6s-.45-2.18-.74-3.25-.74-2.4-1.18-3.58c-.29-.78-.62-1.55-1-2.31a15.16,15.16,0,0,0-1.29-2.46A12.56,12.56,0,0,0,25.18,48a9.94,9.94,0,0,0-1.35-1.11,10.16,10.16,0,0,0-2.29-1.19,8.37,8.37,0,0,0-1.91-.55,13.58,13.58,0,0,0-2.54-.25ZM25,62.39a.76.76,0,0,1-.26-.06l-.26-.11c-.23-.11-.45-.23-.67-.35s-.41-.24-.61-.38l-.31-.22a3.83,3.83,0,0,1-.48-.41,3.57,3.57,0,0,1-.58-.87,5.78,5.78,0,0,1-.25-.65c-.07-.25-.14-.48-.2-.73s-.11-.5-.15-.75,0-.25,0-.39,0-.27,0-.4a6.77,6.77,0,0,1,0-.78l0-.34c0-.15,0-.31.06-.46a5.06,5.06,0,0,1,.27-.94,3.64,3.64,0,0,1,.33-.69,4.51,4.51,0,0,1,.54-.7l.33-.28a.91.91,0,0,1,.16-.11.25.25,0,0,1,.12,0,.26.26,0,0,1,.22.13.32.32,0,0,1,0,.09c.16.19.31.37.45.57s.12.18.18.27a.31.31,0,0,1,.14.07,3.85,3.85,0,0,1,.3.27,2.09,2.09,0,0,1,.2.22,2.23,2.23,0,0,1,.29.44c.08.15.17.31.24.47s.28.61.4.91A9.35,9.35,0,0,1,26,58.09a7.93,7.93,0,0,1,.14.85c0,.14,0,.28,0,.43s0,.26,0,.4a5.89,5.89,0,0,1,0,1.11,1.64,1.64,0,0,1-.05.32,3.37,3.37,0,0,1-.1.34l-.06.14a1.87,1.87,0,0,1-.17.31,1,1,0,0,1-.2.22l-.14.1-.14.06-.16,0Zm-17-3-.1-.26c-.14-.33-.29-.67-.42-1a3.26,3.26,0,0,1-.15-.44,4.11,4.11,0,0,1-.17-1,3.26,3.26,0,0,1,0-.7,3,3,0,0,1,.14-.57,4,4,0,0,1,.27-.55,3.07,3.07,0,0,1,.28-.35A2.09,2.09,0,0,1,8.65,54a1.91,1.91,0,0,1,.45-.13l.15,0h0a.17.17,0,0,1,.11,0l.07,0h.1l.27,0a1.67,1.67,0,0,1,.3.08l.24.09a.29.29,0,0,1,.12.15.24.24,0,0,1,0,.19l0,.07v0c.13.24.27.48.41.71l.2.3.19.26h0s0,0,0,0h0l0,0c.07.1.15.19.23.29l.27.41a3.36,3.36,0,0,1,.26.5,3,3,0,0,1,.21.6l0,.15c.11-.33.22-.65.35-1s.36-.74.56-1.09c-.11,1-.23,1.92-.35,2.89a3,3,0,0,0-.51.72c0,.13,0,.25-.05.38s-.09.53-.15.79q-.18.75-.39,1.5c-.16.52-.31,1-.49,1.55-.09.25-.17.5-.27.74s-.19.5-.29.75l-.14.33c-.07.14-.13.29-.21.43a3.75,3.75,0,0,1-.24.44c-.08.13-.17.25-.26.38a3.45,3.45,0,0,1-.54.54,2.53,2.53,0,0,1-.75.46,1.21,1.21,0,0,1-.32.11l-.15,0a1.53,1.53,0,0,1-.37,0A1.83,1.83,0,0,1,7,67.65l-.3-.19-.22-.21a1.38,1.38,0,0,1-.23-.36.92.92,0,0,1-.11-.29,2,2,0,0,1-.06-.73,3.16,3.16,0,0,1,.17-.81,4.7,4.7,0,0,1,.17-.45,7.8,7.8,0,0,1,.35-.71l.32-.61c.12-.23.25-.47.37-.72s.24-.47.34-.71l0,.06c.06-.13.11-.26.16-.4a4.22,4.22,0,0,0,.22-.77.13.13,0,0,0,0,.06,2.34,2.34,0,0,0,0-.38,1.61,1.61,0,0,0,0-.31h0v0h0v0A3.9,3.9,0,0,0,8,59.42Zm4,17.86,0-.06h0L11.81,77c-.17-.2-.38-.38-.55-.58a2.62,2.62,0,0,1-.46-.63,2.13,2.13,0,0,1-.14-.35,1.25,1.25,0,0,1-.08-.32,2.37,2.37,0,0,1,0-.84,3.17,3.17,0,0,1,.15-.55,1.84,1.84,0,0,1,.09-.25c.09-.2.18-.4.28-.58.22-.41.45-.82.66-1.24s.4-.8.59-1.21.38-.8.59-1.2c.11-.22.22-.43.34-.64s.21-.37.32-.55a12.14,12.14,0,0,1,.75-1.12l.22-.3.23-.27a4,4,0,0,1,.42-.4,1.35,1.35,0,0,1,.33-.19h.23l.52.12.41.09a3.54,3.54,0,0,0,.65,0h.68c.45,0,.91,0,1.37,0l.38,0,.4.07a3.63,3.63,0,0,1,.66.21c.25.1.49.21.73.33a6.14,6.14,0,0,1,.62.34,4,4,0,0,1,.34.23c.07,0,.14.1.21.15a2.91,2.91,0,0,1,.37.33,2.65,2.65,0,0,1,.46.65,3.42,3.42,0,0,1,.29.75,4.54,4.54,0,0,1,.09.51c0,.13,0,.26,0,.4a1.33,1.33,0,0,1-.15.55,5.77,5.77,0,0,1-.4.68c-.28.45-.56.89-.83,1.34s-.52.94-.77,1.41c-.07.12-.13.25-.2.36s-.12.22-.19.33-.13.2-.2.29a2.17,2.17,0,0,1-.23.3,3.44,3.44,0,0,1-.41.44l-.26.19a1.57,1.57,0,0,1-.55.23l-.53,0a2.43,2.43,0,0,0-.38,0h.07a2.41,2.41,0,0,0-.37.07l-.25.08a2.42,2.42,0,0,0-.36.18l-.27.18.06,0a2.84,2.84,0,0,0-.25.23,2.09,2.09,0,0,0-.2.22,2.66,2.66,0,0,0-.29.45l-.15.28a3.92,3.92,0,0,0-.16.36l0-.06-.21.51c-.06.17-.12.34-.19.5s-.13.32-.21.48-.08.18-.13.27l-.15.28-.16.25-.19.27a3.79,3.79,0,0,1-.32.38l-.22.19a1.41,1.41,0,0,1-.35.23,2.36,2.36,0,0,1-.52.21l-.2,0-.48.12-.51.12A2.38,2.38,0,0,1,12,82a1.12,1.12,0,0,1-.26-.08.51.51,0,0,1-.16-.09.43.43,0,0,1-.12-.11.38.38,0,0,1-.09-.13,1,1,0,0,1-.07-.15l0-.1a1.13,1.13,0,0,0,0-.18,1.68,1.68,0,0,1,.05-.45c.09-.43.25-.84.38-1.26A8,8,0,0,0,12,78.2a.13.13,0,0,0,0,.06,2.74,2.74,0,0,0,0-.5,2.64,2.64,0,0,0,0-.29.13.13,0,0,0,0,.06L12,77.28Zm15.73-5.62.2-.14a2.1,2.1,0,0,1,.26-.13,1.23,1.23,0,0,1,.46-.14l.17,0,.15,0a.93.93,0,0,1,.22,0,2.72,2.72,0,0,1,.37.13l.32.17a4.11,4.11,0,0,1,.54.39l.31.28.26.3c.16.19.3.38.45.58a10.9,10.9,0,0,1,.78,1.32c.1.2.19.42.27.63a6.52,6.52,0,0,1,.21.72,7.75,7.75,0,0,1,.16,1.51c0,.3,0,.59,0,.88s0,.47,0,.7c0,.48,0,1-.06,1.45,0,.29,0,.58,0,.87s0,.48,0,.73c0,.48.09,1,.13,1.43s.11,1.11.16,1.67.07,1,.09,1.54c0,.25,0,.51,0,.76a6.83,6.83,0,0,1-.06.78,4.28,4.28,0,0,1-.13.73,4.35,4.35,0,0,1-.3.88,3.61,3.61,0,0,1-.22.39c0,.07-.11.13-.16.19l-.11.09a.48.48,0,0,1-.43.11.46.46,0,0,1-.18-.13.31.31,0,0,1-.1-.15.14.14,0,0,0,0-.06,1.93,1.93,0,0,1,0-.42,1.21,1.21,0,0,1,0-.19c0-.51,0-1-.07-1.53s-.08-1-.14-1.43h0c-.07-.37-.13-.74-.22-1.11s-.16-.65-.25-1-.21-.73-.33-1.1l-.2-.56c-.05-.14-.12-.28-.17-.42,0,0,0,0,0,.06-.1-.21-.2-.43-.32-.64s-.18-.27-.28-.4h0a3.47,3.47,0,0,0-.25-.29c-.13-.12-.26-.24-.4-.35a13.5,13.5,0,0,0-1.9-1l-.57-.3-.2-.11-.29-.17a4.48,4.48,0,0,1-.79-.65,3.81,3.81,0,0,1-.89-1.49,4.42,4.42,0,0,1-.13-.61,4.82,4.82,0,0,1,0-1.2,4.24,4.24,0,0,1,.28-1.1,2.67,2.67,0,0,1,.48-.81,2.43,2.43,0,0,1,.49-.47l.3-.2.31-.15a2.78,2.78,0,0,1,.4-.16l.27-.08A3,3,0,0,1,27,72.2L27.3,72h0l0,0h0l.38-.29ZM5,84.94l.29-.19c.15-.08.29-.16.45-.23a3.19,3.19,0,0,1,.85-.3,4.9,4.9,0,0,1,.67-.07h.17a4,4,0,0,1,.85.16,3.12,3.12,0,0,1,.71.29,3.3,3.3,0,0,1,.45.26,4.43,4.43,0,0,1,1.39,1.38,5.15,5.15,0,0,1,.33.61l.15.37c.06.13.1.26.15.4s.06.2.1.3a2.63,2.63,0,0,0,.08.3c0,.14.07.27.09.41s.09.49.12.74,0,.25.05.37l0,.47c0,.1,0,.2,0,.3s0,.24,0,.36,0,.32,0,.48,0,.21,0,.32,0,.27,0,.41a8.41,8.41,0,0,1-.23,1.11,7.4,7.4,0,0,1-.34.89,5.16,5.16,0,0,1-.47.86,4.23,4.23,0,0,1-1.05,1.14,4.8,4.8,0,0,1-.7.39,2.23,2.23,0,0,1-.57.18,3.41,3.41,0,0,1-.46,0c-.13,0-.26,0-.39,0a3.49,3.49,0,0,1-.72-.2,3,3,0,0,1-.68-.36,5.1,5.1,0,0,1-.62-.51A6.23,6.23,0,0,1,5,94.83a4.87,4.87,0,0,1-.32-.47,2.68,2.68,0,0,1-.18-.28l-.21-.42c-.06-.12-.11-.25-.17-.37S4,93.09,4,93s-.17-.46-.24-.69l-.09-.35a.74.74,0,0,1,0-.14c0-.14-.07-.28-.09-.42a1.27,1.27,0,0,1-.06-.28c0-.17,0-.33-.08-.49s-.06-.54-.08-.8a2.44,2.44,0,0,1,0-.27v-.45a3.39,3.39,0,0,1,0-.45c0-.1,0-.2,0-.3,0-.26.05-.52.1-.77l.06-.33,0-.13c0-.13.07-.26.1-.39l.09-.29c0-.11.07-.23.12-.34l.12-.29L4,85.66l.16-.32a3.8,3.8,0,0,1,.36-.53.24.24,0,0,1,.35,0,.23.23,0,0,1,.08.17h0a.18.18,0,0,1,.07,0Zm16,8.64a1.61,1.61,0,0,1-.36-.1l-.12,0a2.46,2.46,0,0,1-.56-.34,2.92,2.92,0,0,1-.56-.55,3.51,3.51,0,0,1-.27-.4c-.08-.15-.16-.29-.23-.45a4.49,4.49,0,0,1-.33-1.12,7.82,7.82,0,0,1,0-2.72,6.36,6.36,0,0,1,.28-1.06A8.08,8.08,0,0,1,19.2,86c.07-.12.14-.25.22-.37a4.08,4.08,0,0,1,.25-.33,1.57,1.57,0,0,1,.46-.39.31.31,0,0,1,.13,0,.23.23,0,0,1,.2.1h0l.08,0,.14,0c.25.09.48.21.72.32l.58.28a3.9,3.9,0,0,1,.71.42,3.63,3.63,0,0,1,.47.41,4.53,4.53,0,0,1,.64.93,4.85,4.85,0,0,1,.26.69c0,.12.07.24.09.35s.08.37.1.55a5.91,5.91,0,0,1,0,.84,5.13,5.13,0,0,1-.36,1.63,4.61,4.61,0,0,1-.43.86,3.79,3.79,0,0,1-.48.58,2.5,2.5,0,0,1-.62.46,2.18,2.18,0,0,1-.83.26l-.28,0a1.24,1.24,0,0,1-.33,0ZM6.05,106.16a2.74,2.74,0,0,0-.15-.4c-.12-.26-.26-.5-.4-.74s-.16-.28-.23-.42a5.24,5.24,0,0,1-.28-.69,3.59,3.59,0,0,1-.12-.47c0-.1,0-.19,0-.29s0-.13,0-.19a2.45,2.45,0,0,1,0-.27,4.07,4.07,0,0,1,0-.78,4.52,4.52,0,0,1,.08-.63c0-.12.06-.24.09-.36s.07-.22.12-.34a2.39,2.39,0,0,1,.55-.86l.15-.11.14-.06.15,0,.22,0,.12.07.14.14a2.22,2.22,0,0,1,.25.42c.07.16.15.32.23.49l.41.89q.11.24.24.48a1.3,1.3,0,0,0,.14.26,4.66,4.66,0,0,0,.3.47l.21.22.21.17h0a3.65,3.65,0,0,1,.31.24,4.45,4.45,0,0,1,.49.48,4.23,4.23,0,0,1,.5.77,5,5,0,0,1,.32.75,7,7,0,0,1,.28,1,8.83,8.83,0,0,1,.11,1,7.33,7.33,0,0,1,0,1.15c0,.17-.05.34-.08.51s0,.23-.07.34-.05.27-.09.41l-.21.71-.24.7-.14.36c-.05.14-.11.28-.17.41a5.56,5.56,0,0,1-.46.87,4.26,4.26,0,0,1-.49.63l-.3.27a3,3,0,0,1-.31.22,2.54,2.54,0,0,1-.38.16,1.14,1.14,0,0,1-.37,0,1.41,1.41,0,0,1-.35,0,1.33,1.33,0,0,1-.32-.15,2.64,2.64,0,0,1-.67-.58,3.62,3.62,0,0,1-.41-.61,5.41,5.41,0,0,1-.34-.78,5.91,5.91,0,0,1-.25-1.87,6.64,6.64,0,0,1,.31-1.77c.06-.2.13-.39.21-.59s.11-.27.17-.41a3.11,3.11,0,0,1,.38-.63.73.73,0,0,1,.24-.22h0v0c0-.14-.06-.28-.1-.41Zm15.54,7.6a4.41,4.41,0,0,1-.95-.17,3.42,3.42,0,0,1-.75-.29,4.41,4.41,0,0,1-.74-.47c-.12-.09-.23-.19-.34-.29l-.3-.34a3.17,3.17,0,0,1-.44-.7,3.87,3.87,0,0,1-.23-.65,3.65,3.65,0,0,1-.12-.87,4.56,4.56,0,0,1,.08-.9,7.39,7.39,0,0,1,.6-1.77,5.12,5.12,0,0,1,.27-.52c.08-.15.16-.3.25-.45a1.64,1.64,0,0,1,.14-.22l.24-.39c.14-.21.3-.42.45-.62s.29-.36.43-.54l.18-.22c.13-.13.24-.26.36-.39l.22-.22a2.61,2.61,0,0,1,.24-.23,8.32,8.32,0,0,1,.74-.59,3.49,3.49,0,0,1,.79-.41h.06a.27.27,0,0,1,.25.18.24.24,0,0,1,0,.12.27.27,0,0,1,.15,0,2.56,2.56,0,0,1,.27,0l.15,0,.24.07.53.21,1.09.46c.18.08.35.15.52.24l.59.31a3.84,3.84,0,0,1,.5.32c.18.12.35.26.52.39a3.68,3.68,0,0,1,.45.43,4.75,4.75,0,0,1,.43.55,5.34,5.34,0,0,1,.62,1.5,9.38,9.38,0,0,1,.2,1.18c0,.21,0,.43.06.64s0,.48,0,.72,0,.48,0,.72,0,.39,0,.59,0,.37,0,.56,0,.53,0,.8,0,.34,0,.51,0,.21,0,.32l-.06.47c0,.13,0,.25-.06.37s-.11.53-.16.8-.07.27-.1.4-.07.26-.11.38l-.12.36c0,.13-.07.25-.12.37s-.11.29-.17.43-.08.21-.13.32-.24.52-.37.78a6.34,6.34,0,0,1-.58.91,5.52,5.52,0,0,1-.59.69,3.08,3.08,0,0,1-.33.3,1.54,1.54,0,0,1-.3.22,1.52,1.52,0,0,1-.33.18l-.19,0h-.1l-.17,0-.2-.11a.58.58,0,0,1-.14-.17s0-.1-.06-.15,0,0,0-.06a1,1,0,0,1,0-.25c0-.06,0-.12,0-.17a4,4,0,0,1,.17-.66c0-.14.09-.28.13-.42A20.84,20.84,0,0,0,26,115.2s0,0,0,0c0-.15,0-.3,0-.44a1.51,1.51,0,0,0,0-.3.17.17,0,0,1,0,.07,2.51,2.51,0,0,0,0-.27l-.06-.17h0a1,1,0,0,0-.14-.22.86.86,0,0,0-.2-.18l.05,0-.14-.08.06,0-.31-.11-.16,0a4.17,4.17,0,0,0-.5,0l-.4,0h.06l-.79.11-.31.05-.33,0a8.85,8.85,0,0,1-.89,0Z" style="fill:#ebe150"/><path d="M14.69,51l-.48,1.88a3,3,0,0,0-1.24.38,3.49,3.49,0,0,0-1.46,1.67,1.74,1.74,0,0,0-.38.52l-.09.17c.06.08.11.16.17.23h0s0,0,0,0h0l0,0c.07.1.15.19.23.29l.27.41a3.36,3.36,0,0,1,.26.5,3,3,0,0,1,.21.6,4.32,4.32,0,0,1,.11.88,3.53,3.53,0,0,1,0,.46c0,.07,0,.14,0,.22l0,0a2,2,0,0,0,.9.53,2.9,2.9,0,0,0,.6.07,2,2,0,0,0,1.84,0,3.12,3.12,0,0,0,1.24-1.33,5.51,5.51,0,0,0,.63-2.21,3.42,3.42,0,0,0-.94-2.6,3,3,0,0,0-1.57-.8l.42-1.71a.4.4,0,0,0-.4-.5.37.37,0,0,0-.37.29Z" style="fill:#ebe150"/><path d="M14.3,1.65a7.54,7.54,0,0,0-2.08,2.13,11.42,11.42,0,0,0-1.28,2.54,16.35,16.35,0,0,0-1,4.59,14.7,14.7,0,0,0,0,3.38l.13-.31.19-.35a4.56,4.56,0,0,1,.38-.59,2.19,2.19,0,0,1,1.08-.84,1,1,0,0,1,.25-.06,1.55,1.55,0,0,1,.31,0h.06l.16,0a1.19,1.19,0,0,1,.42.11.24.24,0,0,1,.09.08l.13-.05.22,0a.65.65,0,0,1,.23.06.94.94,0,0,1,.22.12,2.61,2.61,0,0,1,.47.4,3.36,3.36,0,0,1,.39.54c.07.12.13.24.19.36a3.68,3.68,0,0,1,.28.91,3.76,3.76,0,0,1,.08,1,4.83,4.83,0,0,1-.48,1.86,4.39,4.39,0,0,1-.44.68l-.21.27a3.7,3.7,0,0,1-.28.28L13.6,19l-.29.2a2.6,2.6,0,0,1-.57.25,2.84,2.84,0,0,1-1.16.05l-.27-.07.06.14c0,.09.05.18.08.27a16.8,16.8,0,0,0,.91,2.39,5.24,5.24,0,0,0,.45.76,5.37,5.37,0,0,0,1,1.14,3.44,3.44,0,0,0,.91.65,4.16,4.16,0,0,0,4.91-.57A5.38,5.38,0,0,0,20.48,23a9.42,9.42,0,0,0,1.42-1.72,4.45,4.45,0,0,0,.37-.64,1.55,1.55,0,0,1-.25-.16l-.19-.16a3.62,3.62,0,0,1-.48-.52,4.23,4.23,0,0,1-.41-.6,4.55,4.55,0,0,1-.3-.63,4.37,4.37,0,0,1-.22-.7c0-.14-.05-.28-.08-.49s0-.21,0-.32v-.38c0-.12,0-.24,0-.37s.06-.5.1-.74a6.14,6.14,0,0,1,.47-1.41,4,4,0,0,1,1-1.41,2.23,2.23,0,0,1,1.21-.51.82.82,0,0,1,.22,0h.12l.14,0a1.65,1.65,0,0,1,.38.1l.12.06,0,0q.06-1,0-1.92c0-.56-.06-1.11-.12-1.67a17.8,17.8,0,0,0-.45-2.61,9.08,9.08,0,0,0-.94-2.25,9,9,0,0,0-.93-1.2A4.64,4.64,0,0,0,20,1.64a1.88,1.88,0,0,0-.3-.12l-.07-.05a1.18,1.18,0,0,1,0,.33.4.4,0,0,1,0,.15,1.46,1.46,0,0,1-.07.19,1.3,1.3,0,0,1-.17.22l-.08.09a1.77,1.77,0,0,1-.95.49,2.83,2.83,0,0,1-.41,0h-.2l-.62,0-.13,0-.26,0a2.85,2.85,0,0,1-.5-.13,1.79,1.79,0,0,1-.24-.12l-.15-.11-.09-.09-.1-.14-.06-.11a.85.85,0,0,1-.07-.25,1.18,1.18,0,0,1,0-.34.62.62,0,0,1,0-.19,1.7,1.7,0,0,1,.06-.31v0a7.11,7.11,0,0,0-1.24.6Z" style="fill:#ebe150"/><path d="M16.8,20.84c-.08.46-.19.91-.3,1.36l-.59,1.08c-.23.43-.39.91-.58,1.35s-.32.8-.46,1.21-.35.93-.47,1.4c-.23.86-.48,1.7-.66,2.57s-.37,1.93-.51,2.91c-.31,2.17-.54,4.34-.71,6.52-.07.87-.09,1.74-.13,2.61a4.89,4.89,0,0,0,0,.54l.06,1a9.7,9.7,0,0,0,.26,1.85c.07.34.16.68.24,1a13.38,13.38,0,0,0,.54,1.62,2,2,0,0,0,1.86,1.42,1.84,1.84,0,0,0,1-.27,2,2,0,0,0,.89-1.15c.26-.72.52-1.42.72-2.16.07-.29.14-.58.22-.87a7.59,7.59,0,0,0,.16-1.08c.06-.59.11-1.18.17-1.76,0-.43,0-.86,0-1.29,0-2-.05-3.92-.1-5.88,0-1.74-.09-3.49-.19-5.22-.06-1-.12-2-.2-3s-.2-1.87-.32-2.8c-.06-.48-.17-1-.27-1.44s.06-.68.08-1c0-.09,0-.18.05-.27a.4.4,0,0,0-.28-.49l-.1,0a.4.4,0,0,0-.39.3Z" style="fill:#ebe150"/><path d="M17.71,18.08a.41.41,0,0,0-.4.4c-.07.58-.13,1.17-.2,1.75-.17.77-.37,1.55-.52,2.33s-.37,1.75-.5,2.64l-.24,1.72a9.24,9.24,0,0,0-.13,1.29l0,1.84a4.2,4.2,0,0,0,.05.7c.1.77.22,1.55.33,2.33a1.55,1.55,0,0,0,.41.71,1.6,1.6,0,0,0,1.13.46,1.62,1.62,0,0,0,1.6-1.6l.06-1.9c0-.24,0-.46,0-.7l-.12-1.84c0-.4-.09-.8-.14-1.21l-.24-1.8c-.22-1.63-.48-3.25-.73-4.88,0-.61,0-1.23.06-1.84h0a.38.38,0,0,0-.39-.41Zm-.61,2.23v0Z" style="fill:#ebe150"/><path d="M19.41,17.73a.4.4,0,0,0-.4.4c0,.85-.11,1.7-.17,2.55,0,.63-.16,1.26-.24,1.88-.18,1.43-.33,2.85-.47,4.28s-.21,2.62-.3,3.92c0,.15,0,.3,0,.44,0,.48,0,1,0,1.43s0,.77,0,1.15a6.84,6.84,0,0,0,.08.7c.08.53.17,1.07.26,1.6s.13.77.19,1.15a1.9,1.9,0,0,0,.48.82,1.84,1.84,0,0,0,1.11.53c0-.12,0-.24-.05-.36a6.78,6.78,0,0,1,0-.78q0-.34.06-.69a4.36,4.36,0,0,1,.17-.78,3.84,3.84,0,0,1,.14-.36,2.34,2.34,0,0,1,.15-.27,3.06,3.06,0,0,1,.21-.29l.26-.26.19-.14a1.89,1.89,0,0,1,.36-.16l.17,0c0-.08,0-.16-.05-.23a.26.26,0,0,1,.18-.31h.06A.27.27,0,0,1,22,34l-.06-.59c-.1-.78-.19-1.56-.29-2.34-.16-1.29-.42-2.56-.64-3.84l-1.14-6.43a26.24,26.24,0,0,1-.05-2.66s0,0,0,0a.37.37,0,0,0-.38-.41Z" style="fill:#ebe150"/><path d="M17.49,19.31c0,.51-.09,1-.13,1.56-.16.71-.37,1.42-.49,2.14-.15.93-.31,1.86-.47,2.79s-.22,1.62-.33,2.43-.19,1.39-.27,2.08c-.2,1.8-.39,3.59-.55,5.39-.07.71-.14,1.43-.18,2.14L15,39.55c0,.3-.06.61,0,.91,0,.59,0,1.19,0,1.78v.93c0,.32.07.63.11.94L15.3,46c.14.92.38,1.82.6,2.73A1.8,1.8,0,0,0,17.63,50a1.94,1.94,0,0,0,.91-.25,1.77,1.77,0,0,0,.83-1.08c.16-1,.35-1.9.46-2.86L20,44.18a6.73,6.73,0,0,0,.1-.89c0-.5,0-1,0-1.49,0-.76,0-1.5,0-2.25,0-.24,0-.47,0-.7a4.38,4.38,0,0,1-.12-.63,6.78,6.78,0,0,1,0-.78l0-.45c-.13-1.71-.27-3.43-.43-5.14s-.35-3.5-.55-5.25c-.21-1.9-.49-3.8-.78-5.69,0-.53.07-1.07.12-1.6a.41.41,0,0,0-.4-.41.42.42,0,0,0-.4.41Z" style="fill:#ebe150"/><path d="M15.84,20.64a2.06,2.06,0,0,0-.17.78c-.11.63-.28,1.26-.43,1.89-.1.42-.19.85-.33,1.26-.39,1.12-.78,2.25-1.16,3.37s-.79,2.26-1.13,3.4c-.24.77-.47,1.53-.7,2.29-.12.41-.21.8-.3,1.22-.12.62-.25,1.23-.38,1.85a10,10,0,0,0-.14,1.1c-.07.7-.12,1.41-.18,2.11a1.49,1.49,0,0,0,.21.77,1.52,1.52,0,0,0,.92.71,1.55,1.55,0,0,0,1.89-1.07c.21-.83.41-1.65.63-2.47.06-.22.07-.46.11-.69.12-.71.24-1.42.35-2.14s.14-1.25.19-1.88.11-1.21.16-1.82c.11-1.16.17-2.33.25-3.49,0-.59.08-1.18.13-1.77s.06-1.07.11-1.6.23-1.09.34-1.65l.18-.9c.05-.26.08-.52.11-.77v-.06a.07.07,0,0,1,0,.05.19.19,0,0,0,0-.07.4.4,0,0,0-.27-.69.5.5,0,0,0-.41.27Zm.66.5Z" style="fill:#ebe150"/><path d="M20.9,22.83c-.18,1.23-.27,2.46-.41,3.69s-.3,2.3-.4,3.45c-.07.84-.15,1.68-.22,2.51,0,.36-.07.73-.09,1.09-.07,1.34-.13,2.69-.2,4,0,.61,0,1.23,0,1.85v1.35a4.69,4.69,0,0,0,0,.53l.27,2.48c0,.25.05.49.07.72a14.83,14.83,0,0,0,.31,1.64c.11.53.23,1.06.34,1.59a1.43,1.43,0,0,0,2.8-.38c0-.81-.05-1.62-.06-2.44,0-.29,0-.58,0-.87-.06-.8-.12-1.59-.17-2.38,0-.38-.08-.76-.13-1.14l0-.22c0,.38-.07.75-.13,1.13A10.61,10.61,0,0,1,22.44,43a4.45,4.45,0,0,1-.33.78l-.09.18-.19.28-.16.18-.12.1a1,1,0,0,1-.24.14.54.54,0,0,1-.25.06h-.13a.37.37,0,0,1-.18,0l-.08-.06a.74.74,0,0,1-.25-.54,2.22,2.22,0,0,1,0-.45c0-.12,0-.24,0-.36,0-.49.09-1,.13-1.45,0-.26,0-.52,0-.79,0-.12,0-.25,0-.37a2.29,2.29,0,0,0,0-.25h0v0a3.43,3.43,0,0,0-.18-.7c-.09-.23-.19-.46-.27-.7a3.5,3.5,0,0,1-.15-.73,6.78,6.78,0,0,1,0-.78q0-.34.06-.69a4.36,4.36,0,0,1,.17-.78,3.84,3.84,0,0,1,.14-.36,2.34,2.34,0,0,1,.15-.27,3.06,3.06,0,0,1,.21-.29l.26-.26.19-.14a1.89,1.89,0,0,1,.36-.16l.17,0c0-.08,0-.16-.05-.23a.26.26,0,0,1,.18-.31h.06a.25.25,0,0,1,.24.18,2.05,2.05,0,0,1,.07.34l0,0c-.14-1-.25-2.05-.37-3.08l-.24-2.18c-.06-.59-.05-1.18-.08-1.77l-.06-1.32a3.85,3.85,0,0,1,0-.48c.08-.77.14-1.53.24-2.29,0-.1,0-.2,0-.3s0,0,0,0a.39.39,0,0,0-.37-.52.41.41,0,0,0-.39.29Z" style="fill:#ebe150"/><path d="M17.5,31.27c-.37,1.12-.79,2.22-1.19,3.32-.58,1.32-1.18,2.63-1.71,4-.62,1.55-1.24,3.09-1.83,4.65-.26.68-.53,1.36-.77,2-.31.89-.62,1.79-.92,2.68-.25.72-.39,1.49-.58,2.22a9.45,9.45,0,0,0-.24,1.31c0,.48-.09,1-.13,1.45,0,.26-.05.51-.08.77a1.63,1.63,0,0,0,0,.31l.06,0,.24.09a.29.29,0,0,1,.12.15.24.24,0,0,1,0,.19l0,.07v0c.13.24.27.48.41.71l.2.3.19.26h0s0,0,0,0h0l0,0c.07.1.15.19.23.29l.27.41a3.36,3.36,0,0,1,.26.5,1.92,1.92,0,0,1,.14.36,1.86,1.86,0,0,0,.7-.23,1.94,1.94,0,0,0,.82-1.07c.26-.67.56-1.35.77-2s.33-1.06.49-1.59a21.13,21.13,0,0,0,.5-2.26c.3-1.53.49-3.1.66-4.65.37-3.18.74-6.35,1.13-9.53,0-.38.09-.76.14-1.14.29-1.15.54-2.31.91-3.44a.37.37,0,0,0-.38-.49.4.4,0,0,0-.39.28Z" style="fill:#ebe150"/><path d="M17,29.34c0,.16,0,.34-.09.5l-.09.25c-.18.49-.34,1-.52,1.47-.16.3-.3.62-.46.92s-.38.73-.52,1.11c-.3.84-.61,1.68-.92,2.53-.24.64-.4,1.31-.59,2s-.38,1.29-.55,1.94l-.73,2.89c-.17.67-.3,1.35-.44,2s-.28,1.31-.38,2l-.24,1.57c-.07.43-.14.86-.17,1.29s-.08,1-.11,1.57a5.8,5.8,0,0,0-.05.93c.05.57.09,1.13.13,1.69a19.16,19.16,0,0,0,.37,2.39l.14.21a3.36,3.36,0,0,1,.26.5c.05.11.1.23.14.34a1.68,1.68,0,0,0,1.07.41,1.64,1.64,0,0,0,1.55-1.19c.18-.67.38-1.33.54-2,.11-.52.23-1,.35-1.54.17-.75.24-1.52.35-2.28.22-1.57.37-3.15.49-4.73.21-3.11.41-6.22.58-9.34.08-1.64.16-3.27.23-4.91.06-.34.13-.68.2-1l.12-.63c.05-.22.07-.44.13-.66a.4.4,0,0,0-.28-.68c-.3,0-.43.29-.51.53Z" style="fill:#ebe150"/><path d="M15.26,30a2.41,2.41,0,0,0-.24.65l-.18.55c-.13.37-.23.75-.37,1.11l-1,2.13c-.28.63-.49,1.28-.73,1.93s-.48,1.24-.67,1.88c-.27.88-.54,1.77-.8,2.65-.44,1.46-.81,2.92-1.2,4.39-.14.54-.25,1.09-.36,1.64s-.21,1-.31,1.51a11.55,11.55,0,0,0-.22,1.31L9,51.89c0,.28,0,.56-.08.85A9.48,9.48,0,0,0,9,53.8v.13l.11,0,.15,0h0a.17.17,0,0,1,.11,0l.07,0h.1l.27,0a1.67,1.67,0,0,1,.3.08l.24.09a.29.29,0,0,1,.12.15.24.24,0,0,1,0,.19l0,.07v0c.13.24.27.48.41.71l.2.3.19.26h0s0,0,0,0h0l0,0c.07.1.15.19.23.29l.27.41a2.74,2.74,0,0,1,.19.34,1.72,1.72,0,0,0,.73-1c.12-.51.23-1,.35-1.53.08-.34.19-.69.25-1s.13-.8.19-1.2c.14-.83.31-1.67.39-2.52.15-1.51.3-3,.42-4.51q.36-4.64.73-9.26c.09-1.08.19-2.16.29-3.23.08-.35.2-.69.3-1s.2-.71.31-1.06a.35.35,0,0,1,0-.08.39.39,0,0,0-.14-.54.39.39,0,0,0-.2-.06.46.46,0,0,0-.35.2Z" style="fill:#ebe150"/><path d="M18.44,127.67a1.15,1.15,0,0,0-.07.36l-.26.71a8.24,8.24,0,0,0-1.29,1.82,10,10,0,0,0-.61,1.52,10.9,10.9,0,0,0-.28,1.26,8.75,8.75,0,0,0-.17,1.7c0,.23,0,.46,0,.69,0,.41.1.83.16,1.24a11.74,11.74,0,0,0,1.47,4.1,22.25,22.25,0,0,0,3.6,4.76,31.85,31.85,0,0,0,4.06,3.26c1,.86,2,1.79,3,2.75l.85.85a10.44,10.44,0,0,0,.73.76l.49.41a.69.69,0,0,0,.13.11,3.32,3.32,0,0,0,1.46.85l.61.22a7.3,7.3,0,0,0,.93.19A2.45,2.45,0,0,0,35,155a2.19,2.19,0,0,0,1.11-1.93,10.52,10.52,0,0,0-.21-1.58c-.06-.23-.12-.45-.19-.68a3.54,3.54,0,0,0-.73-1.32,10,10,0,0,0-1-1.17c-.69-.68-1.42-1.33-2.16-2a31.46,31.46,0,0,0-2.91-2.22c-.71-.48-1.43-.93-2.13-1.42A21.67,21.67,0,0,1,24,140a19.25,19.25,0,0,1-2-3.38c-.52-1.37-.89-2.78-1.31-4.17a22.4,22.4,0,0,0-1.5-3.58c0-.3,0-.6,0-.9a.36.36,0,0,0,0-.11h0a.39.39,0,0,0-.37-.51.41.41,0,0,0-.39.29Z" style="fill:#ebe150"/><path d="M34.5,150.06a.3.3,0,0,0-.07.11.26.26,0,0,0,0,.19c.06.13.13.25.2.37l.18.28q.12.23.27.45a.35.35,0,0,0-.15.07.24.24,0,0,0-.07.18.31.31,0,0,0,.07.18c.19.23.38.47.56.71l0,0-.18-.08a.45.45,0,0,0-.16,0,.36.36,0,0,0-.27.07l0,0,0,0a2.43,2.43,0,0,0-.48-.53.34.34,0,0,0-.14-.08l-.14,0a.23.23,0,0,0-.14,0,.43.43,0,0,0-.1.09h0l-.15,0a.21.21,0,0,0-.2,0,.24.24,0,0,0-.09.08.25.25,0,0,0-.11.36l.08.11v0l.12.26c.09.19.2.37.3.54l.23.37.14.22.12.2c-.35-.2-.68-.44-1-.67l0,0,0,0h0c-.23-.19-.47-.37-.69-.57s-.25-.23-.36-.34a4.86,4.86,0,0,1-.38-.41h0a.23.23,0,0,0-.21-.13h0a.25.25,0,0,0-.21.38,2.92,2.92,0,0,0,.32.38l.28.28c.24.22.49.44.75.64l.48.35h-.09a.25.25,0,0,0-.24.32.35.35,0,0,0,0,.13.58.58,0,0,0,.19.19l0,0h-.06l-.14-.08-.17-.07a.32.32,0,0,0-.17,0,.26.26,0,0,0-.17.18.22.22,0,0,0,.06.24l.06.05,0,.05h0c.29.24.61.44.93.66l.16.11.79.52a.26.26,0,0,0,.34-.09.24.24,0,0,0,0-.3l.3.14.3.14a1.73,1.73,0,0,0,.31.14l.13.05.25,0a.24.24,0,0,0,.21-.13.25.25,0,0,0,0-.25l-.06-.14-.12-.14a.86.86,0,0,0-.2-.18l-.35-.32h0l.64.24.9.31.39.13a.71.71,0,0,0,.21,0,.29.29,0,0,0,.2,0,.25.25,0,0,0,.12-.22v-.09a.75.75,0,0,0,0-.16.69.69,0,0,0,0-.13l0,0a.26.26,0,0,0,.11-.28s0,0,0-.07a.72.72,0,0,0-.11-.19c-.05-.08-.13-.16-.19-.24l0,0,0,0a.24.24,0,0,0,0-.3,1.44,1.44,0,0,0-.32-.33l-.33-.3-.3-.26,0,0-.06-.1-.27-.45-.54-.95-.54-.92-.25-.4-.14-.22a.76.76,0,0,0-.11-.14.41.41,0,0,0-.12-.11.19.19,0,0,0-.12,0,.25.25,0,0,0-.18.08Zm-2.71,2.05v0Zm3.93.74,0,0,0,0Zm-.42.12s0,0,0,0v0Zm0,.1h0l.27.16,0,0a.28.28,0,0,0-.15.11l-.15-.3Zm-.61,2.32a.32.32,0,0,0,0-.09l.33.27-.36-.18Zm2.62,0,0,.1-.08,0,0-.07Zm.1.22,0,0,0,0Zm-4.2-2.1h0Z" style="fill:#8f7626"/><path d="M34.15,150.86a.24.24,0,0,0-.07.18.21.21,0,0,0,.07.17c.2.17.41.33.62.49a7.4,7.4,0,0,0,.65.44c.19.12.38.23.56.36s.43.3.64.46l.51.42.5.49a11.38,11.38,0,0,1,.86,1l0,0c.07.09.14.19.22.28a4,4,0,0,1,.43.72.36.36,0,0,1,0,.11,1.74,1.74,0,0,1,.05.22v0s0,0,0,.06h0c0,.06,0,.13,0,.19a2,2,0,0,1,0,.23v-.06s0,.06,0,.09a2.15,2.15,0,0,1-.1.27l0,0a1.09,1.09,0,0,1-.14.23l-.11.12-.09.05-.17,0h-.06a4,4,0,0,1-.46-.13l-.22-.08c-1.16-.5-2.3-1.08-3.42-1.69-.53-.29-1-.59-1.57-.89l-.86-.51-.41-.24-.18-.1-.23-.14a.25.25,0,0,0-.19,0,.26.26,0,0,0-.15.12.21.21,0,0,0,0,.19.26.26,0,0,0,.12.15l.17.11.2.11.31.18.63.38,1.4.8c.9.51,1.81,1,2.74,1.44.46.22.91.44,1.39.62a3.16,3.16,0,0,0,.52.17l.27,0a1,1,0,0,0,.34,0l.06,0a.45.45,0,0,0,.2-.12.88.88,0,0,0,.23-.24,1.76,1.76,0,0,0,.3-.74,2.2,2.2,0,0,0,0-.36,1.65,1.65,0,0,0,0-.32,1.83,1.83,0,0,0-.11-.33,3.42,3.42,0,0,0-.23-.42,6.58,6.58,0,0,0-.38-.54l-.29-.36a13,13,0,0,0-1-1.08,11.33,11.33,0,0,0-1.33-1.07l-.71-.45a6.62,6.62,0,0,1-.64-.44l0,0,0,0h0l-.43-.34a.31.31,0,0,0-.18-.07.29.29,0,0,0-.18.07ZM39,157l0,0,0,0Zm-.16.17h0Zm.35-.67h0Zm0-.36h0v0s0,0,0,0Zm-4.26-5h0a0,0,0,0,1,0,0Z" style="fill:#8f7626"/><path d="M34.72,151.56a.27.27,0,0,0-.09.35c0,.09.12.18.17.27l.24.34c.17.25.35.49.52.73l.54.74.24.34.12.16a.24.24,0,0,0-.05.23l0,.06a.37.37,0,0,0,.07.14.93.93,0,0,0,.13.15,5.6,5.6,0,0,0,.4.45.25.25,0,1,0,.35-.35l-.24-.27h0a.27.27,0,0,0,0-.12.28.28,0,0,0,0-.13l0-.1a2.13,2.13,0,0,0-.16-.25l-.11-.15-.25-.34L36,153c-.17-.23-.32-.45-.48-.68s-.16-.22-.25-.34a3,3,0,0,1-.21-.35.29.29,0,0,0-.23-.12.27.27,0,0,0-.12,0Z" style="fill:#8f7626"/><path d="M35.46,152.48a.26.26,0,0,0-.07.11.33.33,0,0,0,0,.14.59.59,0,0,0,.12.2c.05.08.11.15.17.23l.29.37c.26.32.53.62.8.93a.25.25,0,0,0,.35,0,.25.25,0,0,0,0-.36c-.35-.39-.69-.8-1-1.21h0l-.22-.3a.26.26,0,0,0-.17-.17h-.07a.24.24,0,0,0-.18.07Z" style="fill:#8f7626"/><path d="M35.83,152.37c.05.08.11.15.16.22l.16.2.32.39c.27.32.56.64.84,1a.25.25,0,0,0,.35,0,.26.26,0,0,0,0-.36c-.44-.5-.89-1-1.31-1.54l0,0a.76.76,0,0,1-.11-.14.25.25,0,0,0-.23-.15.26.26,0,0,0-.22.37Z" style="fill:#8f7626"/><path d="M35.39,151.62a.26.26,0,0,0-.09.34,11.28,11.28,0,0,0,.72.95c.4.49.81,1,1.22,1.44a.25.25,0,0,0,.35,0,.24.24,0,0,0,0-.35l-.9-1.06-.65-.81-.31-.42a.26.26,0,0,0-.22-.13.19.19,0,0,0-.12,0Z" style="fill:#8f7626"/><path d="M34.1,152.69a.25.25,0,0,0,0,.35c.28.27.58.53.86.78L36.22,155a.25.25,0,0,0,.35,0,.25.25,0,0,0,0-.36c-.4-.35-.8-.7-1.19-1.06s-.62-.55-.92-.84a.26.26,0,0,0-.18-.07.24.24,0,0,0-.18.07Z" style="fill:#8f7626"/><path d="M32.35,153.17a.24.24,0,0,0,0,.35q.6.51,1.23,1l.73.54c.39.29.78.56,1.18.84a.25.25,0,0,0,.34-.09.3.3,0,0,0,0-.19.26.26,0,0,0-.12-.15l-1.24-.88-.67-.51h0l0,0,0,0h0l-1.1-.88a.26.26,0,0,0-.17-.07.23.23,0,0,0-.18.07Zm1.46.89h0l0,0Z" style="fill:#8f7626"/><path d="M33.11,153.64a.29.29,0,0,0-.15.12.24.24,0,0,0,0,.19.28.28,0,0,0,.11.15l.21.13.32.2.64.41c.59.36,1.18.72,1.78,1.07a.25.25,0,0,0,.25-.43l-1.77-1.07c-.21-.13-.4-.26-.61-.38l-.3-.19-.26-.17a.19.19,0,0,0-.12,0Z" style="fill:#8f7626"/><path d="M31.82,152.05a.25.25,0,0,0,0,.36c.19.17.4.33.61.49l.8.65L35,155a.31.31,0,0,0,.18.07.24.24,0,0,0,.25-.25.23.23,0,0,0-.07-.17l-1.77-1.43-.77-.63-.67-.55A.31.31,0,0,0,32,152a.23.23,0,0,0-.17.07Z" style="fill:#8f7626"/><path d="M31,151.78a.26.26,0,0,0,.09.34c.53.28,1,.59,1.55.9l2,1.22a.25.25,0,0,0,.25-.43l-2-1.21c-.52-.32-1-.63-1.57-.91a.27.27,0,0,0-.12,0,.25.25,0,0,0-.22.12Z" style="fill:#8f7626"/><path d="M32.09,149.85a.25.25,0,0,0,0,.35c.18.18.37.35.56.52l.53.48.63.54,1.12.92a.31.31,0,0,0,.18.07.24.24,0,0,0,.25-.25.24.24,0,0,0-.07-.18l-1.07-.86-.63-.55-.57-.51-.58-.53a.22.22,0,0,0-.17-.07.24.24,0,0,0-.18.07Z" style="fill:#8f7626"/><path d="M34,150a.25.25,0,0,0-.08.34,1.12,1.12,0,0,0,.16.22l.24.31c.14.18.28.35.43.52s.33.4.5.59l.84.92a.25.25,0,0,0,.35,0,.26.26,0,0,0,0-.36c-.39-.41-.77-.83-1.13-1.26s-.56-.67-.83-1l-.14-.18a.26.26,0,0,0-.21-.13.33.33,0,0,0-.13,0Z" style="fill:#8f7626"/><path d="M34.93,150.45a.24.24,0,0,0,0,.3,3.08,3.08,0,0,0,.3.41l.26.32.64.78c.47.57,1,1.11,1.47,1.63a.25.25,0,0,0,.35,0,.24.24,0,0,0,0-.35c-.48-.5-.95-1-1.4-1.55l-1.14-1.41,0-.06a.26.26,0,0,0-.1-.11h0a.27.27,0,0,0-.12,0,.24.24,0,0,0-.18.07Zm.45.14,0,0,0,0Z" style="fill:#8f7626"/><path d="M35.47,151a.26.26,0,0,0,0,.3l.19.21c.09.1.18.19.26.29l.49.53c.5.53,1,1.05,1.52,1.57a.25.25,0,1,0,.35-.35c-.49-.5-1-1-1.46-1.52l-.53-.57-.24-.26L35.9,151l0,0h0a.25.25,0,0,0-.18-.08.29.29,0,0,0-.22.13Z" style="fill:#8f7626"/><path d="M36.79,152.16a.23.23,0,0,0-.08.17.23.23,0,0,0,.08.18c.15.19.32.37.48.56l.46.49.54.55,1,.95a.25.25,0,0,0,.36,0,.26.26,0,0,0,0-.35c-.5-.48-1-1-1.45-1.45-.18-.17-.34-.35-.5-.53s-.34-.38-.5-.57a.25.25,0,0,0-.18-.08.25.25,0,0,0-.17.08Z" style="fill:#8f7626"/><path d="M37.34,153.69a.23.23,0,0,0-.08.18.23.23,0,0,0,.08.17c.62.73,1.24,1.46,1.88,2.18a.25.25,0,1,0,.35-.35c-.64-.72-1.26-1.45-1.88-2.18a.23.23,0,0,0-.17-.08.25.25,0,0,0-.18.08Z" style="fill:#8f7626"/><path d="M37.6,154.27a.24.24,0,0,0,0,.35,2.34,2.34,0,0,0,.31.32l.35.33c.35.33.72.65,1.09,1a.26.26,0,0,0,.18.07.24.24,0,0,0,.18-.07.25.25,0,0,0,0-.35c-.35-.3-.7-.59-1-.9l-.34-.33a4.54,4.54,0,0,1-.38-.38.23.23,0,0,0-.17-.07.23.23,0,0,0-.18.07Z" style="fill:#8f7626"/><path d="M37.51,153.51a.25.25,0,0,0-.09.34c.57.83,1.18,1.63,1.79,2.44a.36.36,0,0,0,.16.11.25.25,0,0,0,.19,0,.27.27,0,0,0,.11-.15.23.23,0,0,0,0-.2c-.62-.8-1.23-1.6-1.8-2.43a.25.25,0,0,0-.22-.12l-.12,0Z" style="fill:#8f7626"/><path d="M36.23,154.73a.26.26,0,0,0-.08.35c.08.12.19.25.28.37s.23.27.35.41.45.52.69.78c.53.6,1.09,1.18,1.66,1.74a.24.24,0,0,0,.35,0,.25.25,0,0,0,0-.35c-.54-.53-1-1.08-1.57-1.64s-.83-.93-1.22-1.42v0l0,0v0h0a.83.83,0,0,1-.08-.12.26.26,0,0,0-.22-.12.31.31,0,0,0-.13,0Zm.44.23h0l0,0v0Z" style="fill:#8f7626"/><path d="M36.34,154.56a.26.26,0,0,0-.12.15.3.3,0,0,0,0,.19.26.26,0,0,0,.15.12l.38.15h0l1.1.49c.49.23,1,.46,1.48.66a.24.24,0,0,0,.2,0,.28.28,0,0,0,.11-.15.24.24,0,0,0,0-.19.35.35,0,0,0-.15-.12l-.34-.14,0,0-1.39-.64-1.25-.54h-.06a.28.28,0,0,0-.13,0Zm.47.63,0,0,0,0Z" style="fill:#8f7626"/><path d="M37.48,154.43a.23.23,0,0,0,0,.35c.21.2.44.37.67.56l.68.54.66.52c.27.21.53.41.81.59a.25.25,0,0,0,.34-.09.26.26,0,0,0-.09-.34c-.24-.16-.47-.33-.7-.51h0l-1-.79-.53-.44-.47-.39a.27.27,0,0,0-.18-.08.23.23,0,0,0-.17.08Z" style="fill:#8f7626"/><path d="M36.56,154.33a.25.25,0,0,0,0,.35c.12.13.25.24.38.36l.44.39c.29.27.59.52.89.78.66.57,1.33,1.13,2,1.67a.23.23,0,0,0,.18.08.25.25,0,0,0,.17-.08.23.23,0,0,0,.08-.17.25.25,0,0,0-.08-.18c-.68-.54-1.34-1.1-2-1.67l-.88-.77-.4-.36c-.15-.14-.3-.26-.43-.4a.25.25,0,0,0-.17-.08.27.27,0,0,0-.19.08Z" style="fill:#8f7626"/><path d="M34.62,153.29a.24.24,0,0,0-.07.18.31.31,0,0,0,.07.18l.41.46.55.6,1.09,1.19c.73.79,1.45,1.57,2.19,2.34a.25.25,0,0,0,.35-.35c-.74-.77-1.46-1.56-2.19-2.34l-1-1.12-.57-.63c-.15-.17-.31-.33-.45-.51a.2.2,0,0,0-.16-.07.26.26,0,0,0-.19.07Z" style="fill:#8f7626"/><path d="M35.34,154.41a.26.26,0,0,0,0,.36c.13.13.28.25.42.37l.42.36,1,.86c.72.58,1.44,1.17,2.18,1.74a.26.26,0,0,0,.17.07.24.24,0,0,0,.25-.25.21.21,0,0,0-.07-.17c-.73-.57-1.45-1.16-2.18-1.74l-1-.81-.48-.4-.2-.19-.23-.2a.22.22,0,0,0-.17-.07.26.26,0,0,0-.18.07Z" style="fill:#8f7626"/><path d="M33.61,154.33a.25.25,0,0,0-.15.37l.06.08.14.13.27.22.48.38,1,.74,1,.72c.4.28.8.56,1.22.82a.25.25,0,0,0,.34-.08.25.25,0,0,0-.09-.34c-.59-.38-1.15-.78-1.72-1.18s-1-.71-1.48-1.08h0l0,0,0,0h0l-.37-.29-.42-.36a.27.27,0,0,0-.21-.12Zm1.08.77h0l0,0Z" style="fill:#8f7626"/><path d="M35.7,153.22h0a.27.27,0,0,0,0,.31c.06.07.13.12.2.19l.23.2.37.31.8.66c.62.51,1.25,1,1.88,1.48a.23.23,0,0,0,.34-.09.22.22,0,0,0,0-.19.26.26,0,0,0-.12-.15l-.38-.29h0l0,0,0,0h0c-.48-.37-1-.75-1.42-1.14l-.75-.62-.36-.3-.24-.21a1.29,1.29,0,0,1-.17-.16.27.27,0,0,0-.08-.07.28.28,0,0,0-.13,0,.24.24,0,0,0-.21.12Zm3.37,2.42h0l0,0Z" style="fill:#8f7626"/><path d="M17,22.57a.35.35,0,0,0-.12.15s0,.05,0,.07a1.79,1.79,0,0,1,0,.23c0,.1,0,.2.05.31,0,.31.08.62.13.93a.21.21,0,0,0,.11.15.25.25,0,0,0,.19,0,.24.24,0,0,0,.15-.11.35.35,0,0,0,0-.2c-.05-.32-.09-.63-.14-.95,0,0,0,0,0,.06s0-.27-.06-.41a.24.24,0,0,0-.18-.27h-.07a.27.27,0,0,0-.12,0Z" style="fill:#8f7626"/><path d="M16.94,23a.3.3,0,0,0-.08.18,3.85,3.85,0,0,0,0,.48c0,.22,0,.44,0,.66,0,.58.05,1.17.09,1.75a.25.25,0,0,0,.25.25.25.25,0,0,0,.25-.25c0-.55-.07-1.11-.09-1.66,0-.23,0-.45,0-.68s0-.19,0-.28a2.43,2.43,0,0,1,0-.27.25.25,0,0,0-.25-.25.22.22,0,0,0-.17.07Z" style="fill:#8f7626"/><path d="M17.5,23.45a.24.24,0,0,0-.07.18c-.08,1-.15,1.94-.22,2.9a.25.25,0,0,0,.5,0c.07-1,.14-1.93.22-2.9a.25.25,0,0,0-.25-.25.29.29,0,0,0-.18.07Z" style="fill:#8f7626"/><path d="M16.85,24.18a.41.41,0,0,0-.07.11,1.79,1.79,0,0,0,0,.24c0,.18,0,.36,0,.54s0,.54,0,.81,0,.62,0,.94c0,.54,0,1.09,0,1.63a.25.25,0,0,0,.25.25.25.25,0,0,0,.25-.25c0-.52,0-1,0-1.55,0-.3,0-.59,0-.89l0-.85c0-.14,0-.29,0-.43s0-.23,0-.34a0,0,0,0,0,0,0,.23.23,0,0,0-.08-.18.22.22,0,0,0-.17-.07.24.24,0,0,0-.18.07Z" style="fill:#8f7626"/><path d="M17.25,24.54a.25.25,0,0,0-.08.18c0,.33-.05.66-.07,1s-.05.78-.07,1.17c-.05.92-.07,1.85-.09,2.78a.25.25,0,0,0,.25.25.25.25,0,0,0,.25-.25c0-.93.06-1.85.09-2.78l.06-1.07c0-.36,0-.73.08-1.09a.23.23,0,0,0-.07-.18.24.24,0,0,0-.18-.07.22.22,0,0,0-.17.07Z" style="fill:#8f7626"/><path d="M16.83,25.23a.26.26,0,0,0-.07.17c0,.13,0,.26,0,.39s0,.33,0,.49c0,.35,0,.69,0,1s0,.71,0,1.06c0,.64,0,1.27,0,1.91a.25.25,0,0,0,.5,0c0-1,0-1.91,0-2.87,0-.37,0-.73,0-1.09,0-.16,0-.31,0-.46s0-.31,0-.47a.26.26,0,0,0-.25-.25.25.25,0,0,0-.18.08Z" style="fill:#8f7626"/><path d="M17,27.27a.26.26,0,0,0-.07.18c0,.25,0,.49-.05.74s0,.52,0,.78c0,.48-.06,1-.08,1.44-.08,1.31-.15,2.6-.21,3.91a.27.27,0,0,0,.25.25.25.25,0,0,0,.25-.25c.06-1.28.13-2.55.2-3.82,0-.48.06-1,.08-1.45l0-.79c0-.27,0-.54.05-.81a.26.26,0,0,0-.25-.25.29.29,0,0,0-.18.07Z" style="fill:#8f7626"/><path d="M16.21,28c0,.33,0,.67,0,1s0,.79,0,1.18,0,.78,0,1.17c0,.73.05,1.45.08,2.18a.25.25,0,0,0,.25.25.25.25,0,0,0,.25-.25c0-1.08-.09-2.16-.1-3.25,0-.4,0-.81,0-1.21v-.51c0-.19,0-.37,0-.56a.25.25,0,0,0-.25-.25.25.25,0,0,0-.25.25Z" style="fill:#8f7626"/><path d="M17.42,30.28c0,.12-.05.25-.07.37s-.06.36-.08.54c0,.35-.09.69-.12,1s-.07.68-.09,1l0,.68c0,.39,0,.78,0,1.17a.25.25,0,0,0,.25.25.25.25,0,0,0,.25-.25c0-.46,0-.92.05-1.39,0-.27,0-.54,0-.81l.09-.91c0-.26.06-.52.1-.78a.11.11,0,0,1,0,.05c0-.29.08-.57.14-.85a.24.24,0,0,0-.17-.31h-.06a.26.26,0,0,0-.25.19Z" style="fill:#8f7626"/><path d="M18.32,31.22h0a.26.26,0,0,0-.18.17c0,.18,0,.34,0,.51l0,.59L18,33.6c-.05,1-.08,2.09-.11,3.14a.26.26,0,0,0,.25.25.25.25,0,0,0,.25-.25c0-1,.06-2,.11-3.05,0-.72.07-1.43.11-2.14v0h0a.17.17,0,0,0,0-.14.25.25,0,0,0-.24-.18Zm.3.3h0Zm0,0h0v0Z" style="fill:#8f7626"/><path d="M17.94,32.89c0,.13-.05.26-.07.39s-.05.37-.07.56-.08.65-.1,1-.06.7-.07,1l0,.71c0,.38,0,.75,0,1.13a.25.25,0,0,0,.25.25.26.26,0,0,0,.25-.25c0-.46,0-.91,0-1.36,0-.27,0-.55,0-.82l.06-.87c0-.26.06-.52.09-.78s.07-.56.12-.85a.25.25,0,0,0,0-.19.19.19,0,0,0-.15-.11h-.06a.24.24,0,0,0-.24.18Zm.35,1v0Z" style="fill:#8f7626"/><path d="M17.41,33.35a.6.6,0,0,0-.06.23c0,.16,0,.33,0,.5s0,.48,0,.73,0,.41,0,.61,0,.34,0,.5c0,.41,0,.81,0,1.22,0,.69,0,1.38,0,2.08a.25.25,0,0,0,.5,0c0-.65,0-1.29,0-1.93,0-.38,0-.77,0-1.15s0-.78.05-1.17l0-.46c0-.29,0-.58.07-.87,0,0,0-.06,0-.09a.26.26,0,0,0-.12-.29.19.19,0,0,0-.12,0,.26.26,0,0,0-.22.13Z" style="fill:#8f7626"/><path d="M17.67,32.34a.26.26,0,0,0-.11.16c0,.27-.06.56-.08.84s-.06.68-.08,1,0,.54,0,.82,0,.57-.05.86,0,.74,0,1.11,0,.68,0,1c0,.83,0,1.66,0,2.49a.26.26,0,0,0,.25.25.25.25,0,0,0,.25-.25l0-1.52c0-.28,0-.55,0-.83s0-.75,0-1.13,0-.66,0-1c0-.56.06-1.12.1-1.69s.09-1.24.15-1.86v0a.09.09,0,0,0,0,0v0h0a.35.35,0,0,0,0-.2.31.31,0,0,0-.16-.11H17.8a.31.31,0,0,0-.13,0Zm.37.3v0Z" style="fill:#8f7626"/><path d="M17.4,34.67a.19.19,0,0,0-.11.15c-.05.32-.07.65-.09,1s-.05.77-.07,1.15,0,.72,0,1.07,0,.52,0,.78c0,.42,0,.83,0,1.25a.25.25,0,0,0,.5,0c0-.4,0-.8,0-1.2,0-.24,0-.49,0-.74s0-.71,0-1.07c0-.7.07-1.41.14-2.11,0,0,0,0,0,.07a.07.07,0,0,1,0,0,.25.25,0,0,0,0-.19.26.26,0,0,0-.15-.12h-.07a.28.28,0,0,0-.12,0Z" style="fill:#8f7626"/><path d="M17.49,38.88a.23.23,0,0,0-.15.11l0,.07a1.41,1.41,0,0,0-.06.22,3,3,0,0,0-.07.32l-.12.66c0,.2-.07.41-.1.62s-.05.28-.06.42c-.06.37-.11.75-.16,1.13-.07.61-.14,1.23-.2,1.84a.26.26,0,0,0,.07.18.29.29,0,0,0,.18.07.31.31,0,0,0,.18-.07.29.29,0,0,0,.07-.18c.06-.62.14-1.25.21-1.88.06-.46.12-.92.19-1.38,0-.25.08-.5.13-.75l.09-.52a4.39,4.39,0,0,1,.13-.52.25.25,0,0,0-.11-.32.21.21,0,0,0-.12,0Z" style="fill:#8f7626"/><path d="M16.39,40c-.08.37-.13.75-.19,1.13s-.1.79-.16,1.18l-.06.62-.06.52-.06.75c0,.4,0,.81-.08,1.21a.25.25,0,0,0,.25.25.25.25,0,0,0,.25-.25c0-.74.09-1.48.17-2.22,0-.29.06-.59.1-.89l.12-.9,0,.07c.07-.45.12-.9.22-1.34a.26.26,0,0,0-.17-.31h-.07a.26.26,0,0,0-.24.19Z" style="fill:#8f7626"/><path d="M16.79,41.31a.53.53,0,0,0-.05.18c0,.12,0,.25-.06.37s-.07.44-.1.65c-.06.39-.1.78-.14,1.17,0,.19,0,.39-.05.58s0,.36,0,.54,0,.51,0,.77,0,.82,0,1.24a.26.26,0,0,0,.25.25.25.25,0,0,0,.25-.25c0-.76,0-1.52.1-2.28,0-.18,0-.36.05-.54s0-.22,0-.33c0-.3.07-.6.1-.9h0v0l.09-.65a4.69,4.69,0,0,1,.11-.54.27.27,0,0,0-.11-.31.31.31,0,0,0-.13,0,.29.29,0,0,0-.22.12Zm.43.25h0ZM17,42.75h0a.08.08,0,0,0,0,0v0Z" style="fill:#8f7626"/><path d="M16.44,42.55a.39.39,0,0,0-.1.19c0,.13-.07.24-.1.36v.06c-.05.19-.1.39-.14.58s-.14.63-.21.93c-.18.93-.36,1.85-.53,2.78a.25.25,0,0,0,0,.19.24.24,0,0,0,.14.12.25.25,0,0,0,.31-.18c.16-.88.33-1.76.51-2.65.07-.33.14-.66.22-1l.09-.42a5.9,5.9,0,0,1,.2-.72h0a.25.25,0,0,0-.06-.26.29.29,0,0,0-.18-.07.21.21,0,0,0-.17.07Z" style="fill:#8f7626"/><path d="M17,42.94a2.26,2.26,0,0,0-.11.37l-.12.48c-.06.31-.13.63-.17.94s-.11.68-.14,1-.05.47-.07.7,0,.74-.06,1.12a.26.26,0,0,0,.25.25.25.25,0,0,0,.25-.25c0-.4,0-.8.07-1.19s.05-.53.07-.79v.07c0-.24.07-.48.11-.71s.06-.4.1-.6.09-.44.14-.67.1-.41.17-.61a.26.26,0,0,0-.17-.31H17.2a.26.26,0,0,0-.24.19Z" style="fill:#8f7626"/><path d="M17.2,42.51a.25.25,0,0,0-.24.19,3,3,0,0,0-.06.43l0,.45c0,.23,0,.46,0,.69s0,.39,0,.59,0,.59,0,.88,0,.45,0,.67l0,.6.06.93c0,.42.08.84.13,1.27a.23.23,0,0,0,.07.17.25.25,0,0,0,.18.08.25.25,0,0,0,.17-.08.27.27,0,0,0,.08-.17c0-.4-.09-.8-.12-1.2s0-.63-.07-.95,0-.37,0-.56l0-.75c0-.24,0-.48,0-.71v-.6c0-.53,0-1.06.09-1.59h0a.29.29,0,0,0,0-.09.25.25,0,0,0-.25-.25Z" style="fill:#8f7626"/><path d="M17.94,42.75a.27.27,0,0,0-.25.19,4.25,4.25,0,0,0-.06.71c0,.18,0,.36,0,.55s0,.33,0,.49,0,.51,0,.76,0,.33,0,.49,0,.37,0,.56.05.48.07.72.08.69.12,1a.26.26,0,0,0,.12.15.22.22,0,0,0,.19,0,.23.23,0,0,0,.15-.12.21.21,0,0,0,0-.19c0-.12,0-.24,0-.37v0c-.06-.43-.09-.86-.13-1.3,0-.18,0-.36,0-.54s0-.32,0-.49c0-.39,0-.77,0-1.16a9.55,9.55,0,0,1,.05-1.19h0v0a.29.29,0,0,0,0-.09.26.26,0,0,0-.25-.25Zm.23.3v0h0v0Zm.17,4.7v0Z" style="fill:#8f7626"/><path d="M18,43.37a.24.24,0,0,0-.11.15,3.26,3.26,0,0,0,0,.54v.41l0,.86.06.88.06.62c0,.32.08.64.12,1a.25.25,0,0,0,.43.18.24.24,0,0,0,.07-.18c0-.29-.08-.58-.11-.87s0-.36-.05-.54-.05-.58-.07-.88,0-.59,0-.89,0-.64,0-1a.17.17,0,0,0,0-.14h0a.26.26,0,0,0-.24-.18.28.28,0,0,0-.13,0Zm.37.29v0Z" style="fill:#8f7626"/><path d="M17.35,41.62a.3.3,0,0,0-.08.18c0,.41-.05.83-.05,1.25s0,1,0,1.43c0,.19,0,.37,0,.56s0,.43,0,.65c0,.71.06,1.42.1,2.13a.25.25,0,0,0,.25.25.27.27,0,0,0,.25-.25c0-.71-.07-1.42-.1-2.13,0-.19,0-.37,0-.55s0-.44,0-.66c0-.47,0-.95,0-1.43s0-.84.05-1.25a.26.26,0,0,0-.07-.18.27.27,0,0,0-.18-.07.26.26,0,0,0-.17.07Z" style="fill:#8f7626"/><path d="M16.76,47a.29.29,0,0,0-.07.18c-.07.57-.1,1.15-.13,1.73,0,.29,0,.58,0,.87s0,.39,0,.59,0,.66,0,1a.25.25,0,0,0,.25.25.24.24,0,0,0,.25-.25l0-1.5c0-.31,0-.63,0-.95,0-.58.06-1.16.13-1.73a.26.26,0,0,0-.07-.18.27.27,0,0,0-.36,0Z" style="fill:#8f7626"/><path d="M16.94,45.15a.75.75,0,0,0-.13.35c0,.16,0,.33-.07.49l-.09.7c-.06.5-.11,1-.16,1.49-.1,1.12-.18,2.26-.25,3.39a.25.25,0,0,0,.25.25.25.25,0,0,0,.25-.25c.06-1,.12-2,.21-2.94.05-.46.08-.92.14-1.38,0-.2,0-.41.07-.61s.07-.52.1-.77c0,0,0,0,0,.06a4.51,4.51,0,0,1,.1-.53h0a.23.23,0,0,0-.05-.26.26.26,0,0,0-.18-.07.21.21,0,0,0-.17.07Z" style="fill:#8f7626"/><path d="M16.15,47.67A11.55,11.55,0,0,0,15.93,49l-.09.68c0,.17,0,.35-.05.52s0,.47,0,.71a.25.25,0,0,0,.25.25.25.25,0,0,0,.25-.25c0-.24,0-.47,0-.71l.06-.58.09-.75v0c.06-.36.11-.72.19-1.08a.26.26,0,0,0-.17-.31h-.07a.24.24,0,0,0-.24.18Zm.28,1.25a.06.06,0,0,0,0,0v0Z" style="fill:#8f7626"/><path d="M17.05,44.06a.76.76,0,0,0-.09.09,2.65,2.65,0,0,0-.12.37c-.06.17-.1.34-.15.51l-.12.46-.09.38c-.07.32-.15.63-.21,1-.11.52-.22,1-.31,1.56a.21.21,0,0,0,0,.19.29.29,0,0,0,.15.12.26.26,0,0,0,.31-.18c.14-.76.29-1.51.47-2.27l.21-.89q.12-.47.27-.93a.29.29,0,0,0,0-.27.25.25,0,0,0-.22-.12.31.31,0,0,0-.13,0Zm.34.36,0,0,0,0Z" style="fill:#8f7626"/><path d="M15.6,40.23h0a.27.27,0,0,0-.18.18,2.63,2.63,0,0,0-.07.49l0,.38c0,.07,0,.15,0,.23s0,.31,0,.46v.3c0,.11,0,.24,0,.36l0,.4a7.53,7.53,0,0,0,.09.8.24.24,0,0,0,.07.18.27.27,0,0,0,.18.07.26.26,0,0,0,.17-.07.27.27,0,0,0,.08-.18c0-.25-.08-.51-.09-.77s0-.23,0-.34,0-.38,0-.57,0-.31,0-.46v-.22c0-.25,0-.51.06-.76a.15.15,0,0,0,0,.07.58.58,0,0,1,0-.19.22.22,0,0,0,0-.18.26.26,0,0,0-.12-.15.18.18,0,0,0-.12,0Z" style="fill:#8f7626"/><path d="M16.48,31c0,.25,0,.49.07.74l0,.37c0,.29.05.58.07.87l.12,1.51c.05.61.09,1.22.14,1.83,0,.18,0,.36,0,.53s0,.21,0,.32A9.18,9.18,0,0,0,17,38.3a.27.27,0,0,0,.07.18.24.24,0,0,0,.18.07.25.25,0,0,0,.25-.25c0-.23,0-.46,0-.69s0-.38,0-.57l0-.21c0-.22,0-.44,0-.67s0-.7,0-1c0-.16,0-.33,0-.5a4.91,4.91,0,0,1,0-.54.26.26,0,0,0-.07-.17.24.24,0,0,0-.16-.07c0-.3,0-.6-.07-.89s0-.3,0-.44v0a.25.25,0,0,0,0-.19c0-.21-.07-.42-.1-.63l0-.17v-.12A2.53,2.53,0,0,0,17,31a.44.44,0,0,0,0-.1.26.26,0,0,0-.24-.18.25.25,0,0,0-.25.25Zm0,0v0h0v0Zm.53.51v0Z" style="fill:#8f7626"/><path d="M16,19.74a.3.3,0,0,0-.08.18c-.07.82,0,1.64,0,2.47,0,.15,0,.3,0,.46l0,.65c0,.63.07,1.26.12,1.88a.25.25,0,0,0,.25.25.25.25,0,0,0,.25-.25c0-.62-.09-1.25-.12-1.88l0-.56c0-.18,0-.37,0-.55,0-.83,0-1.65,0-2.47a.24.24,0,0,0-.25-.25.23.23,0,0,0-.17.07Z" style="fill:#8f7626"/><path d="M16,19.7a.24.24,0,0,0-.07.18c0,.45,0,.89,0,1.34,0,.2,0,.4,0,.6,0,.42,0,.83.06,1.26a.26.26,0,0,0,.25.25.25.25,0,0,0,.25-.25l-.06-1.17c0-.23,0-.46,0-.69,0-.45,0-.89,0-1.34a.26.26,0,0,0-.25-.25.29.29,0,0,0-.18.07Z" style="fill:#8f7626"/><path d="M16.69,20.86c0,.23,0,.45,0,.67a.25.25,0,0,0,.25.25.26.26,0,0,0,.25-.25c0-.22,0-.44,0-.67a.25.25,0,0,0-.5,0Z" style="fill:#8f7626"/><path d="M12.35,12.11a1.53,1.53,0,0,0-.3,0,1,1,0,0,0-.25.06,2.22,2.22,0,0,0-1.09.84,5.87,5.87,0,0,0-.37.59l-.19.35-.19.43-.12.34a2,2,0,0,0-.09.35,5.85,5.85,0,0,0-.15.75,7.37,7.37,0,0,0,0,.82,3.66,3.66,0,0,0,.17,1.14,2.58,2.58,0,0,0,.71,1.1,2.26,2.26,0,0,0,1.14.55,2.83,2.83,0,0,0,1.16-.05,2.67,2.67,0,0,0,.58-.25l.29-.2.29-.23.27-.28.22-.27a4.39,4.39,0,0,0,.44-.68,4.83,4.83,0,0,0,.48-1.86,3.65,3.65,0,0,0-.08-1,3.63,3.63,0,0,0-.28-.92c-.06-.12-.12-.24-.19-.36a3.36,3.36,0,0,0-.39-.54,3.67,3.67,0,0,0-.47-.4.94.94,0,0,0-.22-.12.71.71,0,0,0-.23-.06l-.22,0-.13.05a.24.24,0,0,0-.09-.08,1.19,1.19,0,0,0-.42-.11l-.16,0Zm-.69.74,0,0,0,0Zm-1.48,4.33c0-.22,0-.45,0-.68a3.67,3.67,0,0,1,0-.66l0-.1.09.53A14.78,14.78,0,0,0,11,18.59l-.06,0a2.65,2.65,0,0,1-.29-.29,2.43,2.43,0,0,1-.29-.49v0h0a2.82,2.82,0,0,1-.15-.57Zm2.55,1.6h0Z" style="fill:#8f7626"/><path d="M10,17.41a.5.5,0,1,0,.5-.5.51.51,0,0,0-.5.5Z" style="fill:#8f7626"/><path d="M9.7,17.24a.5.5,0,0,0,.5.5.5.5,0,0,0,0-1,.5.5,0,0,0-.5.5Z" style="fill:#8f7626"/><path d="M9.92,16a2.58,2.58,0,0,0,0,.4,3.62,3.62,0,0,0,0,.57,6.09,6.09,0,0,0,.2,1.05c0,.09.05.19.08.29a.6.6,0,0,0,.14.26,1.43,1.43,0,0,0,.22.15l.09.06a.6.6,0,0,0,.19.06.26.26,0,0,0,.22-.13l0-.08a.41.41,0,0,0,0-.11,1.48,1.48,0,0,0,0-.19h0a.31.31,0,0,0,.11-.16.31.31,0,0,0,0-.19.3.3,0,0,1,0-.08c-.08-.22-.16-.45-.25-.67s-.09-.24-.14-.35a1.83,1.83,0,0,0-.14-.32.24.24,0,0,0-.21-.13l0-.29h0a.25.25,0,0,0-.17-.31h-.06a.25.25,0,0,0-.25.19Zm1.17,1.86,0,0,0,0Z" style="fill:#8f7626"/><path d="M23.14,12.2a2.18,2.18,0,0,0-1.2.52,3.88,3.88,0,0,0-1.05,1.4,5.65,5.65,0,0,0-.46,1.41c0,.24-.08.49-.1.74l0,.37V17c0,.11,0,.21,0,.32s.05.35.08.49a4.07,4.07,0,0,0,.22.7,4.55,4.55,0,0,0,.3.63,3.53,3.53,0,0,0,.41.6,4.34,4.34,0,0,0,.47.52l.2.16a2.65,2.65,0,0,0,.29.18,1.3,1.3,0,0,0,.42.13h.33a1.69,1.69,0,0,0,.35-.1,2.34,2.34,0,0,0,.53-.32,3.12,3.12,0,0,0,.56-.46,4.4,4.4,0,0,0,.37-.38l.07-.08.3-.39a4.45,4.45,0,0,0,.33-.51,3.06,3.06,0,0,0,.26-.51,6.08,6.08,0,0,0,.54-2.16,4.55,4.55,0,0,0-.09-1.28,3.45,3.45,0,0,0-.14-.42,3,3,0,0,0-.21-.4,2.28,2.28,0,0,0-.69-.77,4.65,4.65,0,0,0-.41-.26,4.32,4.32,0,0,0-.45-.19l-.15-.06a.14.14,0,0,0-.1-.1L24,12.3a1.8,1.8,0,0,0-.38-.1l-.15,0h-.11a.93.93,0,0,0-.23,0Zm0,.5h0Zm.43,2.74h0ZM23,18.73Zm0,.71.26-.09.11-.08a.67.67,0,0,0,.16-.14l.1-.08,0,0a.88.88,0,0,1-.11.13l-.06.08a2.11,2.11,0,0,1-.15.15l-.14.08a.56.56,0,0,1-.19,0h-.14a1.41,1.41,0,0,1-.34-.19.79.79,0,0,0,.24.05H23Zm.51-.18a.08.08,0,0,0,0,0,.08.08,0,0,1,0,0Zm-.24.23,0,0,0,0Z" style="fill:#8f7626"/><path d="M22.15,19a.5.5,0,0,0,.5.5.5.5,0,0,0,.5-.5.5.5,0,0,0-.5-.5.51.51,0,0,0-.5.5Z" style="fill:#8f7626"/><path d="M22.15,19a.5.5,0,0,0,.5.5.5.5,0,0,0,.5-.5.5.5,0,0,0-.5-.5.51.51,0,0,0-.5.5Z" style="fill:#8f7626"/><path d="M22.71,102.51a3.49,3.49,0,0,0-.79.41,8.32,8.32,0,0,0-.74.59,2.61,2.61,0,0,0-.24.23l-.22.22-.36.39-.18.22c-.15.18-.29.35-.43.54s-.31.41-.45.62-.16.26-.25.39l-.14.22c-.08.15-.16.3-.25.45l-.27.52a7,7,0,0,0-.59,1.77,4.56,4.56,0,0,0-.08.9,3.65,3.65,0,0,0,.12.87,3.87,3.87,0,0,0,.23.65,3.17,3.17,0,0,0,.44.7l.3.34c.11.1.22.2.34.29a4,4,0,0,0,.74.47,3.24,3.24,0,0,0,.75.29,4.3,4.3,0,0,0,.95.17,8.43,8.43,0,0,0,1.23,0l.33,0,.31-.05.79-.11h-.06l.4,0a4.17,4.17,0,0,1,.5,0l.16,0,.31.11-.06,0,.14.08-.05,0a1.12,1.12,0,0,1,.2.18,1,1,0,0,1,.14.22h0a1.09,1.09,0,0,0,.05.17,1.28,1.28,0,0,1,.05.27.17.17,0,0,0,0-.07c0,.1,0,.2,0,.3s0,.29,0,.44h0s0,0,0,0v0h0a20.84,20.84,0,0,1-.85,3.19l-.14.42a4,4,0,0,0-.16.66s0,.11,0,.17a.7.7,0,0,0,0,.25s0,0,0,.06,0,.11.06.15a.58.58,0,0,0,.14.17l.2.11.17,0h.09l.2,0a1.79,1.79,0,0,0,.33-.18,1.54,1.54,0,0,0,.3-.22,3.08,3.08,0,0,0,.33-.3,5.52,5.52,0,0,0,.59-.69,8.73,8.73,0,0,0,.58-.91c.13-.26.25-.52.37-.78s.09-.22.13-.32.11-.29.17-.43l.12-.37.12-.36c0-.12.07-.26.1-.38s.08-.27.11-.4.11-.53.16-.8l.06-.37c0-.15,0-.31.06-.47s0-.21,0-.32,0-.34,0-.51,0-.54.05-.8,0-.37,0-.56,0-.39,0-.59,0-.48,0-.72,0-.48,0-.72,0-.43-.06-.64a9.38,9.38,0,0,0-.2-1.18,5.34,5.34,0,0,0-.62-1.5,4.75,4.75,0,0,0-.43-.55,4.57,4.57,0,0,0-.45-.43c-.17-.13-.34-.27-.52-.39a3.94,3.94,0,0,0-.51-.32l-.58-.31c-.17-.09-.35-.16-.52-.24l-1.09-.46-.54-.21-.23-.07-.15,0a2.33,2.33,0,0,0-.28,0,.27.27,0,0,0-.14,0,.17.17,0,0,0,0-.12.26.26,0,0,0-.24-.18Zm2.65,17.36.08,0h0l0,0Z" style="fill:#ba9a31"/><path d="M5.91,99.55l-.14.06-.15.11a2.39,2.39,0,0,0-.55.86,2.79,2.79,0,0,0-.12.34,2.37,2.37,0,0,0-.09.36,4.52,4.52,0,0,0-.08.63,4.07,4.07,0,0,0,0,.78,2.45,2.45,0,0,0,0,.27c0,.06,0,.13,0,.19s0,.19,0,.29a3.57,3.57,0,0,0,.11.47,4.19,4.19,0,0,0,.29.69c.07.14.16.28.23.42s.28.48.4.74a2.74,2.74,0,0,1,.15.4,2.71,2.71,0,0,1,.09.41v0h0a.73.73,0,0,0-.24.22,3.11,3.11,0,0,0-.38.63c-.07.14-.12.28-.17.41s-.15.39-.22.59a7.05,7.05,0,0,0-.3,1.77,5.63,5.63,0,0,0,.25,1.87,5.41,5.41,0,0,0,.34.78,3.62,3.62,0,0,0,.41.61,2.64,2.64,0,0,0,.67.58,1.33,1.33,0,0,0,.32.15,1.41,1.41,0,0,0,.35,0,1.14,1.14,0,0,0,.37,0,2.54,2.54,0,0,0,.38-.16,2.1,2.1,0,0,0,.3-.22l.31-.27a4.26,4.26,0,0,0,.49-.63,5.56,5.56,0,0,0,.46-.87c.06-.13.12-.27.17-.41l.14-.36.24-.7.21-.71c0-.14.06-.28.09-.41s.05-.23.07-.34.05-.34.08-.51a7.33,7.33,0,0,0,0-1.15,7.09,7.09,0,0,0-.12-1,5.89,5.89,0,0,0-.27-1,6.26,6.26,0,0,0-.32-.75,4.23,4.23,0,0,0-.5-.77,4.45,4.45,0,0,0-.49-.48,3.65,3.65,0,0,0-.31-.24h0L8.32,103l-.21-.22c-.11-.15-.21-.31-.31-.47s-.09-.17-.14-.26-.16-.32-.23-.48L7,100.69c-.08-.17-.16-.33-.23-.49a2.91,2.91,0,0,0-.25-.42.67.67,0,0,0-.15-.14.41.41,0,0,0-.11-.07l-.22,0-.15,0Zm.19.45h0Zm0,0h0l0,0,0,0ZM10,108.73Z" style="fill:#ba9a31"/><path d="M6.59,84.22a3.38,3.38,0,0,0-.86.3l-.44.23L5,84.94a.18.18,0,0,0-.07,0h0a.23.23,0,0,0-.08-.17.24.24,0,0,0-.35,0,3.8,3.8,0,0,0-.36.53,3.18,3.18,0,0,0-.16.32l-.06.14-.12.29c0,.11-.08.23-.12.34l-.09.29c0,.13-.07.26-.11.39l0,.13-.06.33a6.48,6.48,0,0,0-.1.77c0,.1,0,.2,0,.3a3.39,3.39,0,0,0,0,.45v.45a2.44,2.44,0,0,0,0,.27c0,.26,0,.53.08.8s.05.32.08.49a1.27,1.27,0,0,0,.06.28c0,.14.06.28.09.42a.74.74,0,0,0,0,.14l.09.35c.07.23.16.46.24.69s.09.2.13.31.11.25.17.37l.21.42a2.68,2.68,0,0,0,.18.28,4.87,4.87,0,0,0,.32.47,6.23,6.23,0,0,0,.68.78,5.1,5.1,0,0,0,.62.51,3,3,0,0,0,.68.36,3.58,3.58,0,0,0,.71.2l.4,0a3.41,3.41,0,0,0,.46,0,2.23,2.23,0,0,0,.57-.18,4.8,4.8,0,0,0,.7-.39A4.23,4.23,0,0,0,10.84,95a5.16,5.16,0,0,0,.47-.86,7.4,7.4,0,0,0,.34-.89,8.41,8.41,0,0,0,.23-1.11l0-.41,0-.32c0-.16,0-.32,0-.48s0-.24,0-.36,0-.2,0-.3l0-.47c0-.12,0-.25-.05-.37s-.08-.5-.12-.74-.06-.27-.09-.41a2.63,2.63,0,0,1-.08-.3c0-.1-.06-.2-.1-.3s-.09-.27-.15-.4l-.15-.37a5.15,5.15,0,0,0-.33-.61,4.43,4.43,0,0,0-1.39-1.38A3.3,3.3,0,0,0,9,84.61a3.12,3.12,0,0,0-.71-.29,4,4,0,0,0-.85-.16H7.26a4.9,4.9,0,0,0-.67.07ZM4.43,85.85Z" style="fill:#ba9a31"/><path d="M20.13,84.86a1.57,1.57,0,0,0-.46.39,4.08,4.08,0,0,0-.25.33c-.08.12-.15.25-.22.37a8.08,8.08,0,0,0-.37.85,6.36,6.36,0,0,0-.28,1.06,7.82,7.82,0,0,0,0,2.72,4.49,4.49,0,0,0,.33,1.12c.07.16.15.3.23.45a3.51,3.51,0,0,0,.27.4,3.18,3.18,0,0,0,.55.55,2.77,2.77,0,0,0,.57.34l.12,0a1.61,1.61,0,0,0,.36.1,1.79,1.79,0,0,0,.61,0,2.18,2.18,0,0,0,.83-.26,2.5,2.5,0,0,0,.62-.46,3.79,3.79,0,0,0,.48-.58,4.61,4.61,0,0,0,.43-.86,5.13,5.13,0,0,0,.36-1.63,5.91,5.91,0,0,0,0-.84c0-.18-.06-.36-.1-.55s-.06-.23-.09-.35a4.85,4.85,0,0,0-.26-.69,4.53,4.53,0,0,0-.64-.93,3.63,3.63,0,0,0-.47-.41,3.9,3.9,0,0,0-.71-.42l-.58-.28c-.24-.11-.47-.23-.72-.32l-.14,0-.08,0h0a.23.23,0,0,0-.2-.1.31.31,0,0,0-.13,0Zm-.82,6.61h0Z" style="fill:#ba9a31"/><path d="M28.63,71.25a1.34,1.34,0,0,0-.47.14l-.25.13-.2.14-.38.29h0l0,0h0L27,72.2a3,3,0,0,0-.43.09l-.27.08a2.78,2.78,0,0,0-.4.16l-.31.15-.3.2a2.43,2.43,0,0,0-.49.47,2.67,2.67,0,0,0-.48.81,4.24,4.24,0,0,0-.28,1.1,4.82,4.82,0,0,0,0,1.2,4.42,4.42,0,0,0,.13.61,4.23,4.23,0,0,0,.25.62,3.69,3.69,0,0,0,.64.87,4.48,4.48,0,0,0,.79.65l.29.17.2.11.57.3a13.5,13.5,0,0,1,1.9,1c.14.11.27.23.4.35a3.47,3.47,0,0,1,.25.29h0c.1.13.19.26.28.4s.22.43.32.64c0,0,0,0,0-.06,0,.14.12.28.17.42l.2.56c.12.37.23.73.33,1.1s.18.64.25,1,.15.74.22,1.11h0c.06.47.11,1,.14,1.43s.05,1,.07,1.53v.19a2.83,2.83,0,0,0,.06.42.14.14,0,0,1,0,.06.31.31,0,0,0,.1.15.46.46,0,0,0,.18.13.48.48,0,0,0,.43-.11l.11-.09.16-.19a3.61,3.61,0,0,0,.22-.39,4.35,4.35,0,0,0,.3-.88,4.28,4.28,0,0,0,.13-.73c0-.26,0-.52.06-.78s0-.51,0-.76c0-.52-.05-1-.09-1.54s-.1-1.11-.16-1.67-.1-.95-.13-1.43c0-.25,0-.49,0-.73s0-.58,0-.87c0-.48,0-1,.06-1.45,0-.23,0-.47,0-.7s0-.58,0-.88a7.75,7.75,0,0,0-.16-1.51,6.52,6.52,0,0,0-.21-.72c-.08-.21-.17-.43-.27-.63a9.8,9.8,0,0,0-.79-1.32c-.14-.2-.28-.39-.44-.58l-.26-.3L30.4,72a4.11,4.11,0,0,0-.54-.39l-.32-.17a2.43,2.43,0,0,0-.38-.13.78.78,0,0,0-.21,0l-.15,0-.17,0Zm-.26.59h0Zm-1.19.83h0ZM25.1,73.76h0Zm.69,4.79h0ZM32.63,88ZM32,89.92l-.06.06a.07.07,0,0,1,0,0H32Zm-.14.12v0Z" style="fill:#ba9a31"/><path d="M15.56,65.77a1.35,1.35,0,0,0-.33.19,4,4,0,0,0-.42.4l-.23.27-.22.3a12.14,12.14,0,0,0-.75,1.12c-.11.18-.22.36-.32.55s-.23.42-.34.64c-.21.4-.4.8-.59,1.2s-.39.81-.59,1.21-.44.83-.66,1.24c-.1.18-.19.38-.28.58a1.84,1.84,0,0,0-.09.25,3.17,3.17,0,0,0-.15.55,2.37,2.37,0,0,0,0,.84,1.25,1.25,0,0,0,.08.32,2.13,2.13,0,0,0,.14.35,2.62,2.62,0,0,0,.46.63c.17.2.38.38.55.58l.14.22h0l0,.06.06.25a.13.13,0,0,1,0-.06,2.64,2.64,0,0,1,0,.29,2.74,2.74,0,0,1,0,.5.13.13,0,0,1,0-.06,8,8,0,0,1-.32,1.26c-.13.42-.29.83-.38,1.26a1.68,1.68,0,0,0-.05.45,1.13,1.13,0,0,1,0,.18l0,.1a1,1,0,0,0,.07.15.38.38,0,0,0,.09.13.43.43,0,0,0,.12.11.51.51,0,0,0,.16.09A1.12,1.12,0,0,0,12,82a2.38,2.38,0,0,0,.84,0l.51-.12.48-.12.2,0a2.36,2.36,0,0,0,.52-.21,1.41,1.41,0,0,0,.35-.23l.22-.19a3.79,3.79,0,0,0,.32-.38l.19-.27.16-.25.15-.28c0-.09.09-.18.13-.27s.14-.32.21-.48.13-.33.19-.5l.21-.51,0,.06a3.92,3.92,0,0,1,.16-.36l.15-.28a2.66,2.66,0,0,1,.29-.45,2.09,2.09,0,0,1,.2-.22,2.84,2.84,0,0,1,.25-.23l-.06,0L18,76.5a2.42,2.42,0,0,1,.36-.18l.25-.08a2.41,2.41,0,0,1,.37-.07h-.07a2.43,2.43,0,0,1,.38,0l.53,0a1.57,1.57,0,0,0,.55-.23l.26-.19a3.44,3.44,0,0,0,.41-.44,2.17,2.17,0,0,0,.23-.3c.07-.09.14-.2.2-.29s.13-.22.19-.33.13-.24.2-.36c.25-.47.5-1,.77-1.41s.55-.89.83-1.34a5.77,5.77,0,0,0,.4-.68A1.33,1.33,0,0,0,24,70c0-.14,0-.27,0-.4a4.54,4.54,0,0,0-.09-.51,3.42,3.42,0,0,0-.29-.75,2.65,2.65,0,0,0-.46-.65,2.91,2.91,0,0,0-.37-.33c-.07,0-.14-.11-.21-.15a4,4,0,0,0-.34-.23,6.14,6.14,0,0,0-.62-.34c-.24-.12-.48-.23-.73-.33a3.63,3.63,0,0,0-.66-.21L19.8,66l-.38,0c-.46,0-.92,0-1.37,0h-.68a3.54,3.54,0,0,1-.65,0l-.41-.09-.52-.12h-.23Zm.14.48h0Zm-.13.08,0,0,0,0Zm-3.7,15.08Zm0,0h0Z" style="fill:#ba9a31"/><path d="M22.83,52.77a.91.91,0,0,0-.16.11l-.33.28a4.51,4.51,0,0,0-.54.7,3.64,3.64,0,0,0-.33.69,5.06,5.06,0,0,0-.27.94c0,.15,0,.31-.06.46l0,.34a6.77,6.77,0,0,0,0,.78c0,.13,0,.27,0,.4s0,.26,0,.39.1.5.15.75.13.48.2.73a5.78,5.78,0,0,0,.25.65,3.57,3.57,0,0,0,.58.87,3.83,3.83,0,0,0,.48.41l.31.22c.2.14.4.26.61.38s.44.24.67.35l.26.11a.76.76,0,0,0,.26.06h.18l.16,0,.14-.06.14-.1a1,1,0,0,0,.2-.22,1.87,1.87,0,0,0,.17-.31l.06-.14a3.37,3.37,0,0,0,.1-.34,1.64,1.64,0,0,0,.05-.32,5.89,5.89,0,0,0,0-1.11c0-.14,0-.27,0-.4s0-.29,0-.43a7.93,7.93,0,0,0-.14-.85,9.35,9.35,0,0,0-.62-1.92c-.12-.3-.25-.61-.4-.91s-.16-.32-.24-.47a2.23,2.23,0,0,0-.29-.44,2.09,2.09,0,0,0-.2-.22,3.85,3.85,0,0,0-.3-.27.31.31,0,0,0-.14-.07c-.06-.09-.11-.18-.18-.27s-.29-.38-.45-.57a.32.32,0,0,0,0-.09.26.26,0,0,0-.22-.13.25.25,0,0,0-.12,0Zm2.32,9.14Z" style="fill:#ba9a31"/><path d="M9.25,53.89l-.15,0a1.91,1.91,0,0,0-.45.13,2.09,2.09,0,0,0-.74.51,3.07,3.07,0,0,0-.28.35,4,4,0,0,0-.27.55,3,3,0,0,0-.14.57,3.26,3.26,0,0,0,0,.7,4.11,4.11,0,0,0,.17,1,3.26,3.26,0,0,0,.15.44c.13.35.28.69.42,1l.1.26a3.9,3.9,0,0,1,.18.67v0h0v0h0a1.61,1.61,0,0,1,0,.31,2.34,2.34,0,0,1,0,.38.13.13,0,0,1,0-.06,4.22,4.22,0,0,1-.22.77c-.05.14-.1.27-.16.4l0-.06c-.1.24-.22.48-.34.71s-.25.49-.37.72l-.32.61a7.8,7.8,0,0,0-.35.71,4.7,4.7,0,0,0-.17.45,3.16,3.16,0,0,0-.17.81,2,2,0,0,0,.06.73.92.92,0,0,0,.11.29,1.38,1.38,0,0,0,.23.36l.22.21.3.19a1.83,1.83,0,0,0,.64.16,1.53,1.53,0,0,0,.37,0l.15,0a1.21,1.21,0,0,0,.32-.11,2.53,2.53,0,0,0,.75-.46,3.45,3.45,0,0,0,.54-.54c.09-.13.18-.25.26-.38a3.75,3.75,0,0,0,.24-.44c.08-.14.14-.29.21-.43l.14-.33c.1-.25.2-.49.29-.75s.18-.49.27-.74c.18-.51.33-1,.49-1.55s.27-1,.39-1.5c.06-.26.11-.53.15-.79s0-.26.05-.39l0-.34a3.53,3.53,0,0,0,0-.46,4.32,4.32,0,0,0-.11-.88,3,3,0,0,0-.21-.6,3.36,3.36,0,0,0-.26-.5l-.27-.41c-.08-.1-.16-.19-.23-.29l0,0h0s0,0,0,0h0L11,55.55l-.2-.3c-.14-.23-.28-.47-.41-.71v0l0-.07a.24.24,0,0,0,0-.19.29.29,0,0,0-.12-.15L10.12,54a1.67,1.67,0,0,0-.3-.08l-.27,0h-.1l-.07,0a.17.17,0,0,0-.11,0Zm.73.61h0Zm-1.84.55h0Zm-.43,1.08h0Zm4.09,3.21v.06c0,.19-.06.39-.1.58s-.11.53-.17.79-.16.61-.24.91c.14-.85.32-1.62.51-2.34ZM8.92,66.82h0Zm-.44.29-.12.06h0l.12,0Zm-.88.2h0Z" style="fill:#ba9a31"/><path d="M21.74,33.91a.26.26,0,0,0-.18.31c0,.07,0,.15.05.23l-.17,0a1.89,1.89,0,0,0-.36.16l-.19.14-.26.26a3.06,3.06,0,0,0-.21.29,2.34,2.34,0,0,0-.15.27,3.84,3.84,0,0,0-.14.36,4.36,4.36,0,0,0-.17.78q0,.34-.06.69a6.78,6.78,0,0,0,0,.78,3.5,3.5,0,0,0,.15.73c.08.24.18.47.27.7a3.43,3.43,0,0,1,.18.7v0h0a2.29,2.29,0,0,1,0,.25c0,.12,0,.25,0,.37,0,.27,0,.53,0,.79,0,.49-.1,1-.13,1.45,0,.12,0,.24,0,.36a2.22,2.22,0,0,0,0,.45.74.74,0,0,0,.25.54l.08.06a.37.37,0,0,0,.18,0h.13a.54.54,0,0,0,.25-.06,1,1,0,0,0,.24-.14l.12-.1.16-.18.19-.28.09-.18a4.45,4.45,0,0,0,.33-.78,10.61,10.61,0,0,0,.35-1.48,12.47,12.47,0,0,0,.15-1.37,6.4,6.4,0,0,0-.08-1.38c-.07-.49-.18-1-.26-1.44s-.22-1.2-.32-1.8c0-.22-.07-.44-.11-.66a.28.28,0,0,0,.07-.17.29.29,0,0,0-.07-.18l-.06,0a2.05,2.05,0,0,0-.07-.34.25.25,0,0,0-.24-.18Zm.62,7.1s0,0,0,0,0,0,0,0Zm-.93,2.88v0Zm-.48.25a.3.3,0,0,0,.12,0h0l-.07,0h0l0,0Z" style="fill:#ba9a31"/><path d="M17.25,0h-.43l-.28,0h-.13a.45.45,0,0,0-.23.1.26.26,0,0,0-.1.35.28.28,0,0,0,.23.13.16.16,0,0,0,.12,0,6.51,6.51,0,0,1,.8-.07h.15l.55,0,.11,0,.11,0a1.66,1.66,0,0,1,.29.1,2.29,2.29,0,0,1,.27.14l.13.14a1.18,1.18,0,0,1,.11.19c-.1,0-.2-.09-.3-.12A4.08,4.08,0,0,0,17.09.74a4.31,4.31,0,0,0-.94.11.14.14,0,0,0,0-.06.23.23,0,0,0-.11-.28.28.28,0,0,0-.13,0,.25.25,0,0,0-.22.13,2.78,2.78,0,0,0-.18.48,1.7,1.7,0,0,0-.06.31.62.62,0,0,0,0,.19,1.18,1.18,0,0,0,0,.34.85.85,0,0,0,.07.25l.06.11.1.14.09.09.15.11a1.79,1.79,0,0,0,.24.12,2.85,2.85,0,0,0,.5.13l.26,0,.13,0,.62,0h.2a2.83,2.83,0,0,0,.41,0,1.77,1.77,0,0,0,.95-.49l.08-.09a1.3,1.3,0,0,0,.17-.22A1.46,1.46,0,0,0,19.56,2a.4.4,0,0,0,0-.15,1.18,1.18,0,0,0,0-.33,2.81,2.81,0,0,0-.08-.31,2,2,0,0,0-.24-.49,1.34,1.34,0,0,0-.68-.49L18.34.1,18,0a4.43,4.43,0,0,0-.63,0Zm-.79.56h0Zm1.72,1.88h0Z" style="fill:#ba9a31"/><path d="M16.49.62a.25.25,0,0,0,.15.23.24.24,0,0,0,.22.13L17.4.92h.23L18,1l.16,0,.36.08a4.54,4.54,0,0,0,.53.12.2.2,0,0,0,.17-.08.25.25,0,0,0,.08-.17h0a.27.27,0,0,0-.12-.21A.56.56,0,0,0,19,.64L18.9.59,18.46.51h-.08c-.12,0-.25,0-.39-.06a2.19,2.19,0,0,0-.36,0c-.3,0-.6,0-.89,0h0a.25.25,0,0,0-.24.25ZM19,1.14h0Z" style="fill:#ba9a31"/><path d="M13,10.31a.51.51,0,0,0,.5.5.5.5,0,0,0,.5-.5.5.5,0,0,0-.5-.5.5.5,0,0,0-.5.5Z" style="fill:#ba9a31"/><path d="M20.78,10.28a.5.5,0,0,0,.5.5.5.5,0,0,0,.5-.5.5.5,0,0,0-.5-.5.51.51,0,0,0-.5.5Z" style="fill:#ba9a31"/></g></g></svg>