<svg xmlns="http://www.w3.org/2000/svg" xmlns:xlink="http://www.w3.org/1999/xlink" viewBox="0 0 194 194"><defs><pattern id="Petals_Three_Color" data-name="Petals Three Color" width="96" height="72" patternUnits="userSpaceOnUse" viewBox="0 0 96 72"><rect width="96" height="72" style="fill:none"/><path d="M96,72c1.91-2.89.41-3.91,0-3.91S94.09,69.11,96,72Z" style="fill:#009d60"/><path d="M0,72c1.91-2.89.41-3.91,0-3.91S-1.91,69.11,0,72Z" style="fill:#009d60"/><path d="M48,72c1.91-2.89.41-3.91,0-3.91S46.09,69.11,48,72Z" style="fill:#009d60"/><path d="M96,72c1.91-2.89.41-3.91,0-3.91S94.09,69.11,96,72Z" style="fill:#009d60"/><path d="M1,72.59c3.46.2,3.59-1.61,3.38-2S2.57,69.49,1,72.59Z" style="fill:#66bc93"/><path d="M49,72.59c3.45.2,3.58-1.61,3.38-2S50.57,69.49,49,72.59Z" style="fill:#66bc93"/><path d="M47,72.59c-1.53-3.1-3.17-2.32-3.38-2S43.51,72.79,47,72.59Z" style="fill:#66bc93"/><path d="M95,72.59c-1.53-3.1-3.17-2.32-3.38-2S91.51,72.79,95,72.59Z" style="fill:#66bc93"/><path d="M0,72c1.91-2.89.41-3.91,0-3.91S-1.91,69.11,0,72Z" style="fill:#009d60"/><path d="M96,48c1.91-2.89.41-3.91,0-3.91S94.09,45.11,96,48Z" style="fill:#009d60"/><path d="M96,72c1.91-2.89.41-3.91,0-3.91S94.09,69.11,96,72Z" style="fill:#009d60"/><path d="M96,24c1.91-2.89.41-3.91,0-3.91S94.09,21.11,96,24Z" style="fill:#009d60"/><path d="M0,48c1.91-2.89.41-3.91,0-3.91S-1.91,45.11,0,48Z" style="fill:#009d60"/><path d="M48,48c1.91-2.89.41-3.91,0-3.91S46.09,45.11,48,48Z" style="fill:#009d60"/><path d="M48,72c1.91-2.89.41-3.91,0-3.91S46.09,69.11,48,72Z" style="fill:#009d60"/><path d="M0,72c1.91-2.89.41-3.91,0-3.91S-1.91,69.11,0,72Z" style="fill:#009d60"/><path d="M24,60c1.91-2.89.41-3.91,0-3.91S22.09,57.11,24,60Z" style="fill:#009d60"/><path d="M96,48c1.91-2.89.41-3.91,0-3.91S94.09,45.11,96,48Z" style="fill:#009d60"/><path d="M96,72c1.91-2.89.41-3.91,0-3.91S94.09,69.11,96,72Z" style="fill:#009d60"/><path d="M72,60c1.91-2.89.41-3.91,0-3.91S70.09,57.11,72,60Z" style="fill:#009d60"/><path d="M0,24c1.91-2.89.41-3.91,0-3.91S-1.91,21.11,0,24Z" style="fill:#009d60"/><path d="M48,24c1.91-2.89.41-3.91,0-3.91S46.09,21.11,48,24Z" style="fill:#009d60"/><path d="M24,36c1.91-2.89.41-3.91,0-3.91S22.09,33.11,24,36Z" style="fill:#009d60"/><path d="M96,24c1.91-2.89.41-3.91,0-3.91S94.09,21.11,96,24Z" style="fill:#009d60"/><path d="M72,36c1.91-2.89.41-3.91,0-3.91S70.09,33.11,72,36Z" style="fill:#009d60"/><path d="M0,0C1.91-2.89.41-3.91,0-3.91S-1.91-2.89,0,0Z" style="fill:#009d60"/><path d="M48,0c1.91-2.89.41-3.91,0-3.91S46.09-2.89,48,0Z" style="fill:#009d60"/><path d="M24,12c1.91-2.89.41-3.91,0-3.91S22.09,9.11,24,12Z" style="fill:#009d60"/><path d="M96,0c1.91-2.89.41-3.91,0-3.91S94.09-2.89,96,0Z" style="fill:#009d60"/><path d="M72,12c1.91-2.89.41-3.91,0-3.91S70.09,9.11,72,12Z" style="fill:#009d60"/><path d="M1,48.59c3.46.2,3.59-1.61,3.38-2S2.57,45.49,1,48.59Z" style="fill:#66bc93"/><path d="M49,48.59c3.45.2,3.58-1.61,3.38-2S50.57,45.49,49,48.59Z" style="fill:#66bc93"/><path d="M49,72.59c3.45.2,3.58-1.61,3.38-2S50.57,69.49,49,72.59Z" style="fill:#66bc93"/><path d="M1,72.59c3.46.2,3.59-1.61,3.38-2S2.57,69.49,1,72.59Z" style="fill:#66bc93"/><path d="M25,60.59c3.46.2,3.58-1.61,3.38-2S26.57,57.49,25,60.59Z" style="fill:#66bc93"/><path d="M73,60.59c3.45.2,3.58-1.61,3.38-2S74.57,57.49,73,60.59Z" style="fill:#66bc93"/><path d="M1,24.59c3.46.2,3.59-1.61,3.38-2S2.57,21.49,1,24.59Z" style="fill:#66bc93"/><path d="M49,24.59c3.45.2,3.58-1.61,3.38-2S50.57,21.49,49,24.59Z" style="fill:#66bc93"/><path d="M25,36.59c3.46.2,3.58-1.61,3.38-2S26.57,33.49,25,36.59Z" style="fill:#66bc93"/><path d="M73,36.59c3.45.2,3.58-1.61,3.38-2S74.57,33.49,73,36.59Z" style="fill:#66bc93"/><path d="M1,.59C4.5.79,4.63-1,4.42-1.38S2.57-2.51,1,.59Z" style="fill:#66bc93"/><path d="M49,.59c3.45.2,3.58-1.61,3.38-2S50.57-2.51,49,.59Z" style="fill:#66bc93"/><path d="M25,12.59c3.46.2,3.58-1.61,3.38-2S26.57,9.49,25,12.59Z" style="fill:#66bc93"/><path d="M73,12.59c3.45.2,3.58-1.61,3.38-2S74.57,9.49,73,12.59Z" style="fill:#66bc93"/><path d="M47,48.59c-1.53-3.1-3.17-2.32-3.38-2S43.51,48.79,47,48.59Z" style="fill:#66bc93"/><path d="M47,72.59c-1.53-3.1-3.17-2.32-3.38-2S43.51,72.79,47,72.59Z" style="fill:#66bc93"/><path d="M23,60.59c-1.53-3.1-3.17-2.32-3.38-2S19.51,60.79,23,60.59Z" style="fill:#66bc93"/><path d="M95,48.59c-1.53-3.1-3.17-2.32-3.38-2S91.51,48.79,95,48.59Z" style="fill:#66bc93"/><path d="M95,72.59c-1.53-3.1-3.17-2.32-3.38-2S91.51,72.79,95,72.59Z" style="fill:#66bc93"/><path d="M71,60.59c-1.53-3.1-3.17-2.32-3.38-2S67.51,60.79,71,60.59Z" style="fill:#66bc93"/><path d="M47,24.59c-1.53-3.1-3.17-2.32-3.38-2S43.51,24.79,47,24.59Z" style="fill:#66bc93"/><path d="M23,36.59c-1.53-3.1-3.17-2.32-3.38-2S19.51,36.79,23,36.59Z" style="fill:#66bc93"/><path d="M95,24.59c-1.53-3.1-3.17-2.32-3.38-2S91.51,24.79,95,24.59Z" style="fill:#66bc93"/><path d="M71,36.59c-1.53-3.1-3.17-2.32-3.38-2S67.51,36.79,71,36.59Z" style="fill:#66bc93"/><path d="M47,.59c-1.53-3.1-3.17-2.32-3.38-2S43.51.79,47,.59Z" style="fill:#66bc93"/><path d="M23,12.59c-1.53-3.1-3.17-2.32-3.38-2S19.51,12.79,23,12.59Z" style="fill:#66bc93"/><path d="M95,.59c-1.53-3.1-3.17-2.32-3.38-2S91.51.79,95,.59Z" style="fill:#66bc93"/><path d="M71,12.59c-1.53-3.1-3.17-2.32-3.38-2S67.51,12.79,71,12.59Z" style="fill:#66bc93"/><path d="M0,48c1.91-2.89.41-3.91,0-3.91S-1.91,45.11,0,48Z" style="fill:#009d60"/><path d="M0,72c1.91-2.89.41-3.91,0-3.91S-1.91,69.11,0,72Z" style="fill:#009d60"/><path d="M0,24c1.91-2.89.41-3.91,0-3.91S-1.91,21.11,0,24Z" style="fill:#009d60"/><path d="M49,.59c3.45.2,3.58-1.61,3.38-2S50.57-2.51,49,.59Z" style="fill:#66bc93"/><path d="M1,.59C4.5.79,4.63-1,4.42-1.38S2.57-2.51,1,.59Z" style="fill:#66bc93"/><path d="M47,.59c-1.53-3.1-3.17-2.32-3.38-2S43.51.79,47,.59Z" style="fill:#66bc93"/><path d="M95,.59c-1.53-3.1-3.17-2.32-3.38-2S91.51.79,95,.59Z" style="fill:#66bc93"/></pattern></defs><title>grassTexture</title><g id="Layer_2" data-name="Layer 2"><g id="Layer_1-2" data-name="Layer 1"><rect width="194" height="194" style="fill:url(#Petals_Three_Color)"/></g></g></svg>