<svg xmlns="http://www.w3.org/2000/svg" viewBox="0 0 42.54 110.88"><title>Monkey</title><g id="Layer_2" data-name="Layer 2"><g id="Draw_Layer" data-name="Draw Layer"><path d="M19.6,60.36a4.45,4.45,0,0,0-2.11,1.11,8.68,8.68,0,0,0-1.07,1.26c-.33.46-.63.94-.94,1.41a30.51,30.51,0,0,0-1.76,3c-.37.74-.67,1.53-1,2.3a11.13,11.13,0,0,0-.5,1.51,21,21,0,0,0-.48,2.61,12.28,12.28,0,0,0-.13,1.7,26.34,26.34,0,0,0,1.53,7.55c.38,1.11.81,2.2,1.22,3.3a32.7,32.7,0,0,1,1,3.32c.25,1,.46,2,.62,3a32,32,0,0,1,.12,6.19c-.06.37-.13.73-.21,1.1a8.49,8.49,0,0,1-.4,1.3,13.07,13.07,0,0,1-1,1.79,9.11,9.11,0,0,1-.89.87,13.78,13.78,0,0,1-1.78,1,10.75,10.75,0,0,1-1.11.31,5,5,0,0,1-.55,0l-.54-.16a8.5,8.5,0,0,1-1-.57,11.21,11.21,0,0,1-1.42-1.42,12.21,12.21,0,0,1-.89-1.53,11.3,11.3,0,0,1-.5-1.72,7.87,7.87,0,0,1,0-1.19c0-.19.09-.39.15-.58s.27-.46.42-.68a9.16,9.16,0,0,1,.68-.71,8.07,8.07,0,0,0,.93-1l-.23.3a1.34,1.34,0,0,1,.11-.14,1.93,1.93,0,0,0,.51-.87,1.56,1.56,0,0,0-.1-1.38,2.8,2.8,0,0,0-1.63-1.25,5.62,5.62,0,0,0-1-.16A5.52,5.52,0,0,0,4.58,92a5.44,5.44,0,0,0-1.06.42,7,7,0,0,0-1,.67,7.81,7.81,0,0,0-1.42,1.61A6.64,6.64,0,0,0,.34,96.5a9,9,0,0,0-.32,2,9.16,9.16,0,0,0,.16,2.28,14.49,14.49,0,0,0,1.31,3.78A12.21,12.21,0,0,0,3.9,107.8a11,11,0,0,0,4.47,2.76,4.85,4.85,0,0,0,.92.19,9.87,9.87,0,0,0,1.43.13,9.06,9.06,0,0,0,1.49-.17,10.65,10.65,0,0,0,1.11-.29,14.11,14.11,0,0,0,3.62-1.81A11.43,11.43,0,0,0,19,106.82a12.25,12.25,0,0,0,1.63-2.34,19.39,19.39,0,0,0,1-2.33,15.31,15.31,0,0,0,1-4.27,37,37,0,0,0,.14-5.67,57.37,57.37,0,0,0-.53-6A38,38,0,0,0,21,80.88a42.22,42.22,0,0,1-1.18-4.55c0-.39-.05-.77-.06-1.16a6.23,6.23,0,0,1,0-.74,21.15,21.15,0,0,1,.87-3.14,25.59,25.59,0,0,1,1.44-2.62c.93-1.5,2.2-3.06,2-4.93l-.12-.93a3.62,3.62,0,0,0-.9-1.55,3.49,3.49,0,0,0-2.49-1,4.06,4.06,0,0,0-.92.11Z" style="fill:#ba9a31"/><path d="M23.77,22.41a11.75,11.75,0,0,0-1.77.23,11.8,11.8,0,0,0-2.75,1,11.07,11.07,0,0,0-2.1,1.42,11.65,11.65,0,0,0-1.5,1.39A33.18,33.18,0,0,0,13,29.87c-.74,1-1.44,2.09-2.1,3.18a41.67,41.67,0,0,0-3.56,7.48,18.2,18.2,0,0,0-.82,3.56,39.54,39.54,0,0,0-.43,4.35,35.32,35.32,0,0,0,.23,5.44,19.08,19.08,0,0,0,.76,4A12.17,12.17,0,0,0,9.5,62.1,7.71,7.71,0,0,0,12.26,64a16.46,16.46,0,0,0,3,1.12,21.36,21.36,0,0,0,2.38.36,6.18,6.18,0,0,0,1.36,0l.65-.08a4.12,4.12,0,0,0,.58.41,5.08,5.08,0,0,0,2.31.65A6.55,6.55,0,0,0,25.44,66a10.54,10.54,0,0,0,3.34-2,22.59,22.59,0,0,0,3-3.51,20.08,20.08,0,0,0,2-3.19,39.53,39.53,0,0,0,1.78-4.44,25.52,25.52,0,0,0,1-4.81,24.2,24.2,0,0,0,.17-3.9,36.93,36.93,0,0,0-.28-4.07,27.63,27.63,0,0,0-.91-4.52c-.38-1.24-.84-2.45-1.24-3.67a24.87,24.87,0,0,0-1.72-4.05,14.9,14.9,0,0,0-1.42-2,10.35,10.35,0,0,0-.89-1,9.6,9.6,0,0,0-3.34-1.95,6.74,6.74,0,0,0-1.33-.3,10.55,10.55,0,0,0-1.67-.14Zm3.89,29.35c.21-.53.38-1.08.56-1.63A24.87,24.87,0,0,0,29,46.2L29,46c0,.42-.06.84-.1,1.25a27.5,27.5,0,0,1-1.36,4.95c-.2.45-.41.89-.64,1.32.27-.56.5-1.16.72-1.72Zm-2.44,4.29c.21-.23.41-.5.61-.77l-.39.56c-.13.16-.26.32-.4.47v-.08a1.49,1.49,0,0,0,.17-.18Zm-10-.63a3.33,3.33,0,0,0,.32.24l.28.36-.2-.12c-.1-.1-.2-.2-.29-.31a1.63,1.63,0,0,1-.11-.17Z" style="fill:#ba9a31"/><path d="M9.48,24.23a2.59,2.59,0,0,0-.73.34,3.37,3.37,0,0,0-.61.46,3.18,3.18,0,0,0-.76,1.32,4.16,4.16,0,0,0-.1,2.24,6.8,6.8,0,0,0,1,2.29,8.56,8.56,0,0,0,1.48,1.8,4,4,0,0,0,1.25.78,1.29,1.29,0,0,0,.62.15h.22a.43.43,0,0,0,.4,0,.36.36,0,0,0,.17-.23,2.69,2.69,0,0,0,.48-.63,3.48,3.48,0,0,0,.37-1,13.47,13.47,0,0,0,.24-2.28A13.67,13.67,0,0,0,13.25,27a4.38,4.38,0,0,0-.56-1.34,3,3,0,0,0-2.55-1.51,2.48,2.48,0,0,0-.66.08Z" style="fill:#ba9a31"/><path d="M35.75,28.8l-.17,0a1.5,1.5,0,0,0-.64.38,2,2,0,0,0-.48.51,7.13,7.13,0,0,0-.29.69c0,.11-.07.22-.1.33-.11.45-.24.9-.38,1.35s-.28.85-.41,1.28c-.07.26-.14.51-.2.78a4.44,4.44,0,0,0-.1.62l-.08.29-.15.2a.4.4,0,1,0,.69.4l.12-.15.19-.15a3.3,3.3,0,0,1,.32-.18,3.52,3.52,0,0,0,.69-.51,8.4,8.4,0,0,0,1.08-1.07,9.26,9.26,0,0,0,1-1.51A5.56,5.56,0,0,0,37.37,31a1.83,1.83,0,0,0,0-1l0-.15a1.75,1.75,0,0,0-.46-.73,1.14,1.14,0,0,0-1.1-.29ZM33,34.88v0Z" style="fill:#ba9a31"/><path d="M35.81,28.13a4.65,4.65,0,0,0-1.3,1.24c-.35.42-.72.83-1.07,1.25A5,5,0,0,0,32,33.32l0,0a.4.4,0,0,0-.14.55.42.42,0,0,0,.55.14l.08-.06a4.52,4.52,0,0,0,3.17-.69,9.85,9.85,0,0,0,1.61-1.19,3.82,3.82,0,0,0,1.3-1.87,1.9,1.9,0,0,0-.47-1.8,1.84,1.84,0,0,0-1.29-.53,2,2,0,0,0-1,.24Z" style="fill:#ba9a31"/><path d="M35,30.32a2.28,2.28,0,0,0-.65.92c0,.14-.07.28-.11.42a1.23,1.23,0,0,0,0,.76l.06.18a1,1,0,0,0,.12.25.41.41,0,0,0,.18.46.4.4,0,0,0,.51-.09.55.55,0,0,0,.22,0,.27.27,0,0,1,.12,0,1.35,1.35,0,0,0,.69-.36l.26-.3a2.16,2.16,0,0,0,.24-.31,2.34,2.34,0,0,0,.22-.77,1.06,1.06,0,0,0,0-.61,1.18,1.18,0,0,0-.52-.68,1.21,1.21,0,0,0-.59-.16,1,1,0,0,0-.79.34Z" style="fill:#ba9a31"/><path d="M2,42.69a3.23,3.23,0,0,0-1,2.37c0,.38.09.75.15,1.13s.12.63.18,1a13.78,13.78,0,0,0,.53,2,11.52,11.52,0,0,0,.7,1.61,9.08,9.08,0,0,0,.94,1.38,5.13,5.13,0,0,0,1.09,1l.34.23a4,4,0,0,0,.78.31,1.64,1.64,0,0,0,.88,0,1.77,1.77,0,0,0,1-.76c1.13-1.57.86-3.69.56-5.47-.11-.68-.27-1.35-.41-2-.06-.31-.12-.62-.19-.93a3.25,3.25,0,0,0-1.65-2.32,3.23,3.23,0,0,0-3.88.5Z" style="fill:#ba9a31"/><path d="M37.58,44.73a2.23,2.23,0,0,0-1.35,1,3.76,3.76,0,0,0-.24.57c-.21.45-.44.91-.65,1.37-.35.77-.7,1.55-1,2.34a10.71,10.71,0,0,0-.69,2c-.09.43-.15.86-.2,1.3a3.27,3.27,0,0,0,0,.44,1,1,0,0,0,.07.31l-.06.09a.39.39,0,0,0,.15.54.4.4,0,0,0,.54-.14h0l0,0,0,0h.08a2.09,2.09,0,0,0,.59-.13,3.33,3.33,0,0,0,.58-.26,4.92,4.92,0,0,0,.45-.28,8.54,8.54,0,0,0,2-2A12.31,12.31,0,0,0,39,50.07c.33-.63.6-1.28.87-2l.1-.2a2.24,2.24,0,0,0,.21-1.66,4.15,4.15,0,0,0-.23-.56,2.11,2.11,0,0,0-1.81-1,2,2,0,0,0-.55.07Z" style="fill:#ba9a31"/><path d="M18.86,3.29A14.43,14.43,0,0,0,15.41,8.8a12.48,12.48,0,0,0-.67,3.14,11.81,11.81,0,0,0-.05,2.59,16.09,16.09,0,0,0,.56,3.22,10.94,10.94,0,0,0,.61,1.58,12.18,12.18,0,0,0,1.55,4.78,9.3,9.3,0,0,0,8,4.52c2.82-.07,5.34-1.74,7.35-3.6.52-.48,1-1,1.48-1.5a18.33,18.33,0,0,0,1.53-2A10.47,10.47,0,0,0,37,18.7a16.43,16.43,0,0,0,.46-3.12c0-.6,0-1.23,0-1.83a20.48,20.48,0,0,0-.66-4.55c-.16-.59-.33-1.16-.54-1.74s-.48-1.19-.74-1.78q-.13-.3-.3-.6a.36.36,0,0,1,0,.09L35,5.44a5.78,5.78,0,0,1-.49.5,6.68,6.68,0,0,1-.94.72A4.14,4.14,0,0,1,33,7a3,3,0,0,1-.73.26,2.2,2.2,0,0,1-.44.05h-.35a3.34,3.34,0,0,1-.62-.1,4.81,4.81,0,0,1-1.22-.61,6.41,6.41,0,0,1-.52-.39,5.69,5.69,0,0,1-.56-.54,8.12,8.12,0,0,1-.69-1.07c-.1-.18-.19-.37-.28-.55a2.82,2.82,0,0,0-.21-.38,2,2,0,0,0-.1.21c-.1.19-.21.38-.32.56A5.12,5.12,0,0,1,26,5.58a4.09,4.09,0,0,1-.61.49,2.18,2.18,0,0,1-1,.42,2.41,2.41,0,0,1-.38,0h-.13l-.27,0-.54-.14A6.26,6.26,0,0,1,22,5.87a5.84,5.84,0,0,1-1.11-.81,5.36,5.36,0,0,1-1-1.11l-.18-.33c-.05-.11-.09-.22-.13-.33s-.05-.2-.06-.31a1.13,1.13,0,0,1,0-.18.2.2,0,0,1,0-.11c-.23.19-.46.4-.68.6Zm4.93,11.8v0h0Z" style="fill:#ba9a31"/><path d="M17.15,2.52a6.53,6.53,0,0,0-1.87.36,4.48,4.48,0,0,0-.8.37,3.81,3.81,0,0,0-.89.71,4.19,4.19,0,0,0-.72,1,6.6,6.6,0,0,0-.82,3.25,5.08,5.08,0,0,0,.29,1.59,4.14,4.14,0,0,0,1,1.53,3,3,0,0,0,1.28.78,1.84,1.84,0,0,0,1,0,.4.4,0,0,0,.26-.05.36.36,0,0,0,.2-.32,2.13,2.13,0,0,0,.3-.63c.06-.33.12-.64.16-1s.05-.42.07-.64c0,0,0-.09,0-.13A10.71,10.71,0,0,1,17,7.67c.07-.22.16-.43.24-.65a2.66,2.66,0,0,0,1.06.6A2.59,2.59,0,0,0,20.85,7a2.62,2.62,0,0,0,.71-1.34,5.2,5.2,0,0,1-.69-.55,5.36,5.36,0,0,1-1-1.11l-.18-.33c-.05-.11-.09-.22-.13-.33s-.05-.2-.06-.31a1.13,1.13,0,0,1,0-.18.21.21,0,0,1,.07-.17A4.85,4.85,0,0,0,19,2.55a2.33,2.33,0,0,0-.64.07,5.67,5.67,0,0,0-1-.11Zm.05,4.66,0,.09,0-.09Z" style="fill:#ba9a31"/><path d="M37.9,3.55a4.32,4.32,0,0,0-2.72,1.34.24.24,0,0,1,0,.28L35,5.44a5.78,5.78,0,0,1-.49.5l-.19.17a4.9,4.9,0,0,0-.5,2.69c0,.25.06.5.1.75a4,4,0,0,0-.23.34,6.54,6.54,0,0,0-.44,1,5.5,5.5,0,0,0-.37,1.6,4,4,0,0,0,1.38,3.34,4.56,4.56,0,0,0,2,1.11,4.68,4.68,0,0,0,2.35-.05,4.63,4.63,0,0,0,2.6-2.08,4,4,0,0,0,.56-1.32A7.88,7.88,0,0,0,42,12c0-.19,0-.37,0-.55a17.09,17.09,0,0,0,.53-2.94,5.62,5.62,0,0,0-.16-1.29,5.47,5.47,0,0,0-.7-1.72,4.15,4.15,0,0,0-3.46-2ZM37,9.67h0Z" style="fill:#ba9a31"/><path d="M15.06,3.11a3.12,3.12,0,0,0-1.58.43A4.74,4.74,0,0,0,11.64,5.2a7.16,7.16,0,0,0-1,4.15c0,.14,0,.28,0,.42a2.67,2.67,0,0,0,0,.4,20.48,20.48,0,0,0,.25,2.58,10,10,0,0,0,.2,1.09,2,2,0,0,0,.11.35,4.66,4.66,0,0,0,.44,1A3.65,3.65,0,0,0,13,16.46a3.32,3.32,0,0,0,2.61.35,3.38,3.38,0,0,0,2.49-3.27h0a7.42,7.42,0,0,0-.5-2.2,9.66,9.66,0,0,1-.26-1.16c0-.33-.06-.67-.07-1s0-.43,0-.65l.45-.26a2.37,2.37,0,0,0,1.08-2.65A3.36,3.36,0,0,0,18,4.23,1.15,1.15,0,0,0,17.8,4l-.58-.45a4.87,4.87,0,0,0-1-.39,2.5,2.5,0,0,0-.71-.11,2.09,2.09,0,0,0-.43,0Z" style="fill:#ba9a31"/><path d="M26,0h-.11a12.22,12.22,0,0,0-2.15.34,9.47,9.47,0,0,0-2.57,1.1,11,11,0,0,0-1.47,1.07h0a.27.27,0,0,0-.2.25,1.13,1.13,0,0,0,0,.18c0,.11,0,.2.06.31s.08.22.13.33l.18.33a5.36,5.36,0,0,0,1,1.11A5.84,5.84,0,0,0,22,5.87a6.26,6.26,0,0,0,1.14.44l.54.14.27,0h.13a2.41,2.41,0,0,0,.38,0,2.18,2.18,0,0,0,1-.42A4.09,4.09,0,0,0,26,5.58a5.12,5.12,0,0,0,.88-1.13c.11-.18.22-.37.32-.56a2,2,0,0,1,.1-.21,2.82,2.82,0,0,1,.21.38c.09.18.18.37.28.55a8.12,8.12,0,0,0,.69,1.07,5.69,5.69,0,0,0,.56.54,6.41,6.41,0,0,0,.52.39,4.81,4.81,0,0,0,1.22.61,3.34,3.34,0,0,0,.62.1h.35a2.2,2.2,0,0,0,.44-.05A3,3,0,0,0,33,7a4.14,4.14,0,0,0,.62-.35,6.68,6.68,0,0,0,.94-.72,5.78,5.78,0,0,0,.49-.5l.19-.27a.24.24,0,0,0-.09-.34.22.22,0,0,0-.13,0,6.58,6.58,0,0,0-1-1.46A9.67,9.67,0,0,0,29.5.45,10.27,10.27,0,0,0,26.85,0l-.34,0c-.18,0-.36,0-.53,0Zm1.26,3.53ZM24.4,6h0Z" style="fill:#edda8f"/><path d="M23.27,2.23a.5.5,0,0,0,.5.5.5.5,0,0,0,.5-.5.5.5,0,0,0-.5-.5.51.51,0,0,0-.5.5Z" style="fill:#1f1c12"/><path d="M30.2,2.77a.5.5,0,0,0,.5.5.5.5,0,0,0,.5-.5.51.51,0,0,0-.5-.5.5.5,0,0,0-.5.5Z" style="fill:#1f1c12"/></g></g></svg>