<svg xmlns="http://www.w3.org/2000/svg" xmlns:xlink="http://www.w3.org/1999/xlink" viewBox="0 0 235 758.67"><defs><pattern id="Bamboo_Color" data-name="Bamboo Color" width="138.75" height="132.24" patternUnits="userSpaceOnUse" viewBox="0 0 138.75 132.24"><rect width="138.75" height="132.24" style="fill:none"/><polygon points="173.62 244.49 138.35 244.49 137.8 243.48 136.32 244.24 131.38 244.81 127.7 243.99 126.6 243.46 126.01 244.49 103.94 244.49 103.94 110.27 173.62 110.27 173.62 244.49" style="fill:#c36721"/><path d="M126.53,111.68a17.86,17.86,0,0,0-.56,2.66c-.23,3,1.75,3.5,1.75,3.5l-1.08,94.92s7.33,4,11.33-.67l-.77-92.75s1-.06,1.77-3.25a3.64,3.64,0,0,0-1.77-4.25S133.7,114.84,126.53,111.68Z" style="fill:#dcbe8c"/><path d="M109.55,117.34l-.16,19.82s7.33,4,11.33-.66V118.34Z" style="fill:#dcbe8c"/><path d="M128.47,117.84s6.5,1.75,8.5,0l-.5,2.75.25,90.5.25,1.75s-5,2.75-9.25.25c3.5.5,7.25,0,7.5-2.25V186.09s-.75.75-3.75-.5l4-1.25v-44.5s-6,1.25-8.25-1c2.25.25,7.5.5,8-.75l-.5-14.75s-2.75.5-4.5-.5c0,0,4,.25,4.75-1.25l-.75-1S130.22,120.09,128.47,117.84Z" style="fill:#9f8555"/><path d="M113.8,132.58c0,.32-.13.58-.29.58s-.29-.26-.29-.58.13-.59.29-.59S113.8,132.25,113.8,132.58Z" style="fill:#af925d"/><polygon points="104.25 244.49 68.97 244.49 68.43 243.48 66.95 244.24 62.01 244.81 58.33 243.99 57.23 243.46 56.64 244.49 34.57 244.49 34.57 110.27 104.25 110.27 104.25 244.49" style="fill:#c36721"/><path d="M71.87,127.84s-.47,2.5-.52,3.5,1.77,4,1.77,4l.17,27.42s6.08,4.25,10.08-.42l.48-28a24.37,24.37,0,0,0,2-3.25c.45-.89-1-3.5-1-3.5A15,15,0,0,1,71.87,127.84Z" style="fill:#dcbe8c"/><path d="M57.16,111.68a16.6,16.6,0,0,0-.56,2.66c-.23,3,1.75,3.5,1.75,3.5l-1.09,94.92s7.34,4,11.34-.67l-.78-92.75s1-.06,1.78-3.25a3.64,3.64,0,0,0-1.78-4.25S64.32,114.84,57.16,111.68Z" style="fill:#dcbe8c"/><path d="M40.18,117.34,40,137.16s7.34,4,11.34-.66V118.34Z" style="fill:#dcbe8c"/><path d="M59.1,117.84s6.5,1.75,8.5,0l-.5,2.75.25,90.5.25,1.75s-5,2.75-9.25.25c3.5.5,7.25,0,7.5-2.25V186.09s-.75.75-3.75-.5l4-1.25v-44.5s-6,1.25-8.25-1c2.25.25,7.5.5,8-.75l-.5-14.75s-2.75.5-4.5-.5c0,0,4,.25,4.75-1.25l-.75-1S60.85,120.09,59.1,117.84Z" style="fill:#9f8555"/><path d="M101,148l-.27-27s.67.42,1.49-2.77c.77-3-.85-3.83-.85-3.83s-4.11,3.17-11.27,0c0,0-.46,2.6-.53,3.6-.23,3,1.75,3.5,1.75,3.5L91,148.23Z" style="fill:#dcbe8c"/><path d="M98.41,125.76a.88.88,0,1,1-.88-.88A.88.88,0,0,1,98.41,125.76Z" style="fill:#af925d"/><path d="M98,126.7a.88.88,0,1,1-.88-.88A.87.87,0,0,1,98,126.7Z" style="fill:#af925d"/><path d="M96.32,118.81c0,.32-.13.58-.29.58s-.29-.26-.29-.58.13-.59.29-.59S96.32,118.49,96.32,118.81Z" style="fill:#af925d"/><path d="M98.66,119.69c0,.32-.13.58-.29.58s-.29-.26-.29-.58.13-.59.29-.59S98.66,119.36,98.66,119.69Z" style="fill:#af925d"/><path d="M96.61,122.32c0,.32-.13.58-.29.58s-.29-.26-.29-.58.13-.59.29-.59S96.61,122,96.61,122.32Z" style="fill:#af925d"/><ellipse cx="97.2" cy="118.52" rx="0.29" ry="0.58" style="fill:#8f774c"/><path d="M98.56,125.21l.46-1.7s-5.21.2-7-2.05c0,0,6.5,1.75,8.5,0l-.5,2.75.06,24.33-1.06-1.29s-6,1.25-8.25-1c2.25.25,7.5.5,8-.75L99,127.76Z" style="fill:#9f8555"/><path d="M44.43,132.58c0,.32-.13.58-.29.58s-.3-.26-.3-.58.13-.59.3-.59S44.43,132.25,44.43,132.58Z" style="fill:#af925d"/><polygon points="34.87 244.49 -0.4 244.49 -0.94 243.48 -2.42 244.24 -7.36 244.81 -11.04 243.99 -12.14 243.46 -12.73 244.49 -34.8 244.49 -34.8 110.27 34.87 110.27 34.87 244.49" style="fill:#c36721"/><path d="M2.5,127.84s-.48,2.5-.53,3.5,1.78,4,1.78,4l.16,27.42S10,167,14,162.34l.47-28a23.91,23.91,0,0,0,2-3.25c.44-.89-1-3.5-1-3.5A15,15,0,0,1,2.5,127.84Z" style="fill:#dcbe8c"/><path d="M-12.22,111.68a17.86,17.86,0,0,0-.56,2.66c-.22,3,1.75,3.5,1.75,3.5l-1.08,94.92s7.33,4,11.33-.67l-.77-92.75s1-.06,1.77-3.25a3.63,3.63,0,0,0-1.77-4.25S-5,114.84-12.22,111.68Z" style="fill:#dcbe8c"/><path d="M31.62,148l-.27-27s.66.42,1.48-2.77c.78-3-.85-3.83-.85-3.83s-4.1,3.17-11.27,0c0,0-.45,2.6-.52,3.6-.23,3,1.75,3.5,1.75,3.5l-.31,26.77Z" style="fill:#dcbe8c"/><path d="M29,125.76a.88.88,0,1,1-.88-.88A.89.89,0,0,1,29,125.76Z" style="fill:#af925d"/><path d="M28.61,126.7a.88.88,0,1,1-.88-.88A.87.87,0,0,1,28.61,126.7Z" style="fill:#af925d"/><ellipse cx="26.66" cy="118.81" rx="0.29" ry="0.58" style="fill:#af925d"/><path d="M29.29,119.69c0,.32-.13.58-.29.58s-.3-.26-.3-.58.13-.59.3-.59S29.29,119.36,29.29,119.69Z" style="fill:#af925d"/><ellipse cx="26.95" cy="122.32" rx="0.29" ry="0.58" style="fill:#af925d"/><path d="M28.12,118.52c0,.32-.13.58-.29.58s-.3-.26-.3-.58.13-.59.3-.59S28.12,118.19,28.12,118.52Z" style="fill:#8f774c"/><path d="M29.19,125.21l.45-1.7s-5.2.2-6.95-2.05c0,0,6.5,1.75,8.5,0l-.5,2.75,0,24.33-1-1.29s-6,1.25-8.25-1c2.25.25,7.5.5,8-.75l.2-17.74Z" style="fill:#9f8555"/><polygon points="173.62 112.25 138.35 112.25 137.8 111.24 136.32 112 131.38 112.57 127.7 111.74 126.6 111.21 126.01 112.25 103.94 112.25 103.94 -21.97 173.62 -21.97 173.62 112.25" style="fill:#c36721"/><path d="M110.05,56.43s-1.78,1.42-1.83,2.42,1.77,4,1.77,4l-.6,74.31s7.33,4,11.33-.66V61.85s1.28-1,1.25-2c-.07-2.73-1.25-3.25-1.25-3.25S117.22,59.6,110.05,56.43Z" style="fill:#dcbe8c"/><path d="M109.28,5.93s-1.78,1.42-1.83,2.42,1.77,4,1.77,4l.17,42.42s7.33,4,11.33-.67L120,11.35a5.5,5.5,0,0,0,1.25-2C121.41,8.46,120,6.1,120,6.1S116.45,9.1,109.28,5.93Z" style="fill:#dcbe8c"/><path d="M119.17,11.45s-4.61,2.25-8.2.57a20.33,20.33,0,0,0,7.41,1l.23,7.18s-2.47.68-3.82.12a9,9,0,0,0,4.72.56Z" style="fill:#a38857"/><path d="M126.47,81.35a15,15,0,0,0-1,3.25c0,1,1.75,5.75,1.75,5.75L127.16,111s6.21,2.48,9.76.23l.55-19.89a14.94,14.94,0,0,1,1.75-5.25,4.61,4.61,0,0,0,0-4.75A14.89,14.89,0,0,1,126.47,81.35Z" style="fill:#dcbe8c"/><path d="M126.53-20.57A18.1,18.1,0,0,0,126-17.9c-.23,3,1.75,3.5,1.75,3.5l-1.08,94.92s7.33,4,11.33-.67L137.2-12.9s1-.06,1.77-3.25a3.64,3.64,0,0,0-1.77-4.25S133.7-17.4,126.53-20.57Z" style="fill:#dcbe8c"/><path d="M117.29,65.82a.88.88,0,1,1-.87-.87A.87.87,0,0,1,117.29,65.82Z" style="fill:#af925d"/><ellipse cx="114.66" cy="69.62" rx="0.29" ry="0.58" style="fill:#af925d"/><path d="M117.29,70.5c0,.32-.13.58-.29.58s-.29-.26-.29-.58.13-.59.29-.59S117.29,70.17,117.29,70.5Z" style="fill:#af925d"/><ellipse cx="114.96" cy="73.13" rx="0.29" ry="0.58" style="fill:#af925d"/><path d="M117.59,68.16c0,.32-.13.59-.3.59s-.29-.27-.29-.59.13-.58.29-.58S117.59,67.84,117.59,68.16Z" style="fill:#8f774c"/><ellipse cx="115.83" cy="69.33" rx="0.29" ry="0.58" style="fill:#af925d"/><path d="M117.85,84.6a.88.88,0,1,1-1.76,0,.88.88,0,0,1,1.76,0Z" style="fill:#af925d"/><path d="M114.1,91.85a.88.88,0,1,1-1.76,0,.88.88,0,0,1,1.76,0Z" style="fill:#af925d"/><path d="M117.6,95.35a.88.88,0,1,1-1.76,0,.88.88,0,0,1,1.76,0Z" style="fill:#af925d"/><path d="M136.93,87.68a.88.88,0,1,1-.88-.87A.87.87,0,0,1,136.93,87.68Z" style="fill:#af925d"/><path d="M117.6,100.1a.88.88,0,1,1-1.76,0,.88.88,0,0,1,1.76,0Z" style="fill:#af925d"/><path d="M117.6,99.22a.88.88,0,1,1-.88-.87A.87.87,0,0,1,117.6,99.22Z" style="fill:#8f774c"/><path d="M115.51,88.4c0,.32-.13.59-.29.59s-.29-.27-.29-.59.13-.58.29-.58S115.51,88.08,115.51,88.4Z" style="fill:#af925d"/><path d="M117.85,89.28c0,.32-.13.58-.29.58s-.3-.26-.3-.58.13-.59.3-.59S117.85,89,117.85,89.28Z" style="fill:#af925d"/><path d="M115.8,91.91c0,.32-.13.58-.29.58s-.29-.26-.29-.58.13-.59.29-.59S115.8,91.58,115.8,91.91Z" style="fill:#af925d"/><ellipse cx="116.39" cy="88.11" rx="0.29" ry="0.58" style="fill:#8f774c"/><ellipse cx="132.95" cy="87.67" rx="0.29" ry="0.58" style="fill:#af925d"/><path d="M135.18,88.85c0,.32-.13.59-.29.59s-.29-.27-.29-.59.13-.58.29-.58S135.18,88.53,135.18,88.85Z" style="fill:#af925d"/><ellipse cx="111.74" cy="126.21" rx="0.29" ry="0.58" style="fill:#af925d"/><path d="M110.87,125c0,.32-.14.58-.3.58s-.29-.26-.29-.58.13-.59.29-.59S110.87,124.72,110.87,125Z" style="fill:#8f774c"/><path d="M112.77,129.51c0,.32-.13.58-.3.58s-.29-.26-.29-.58.13-.59.29-.59S112.77,129.18,112.77,129.51Z" style="fill:#af925d"/><path d="M111.6,128.34c0,.32-.13.58-.29.58s-.3-.26-.3-.58.13-.59.3-.59S111.6,128,111.6,128.34Z" style="fill:#8f774c"/><path d="M118.55,23.43a.88.88,0,1,1-.87-.88A.87.87,0,0,1,118.55,23.43Z" style="fill:#af925d"/><ellipse cx="115.92" cy="27.22" rx="0.29" ry="0.58" style="fill:#8f774c"/><path d="M118.55,28.1c0,.32-.13.59-.29.59s-.29-.27-.29-.59.13-.58.29-.58S118.55,27.78,118.55,28.1Z" style="fill:#af925d"/><ellipse cx="132.21" cy="48.13" rx="0.29" ry="0.58" style="fill:#af925d"/><path d="M118.85,25.76c0,.33-.13.59-.29.59s-.3-.26-.3-.59.13-.58.3-.58S118.85,25.44,118.85,25.76Z" style="fill:#af925d"/><ellipse cx="116.86" cy="16.4" rx="0.29" ry="0.58" style="fill:#af925d"/><path d="M114.56,18.31c0,.32-.13.58-.29.58s-.29-.26-.29-.58.13-.59.29-.59S114.56,18,114.56,18.31Z" style="fill:#af925d"/><path d="M119.39,31.56c0,.32-.13.58-.29.58s-.29-.26-.29-.58.13-.59.29-.59S119.39,31.24,119.39,31.56Z" style="fill:#af925d"/><path d="M117.37,32.91c0,.32-.13.58-.29.58s-.29-.26-.29-.58.13-.59.29-.59S117.37,32.58,117.37,32.91Z" style="fill:#af925d"/><path d="M115.91,43.35c0,.33-.13.59-.29.59s-.29-.26-.29-.59.13-.58.29-.58S115.91,43,115.91,43.35Z" style="fill:#af925d"/><path d="M113.33,46.5c0,.32-.13.58-.29.58s-.29-.26-.29-.58.13-.59.29-.59S113.33,46.17,113.33,46.5Z" style="fill:#af925d"/><path d="M116.27,15.05c0,.32-.13.58-.29.58s-.29-.26-.29-.58.13-.59.29-.59S116.27,14.72,116.27,15.05Z" style="fill:#af925d"/><path d="M135.48,108.46a.88.88,0,1,1-.87-.88A.87.87,0,0,1,135.48,108.46Z" style="fill:#8f774c"/><ellipse cx="133.95" cy="104.36" rx="0.29" ry="0.58" style="fill:#af925d"/><ellipse cx="133.72" cy="34.77" rx="0.29" ry="0.58" style="fill:#af925d"/><path d="M132.72,29.6c0,.32-.13.59-.29.59s-.29-.27-.29-.59.13-.58.29-.58S132.72,29.28,132.72,29.6Z" style="fill:#af925d"/><path d="M135.1,59.6a.88.88,0,0,1-1.76,0,.88.88,0,1,1,1.76,0Z" style="fill:#af925d"/><path d="M136.47,35.6a.88.88,0,1,1-.87-.88A.87.87,0,0,1,136.47,35.6Z" style="fill:#af925d"/><path d="M132.92,12.07a.88.88,0,1,1-.88-.87A.88.88,0,0,1,132.92,12.07Z" style="fill:#af925d"/><ellipse cx="130.29" cy="15.87" rx="0.29" ry="0.58" style="fill:#af925d"/><path d="M132.92,16.75c0,.32-.13.58-.3.58s-.29-.26-.29-.58.13-.59.29-.59S132.92,16.42,132.92,16.75Z" style="fill:#af925d"/><path d="M133.21,14.41c0,.32-.13.59-.29.59s-.3-.27-.3-.59.14-.58.3-.58S133.21,14.09,133.21,14.41Z" style="fill:#af925d"/><ellipse cx="132.09" cy="6.02" rx="0.29" ry="0.58" style="fill:#8f774c"/><path d="M134.85,6.85a.88.88,0,1,1-1.76,0,.88.88,0,1,1,1.76,0Z" style="fill:#af925d"/><path d="M134.1,56a.88.88,0,1,1-.88-.87A.87.87,0,0,1,134.1,56Z" style="fill:#af925d"/><path d="M134.85,75.1a.88.88,0,1,1-1.76,0,.88.88,0,0,1,1.76,0Z" style="fill:#af925d"/><path d="M134.85,74.22a.88.88,0,1,1-.88-.87A.87.87,0,0,1,134.85,74.22Z" style="fill:#af925d"/><path d="M132.76,63.4c0,.32-.13.59-.29.59s-.29-.27-.29-.59.13-.58.29-.58S132.76,63.08,132.76,63.4Z" style="fill:#af925d"/><path d="M135.1,64.28c0,.32-.13.58-.29.58s-.3-.26-.3-.58.13-.59.3-.59S135.1,64,135.1,64.28Z" style="fill:#af925d"/><path d="M133.05,66.91c0,.32-.13.58-.29.58s-.29-.26-.29-.58.13-.59.29-.59S133.05,66.58,133.05,66.91Z" style="fill:#af925d"/><ellipse cx="133.64" cy="63.11" rx="0.29" ry="0.58" style="fill:#8f774c"/><path d="M112,79s4.09,1.46,6.43-.87l-.29-5.26s-2.48-.4-5.7-1a28.42,28.42,0,0,0,6.58-1.64l-.3-7.9s-5,.88-6.42-.58c2.33-.58,6.72.58,8.47-1.46l-1.46,19C119.4,79.18,117.72,83.35,112,79Z" style="fill:#af925d"/><path d="M118.47,79.1l-.25,36.25s-2.75,2-5.25.75c1.09.69,3.33,2.12,4.85,1.72a27.58,27.58,0,0,0,.9,5.28S120.22,81.35,118.47,79.1Z" style="fill:#9d8354"/><path d="M109.55-14.9l-.16,19.82s7.33,4,11.33-.67V-13.9Z" style="fill:#dcbe8c"/><path d="M110.22,3.92S117,7,120.72,4.25C120.72,6.5,116.47,8.42,110.22,3.92Z" style="fill:#af925d"/><path d="M110,53.6s8.25,2.5,10.75.5C118.72,57.35,116,56.6,110,53.6Z" style="fill:#998052"/><path d="M128.47-14.4s6.5,1.75,8.5,0l-.5,2.75.25,90.5L137,80.6s-5,2.75-9.25.25c3.5.5,7.25,0,7.5-2.25V53.85s-.75.75-3.75-.5l4-1.25V7.6s-6,1.25-8.25-1c2.25.25,7.5.5,8-.75l-.5-14.75s-2.75.5-4.5-.5c0,0,4,.25,4.75-1.25l-.75-1S130.22-12.15,128.47-14.4Z" style="fill:#9f8555"/><path d="M110.72,33.1s7.45,1.5,9.23-.75l0,21.5s-4.25,1.5-7-.75a46.8,46.8,0,0,0,6-.5l-.5-13.25s-4.25,1-4.75-1.5a6.35,6.35,0,0,0,4.75-.5l-.25-2.75S115.72,35.1,110.72,33.1Z" style="fill:#a38857"/><path d="M122.76,9.54s7.28,7.72,17.3,6.29c-1.07-5.67-8-12.17-18.29-9.17,7.38,0,10.33,4.94,12.38,6.11C131.92,12.84,123.82,7.83,122.76,9.54Z" style="fill:#558c2a"/><path d="M122.76,9.54c1.06-1.71,9.16,3.3,11.39,3.23-2.05-1.17-5-6.11-12.38-6.11l-1.87.63Z" style="fill:#7aa830"/><path d="M139.7,33.5s-9.08,5.49-18.36,1.44c2.55-5.18,10.94-9.6,20.08-3.95-7.11-2-11.28,2-13.56,2.58C130,34.23,139.13,31.56,139.7,33.5Z" style="fill:#7aa830"/><path d="M139.7,33.5c-.57-1.94-9.71.73-11.84.07C130.14,33,134.31,29,141.42,31l1.64,1.11Z" style="fill:#558c2a"/><path d="M143.49,35.81s-.09,10.61-8.4,16.39C132,47.32,132.65,37.85,142.25,33c-5.41,5-4.21,10.65-4.91,12.9C139,44.46,141.54,35.28,143.49,35.81Z" style="fill:#558c2a"/><path d="M143.49,35.81c-2-.53-4.47,8.65-6.15,10.12.7-2.25-.5-7.88,4.91-12.9l1.8-.81Z" style="fill:#7aa830"/><path d="M136.88,111s-2.9,2.26-9.72.06c3.32.48,7.39.53,8.52-1.37l.46-8.87s-5.92,2.5-8.59-.67c2.42,1,8.42,1.67,8.75-.91l-.5-8.75s-4.83.83-6.16-.34c1.75.17,6.33-.16,6.91-1.08Z" style="fill:#af925d"/><path d="M123,138.77s10.53-1.35,15.27-10.3c-5.22-2.47-14.54-.7-18.17,9.4,4.34-6,10.07-5.45,12.22-6.42C131,133.3,122.21,136.9,123,138.77Z" style="fill:#7aa830"/><path d="M123,138.77c-.75-1.87,8.06-5.47,9.32-7.32-2.15,1-7.88.45-12.22,6.42l-.59,1.89Z" style="fill:#558c2a"/><path d="M118.24,137.9s-6.87-8.09-4.34-17.89c5.51,1.68,11.21,9.27,7.09,19.19.82-7.34-3.77-10.81-4.7-13C116,128.43,120.06,137,118.24,137.9Z" style="fill:#558c2a"/><path d="M118.24,137.9c1.82-.87-2.27-9.47-1.95-11.68.93,2.17,5.52,5.64,4.7,13l-.83,1.79Z" style="fill:#7aa830"/><circle cx="134.12" cy="106.74" r="0.33" style="fill:#8f774c"/><path d="M133.6,107.7a.44.44,0,1,1-.44-.44A.44.44,0,0,1,133.6,107.7Z" style="fill:#8f774c"/><path d="M137.58,84.17s-3.6,10-13.35,12.68c-1.29-5.62,2.45-14.34,13.1-15.71-6.77,3-7.5,8.66-8.91,10.54C130.5,90.85,135.92,83,137.58,84.17Z" style="fill:#7aa830"/><path d="M137.58,84.17c-1.66-1.14-7.08,6.68-9.16,7.51,1.41-1.88,2.14-7.59,8.91-10.54l2-.17Z" style="fill:#558c2a"/><path d="M140.64,83.58s4,9.83-1.49,18.35c-4.71-3.33-7.74-12.32-.72-20.45-3.08,6.71.19,11.45.4,13.8C139.82,93.28,138.64,83.83,140.64,83.58Z" style="fill:#7aa830"/><path d="M140.64,83.58c-2,.25-.82,9.7-1.81,11.7-.21-2.35-3.48-7.09-.4-13.8l1.45-1.12Z" style="fill:#558c2a"/><path d="M141.72,82.62c.5-2,9.73.39,11.84-.35-2.3-.5-6.6-4.32-13.64-2.1l-1.6,1.17Z" style="fill:#7aa830"/><path d="M119.54,9.66a.88.88,0,1,1-.88-.87A.87.87,0,0,1,119.54,9.66Z" style="fill:#8f774c"/><path d="M113.85,2.24c0,.33-.14.59-.3.59s-.29-.26-.29-.59.13-.58.29-.58S113.85,1.92,113.85,2.24Z" style="fill:#af925d"/><path d="M112.9,1.34c0,.33-.13.59-.29.59s-.29-.26-.29-.59.13-.58.29-.58S112.9,1,112.9,1.34Z" style="fill:#af925d"/><path d="M113.8.33c0,.33-.13.59-.29.59s-.29-.26-.29-.59.13-.58.29-.58S113.8,0,113.8.33Z" style="fill:#af925d"/><path d="M122,58.64s6.29,8.55,16.41,8.36c-.37-5.76-6.44-13.06-17-11.34,7.33.9,9.65,6.17,11.54,7.58C130.68,63,123.25,57.07,122,58.64Z" style="fill:#558c2a"/><path d="M122,58.64c1.26-1.57,8.69,4.39,10.91,4.6-1.89-1.41-4.21-6.68-11.54-7.58l-1.94.41Z" style="fill:#7aa830"/><path d="M118,59s-5.06,9.32-.59,18.4c5.06-2.78,9.08-11.37,3-20.23,2.3,7-1.48,11.35-2,13.66C117.74,68.74,120,59.49,118,59Z" style="fill:#7aa830"/><path d="M118,59c2,.48-.28,9.73.48,11.83.47-2.31,4.25-6.65,2-13.66l-1.19-1.59Z" style="fill:#558c2a"/><path d="M120.46,54.09S124.2,44.16,134,41.61c1.2,5.65-2.67,14.31-13.34,15.52,6.81-2.85,7.62-8.55,9.06-10.41C127.64,47.52,122.1,55.26,120.46,54.09Z" style="fill:#558c2a"/><path d="M120.46,54.09c1.64,1.17,7.18-6.57,9.26-7.37-1.44,1.86-2.25,7.56-9.06,10.41l-2,.13Z" style="fill:#7aa830"/><polygon points="104.25 112.25 68.97 112.25 68.43 111.24 66.95 112 62.01 112.57 58.33 111.74 57.23 111.21 56.64 112.25 34.57 112.25 34.57 -21.97 104.25 -21.97 104.25 112.25" style="fill:#c36721"/><path d="M40.68,56.43s-1.78,1.42-1.83,2.42,1.77,4,1.77,4L40,137.16s7.34,4,11.34-.66V61.85s1.28-1,1.25-2c-.08-2.73-1.25-3.25-1.25-3.25S47.85,59.6,40.68,56.43Z" style="fill:#dcbe8c"/><path d="M39.91,5.93s-1.79,1.42-1.84,2.42,1.78,4,1.78,4L40,54.77s7.34,4,11.34-.67l-.78-42.75a5.36,5.36,0,0,0,1.25-2C52,8.46,50.57,6.1,50.57,6.1S47.07,9.1,39.91,5.93Z" style="fill:#dcbe8c"/><path d="M49.8,11.45s-4.61,2.25-8.2.57A20.33,20.33,0,0,0,49,13l.23,7.18s-2.48.68-3.82.12a8.91,8.91,0,0,0,4.71.56Z" style="fill:#a38857"/><path d="M73.68,31.68s-2.53-.08-2.58.92,2.52,5.5,2.52,5.5L73,127.35s7.34,4,11.34-.67l-1-88.58s1.72-1.75,1.75-2.75a14,14,0,0,0-.25-3.75S77.35,34.85,73.68,31.68Z" style="fill:#dcbe8c"/><path d="M71.87-4.4s-.47,2.5-.52,3.5,1.77,4,1.77,4l.17,27.42s6.08,4.25,10.08-.42l.48-28a25.15,25.15,0,0,0,2-3.25c.45-.89-1-3.5-1-3.5A15,15,0,0,1,71.87-4.4Z" style="fill:#dcbe8c"/><path d="M57.1,81.35a15,15,0,0,0-1,3.25c-.05,1,1.75,5.75,1.75,5.75L57.79,111s6.21,2.48,9.76.23l.55-19.89a14.94,14.94,0,0,1,1.75-5.25,4.61,4.61,0,0,0,0-4.75A14.9,14.9,0,0,1,57.1,81.35Z" style="fill:#dcbe8c"/><path d="M87.1,15.6a9.25,9.25,0,0,0-.25,2.5c.5,4.75,3,5.75,3,5.75l.5,89s4.75,5,10.5.75l-.75-88.75s.33-.63,1.75-3-.25-5.5-.25-5.5S94.26,18.77,87.1,15.6Z" style="fill:#dcbe8c"/><path d="M57.16-20.57a16.82,16.82,0,0,0-.56,2.67c-.23,3,1.75,3.5,1.75,3.5L57.26,80.52s7.34,4,11.34-.67L67.82-12.9s1-.06,1.78-3.25a3.64,3.64,0,0,0-1.78-4.25S64.32-17.4,57.16-20.57Z" style="fill:#dcbe8c"/><path d="M47.92,65.82A.88.88,0,1,1,47,65,.87.87,0,0,1,47.92,65.82Z" style="fill:#af925d"/><ellipse cx="45.29" cy="69.62" rx="0.29" ry="0.58" style="fill:#af925d"/><path d="M47.92,70.5c0,.32-.13.58-.29.58s-.29-.26-.29-.58.13-.59.29-.59S47.92,70.17,47.92,70.5Z" style="fill:#af925d"/><ellipse cx="45.58" cy="73.13" rx="0.29" ry="0.58" style="fill:#af925d"/><path d="M48.21,68.16c0,.32-.13.59-.29.59s-.29-.27-.29-.59.13-.58.29-.58S48.21,67.84,48.21,68.16Z" style="fill:#8f774c"/><ellipse cx="46.46" cy="69.33" rx="0.29" ry="0.58" style="fill:#af925d"/><path d="M48.47,84.6a.88.88,0,1,1-.87-.88A.87.87,0,0,1,48.47,84.6Z" style="fill:#af925d"/><path d="M44.72,91.85a.88.88,0,1,1-.87-.88A.87.87,0,0,1,44.72,91.85Z" style="fill:#af925d"/><path d="M48.22,95.35a.88.88,0,1,1-.87-.88A.87.87,0,0,1,48.22,95.35Z" style="fill:#af925d"/><path d="M67.56,87.68a.88.88,0,1,1-.88-.87A.88.88,0,0,1,67.56,87.68Z" style="fill:#af925d"/><path d="M48.22,100.1a.88.88,0,1,1-.87-.88A.87.87,0,0,1,48.22,100.1Z" style="fill:#af925d"/><path d="M48.22,99.22a.88.88,0,1,1-.87-.87A.87.87,0,0,1,48.22,99.22Z" style="fill:#8f774c"/><ellipse cx="45.84" cy="88.4" rx="0.29" ry="0.58" style="fill:#af925d"/><path d="M48.47,89.28c0,.32-.13.58-.29.58s-.29-.26-.29-.58.13-.59.29-.59S48.47,89,48.47,89.28Z" style="fill:#af925d"/><ellipse cx="46.14" cy="91.91" rx="0.29" ry="0.58" style="fill:#af925d"/><path d="M47.31,88.11c0,.32-.14.58-.3.58s-.29-.26-.29-.58.13-.59.29-.59S47.31,87.79,47.31,88.11Z" style="fill:#8f774c"/><path d="M63.86,87.67c0,.32-.13.59-.29.59s-.29-.27-.29-.59.13-.58.29-.58S63.86,87.35,63.86,87.67Z" style="fill:#af925d"/><path d="M77.32,105.22c0,.32-.13.58-.29.58s-.3-.26-.3-.58.14-.59.3-.59S77.32,104.9,77.32,105.22Z" style="fill:#af925d"/><path d="M78.2,101.42c0,.32-.14.58-.3.58s-.29-.26-.29-.58.13-.59.29-.59S78.2,101.1,78.2,101.42Z" style="fill:#af925d"/><path d="M65.81,88.85c0,.32-.13.59-.3.59s-.29-.27-.29-.59.13-.58.29-.58S65.81,88.53,65.81,88.85Z" style="fill:#af925d"/><path d="M80.46,111.75c0,.32-.13.58-.29.58s-.29-.26-.29-.58.13-.59.29-.59S80.46,111.42,80.46,111.75Z" style="fill:#af925d"/><ellipse cx="78.13" cy="114.38" rx="0.29" ry="0.58" style="fill:#af925d"/><ellipse cx="79" cy="110.58" rx="0.29" ry="0.58" style="fill:#8f774c"/><ellipse cx="80.9" cy="115.05" rx="0.29" ry="0.58" style="fill:#af925d"/><path d="M79.15,117.68c0,.32-.13.58-.29.58s-.29-.26-.29-.58.13-.59.29-.59S79.15,117.35,79.15,117.68Z" style="fill:#8f774c"/><path d="M80,113.88c0,.32-.13.58-.29.58s-.3-.26-.3-.58.13-.59.3-.59S80,113.55,80,113.88Z" style="fill:#8f774c"/><ellipse cx="42.37" cy="126.21" rx="0.29" ry="0.58" style="fill:#af925d"/><path d="M41.49,125c0,.32-.13.58-.29.58s-.29-.26-.29-.58.13-.59.29-.59S41.49,124.72,41.49,125Z" style="fill:#8f774c"/><path d="M43.39,129.51c0,.32-.13.58-.29.58s-.29-.26-.29-.58.13-.59.29-.59S43.39,129.18,43.39,129.51Z" style="fill:#af925d"/><path d="M42.22,128.34c0,.32-.13.58-.29.58s-.29-.26-.29-.58.13-.59.29-.59S42.22,128,42.22,128.34Z" style="fill:#8f774c"/><path d="M76.78,77.38a.88.88,0,1,1-.87-.87A.87.87,0,0,1,76.78,77.38Z" style="fill:#af925d"/><path d="M80.28,80.88a.88.88,0,1,1-.87-.87A.87.87,0,0,1,80.28,80.88Z" style="fill:#8f774c"/><path d="M80.28,85.63a.88.88,0,1,1-.87-.87A.87.87,0,0,1,80.28,85.63Z" style="fill:#af925d"/><path d="M77.68,87.79a.88.88,0,1,1-.88-.88A.88.88,0,0,1,77.68,87.79Z" style="fill:#8f774c"/><path d="M80.24,90.72a.88.88,0,1,1-.88-.88A.88.88,0,0,1,80.24,90.72Z" style="fill:#af925d"/><path d="M80.24,94a.88.88,0,1,1-.88-.88A.87.87,0,0,1,80.24,94Z" style="fill:#af925d"/><ellipse cx="77.9" cy="73.93" rx="0.29" ry="0.58" style="fill:#af925d"/><path d="M80.53,74.81c0,.32-.13.59-.29.59s-.29-.27-.29-.59.13-.58.29-.58S80.53,74.49,80.53,74.81Z" style="fill:#8f774c"/><ellipse cx="78.2" cy="77.44" rx="0.29" ry="0.58" style="fill:#af925d"/><path d="M79.36,73.64c0,.32-.13.59-.29.59s-.29-.27-.29-.59.13-.58.29-.58S79.36,73.32,79.36,73.64Z" style="fill:#af925d"/><path d="M49.18,23.43a.88.88,0,1,1-.88-.88A.87.87,0,0,1,49.18,23.43Z" style="fill:#af925d"/><ellipse cx="46.55" cy="27.22" rx="0.29" ry="0.58" style="fill:#8f774c"/><path d="M49.18,28.1c0,.32-.13.59-.29.59s-.29-.27-.29-.59.13-.58.29-.58S49.18,27.78,49.18,28.1Z" style="fill:#af925d"/><ellipse cx="62.83" cy="48.13" rx="0.29" ry="0.58" style="fill:#af925d"/><path d="M49.47,25.76c0,.33-.13.59-.29.59s-.29-.26-.29-.59.13-.58.29-.58S49.47,25.44,49.47,25.76Z" style="fill:#af925d"/><path d="M95.49,41.85a.88.88,0,1,1-.88-.88A.88.88,0,0,1,95.49,41.85Z" style="fill:#af925d"/><path d="M80.82,21.52a.88.88,0,1,1-.87-.87A.87.87,0,0,1,80.82,21.52Z" style="fill:#8f774c"/><path d="M76.83,17.64a.88.88,0,1,1-.88-.88A.88.88,0,0,1,76.83,17.64Z" style="fill:#af925d"/><ellipse cx="92.86" cy="45.65" rx="0.29" ry="0.58" style="fill:#af925d"/><path d="M95.49,46.53c0,.32-.13.58-.3.58s-.29-.26-.29-.58.13-.59.29-.59S95.49,46.2,95.49,46.53Z" style="fill:#af925d"/><path d="M95.78,44.19c0,.32-.13.58-.29.58s-.29-.26-.29-.58.13-.59.29-.59S95.78,43.87,95.78,44.19Z" style="fill:#af925d"/><path d="M97.32,47a.88.88,0,0,1-1.76,0,.88.88,0,1,1,1.76,0Z" style="fill:#8f774c"/><path d="M95,50.78c0,.32-.13.59-.29.59s-.29-.27-.29-.59.13-.58.29-.58S95,50.46,95,50.78Z" style="fill:#af925d"/><path d="M97.32,51.66c0,.32-.13.58-.29.58s-.3-.26-.3-.58.14-.59.3-.59S97.32,51.33,97.32,51.66Z" style="fill:#af925d"/><path d="M78.66,12.35c0,.32-.14.59-.3.59s-.29-.27-.29-.59.13-.58.29-.58S78.66,12,78.66,12.35Z" style="fill:#8f774c"/><path d="M79.66,14.13c0,.32-.14.58-.3.58s-.29-.26-.29-.58.13-.59.29-.59S79.66,13.8,79.66,14.13Z" style="fill:#af925d"/><path d="M76.66,15.24c0,.32-.13.58-.3.58s-.29-.26-.29-.58.13-.59.29-.59S76.66,14.92,76.66,15.24Z" style="fill:#af925d"/><path d="M80.21,19.57c0,.32-.13.59-.29.59s-.29-.27-.29-.59.13-.58.29-.58S80.21,19.25,80.21,19.57Z" style="fill:#af925d"/><path d="M79.43,23.35c0,.32-.13.58-.29.58s-.29-.26-.29-.58.13-.59.29-.59S79.43,23,79.43,23.35Z" style="fill:#af925d"/><path d="M76.66,26.57c0,.32-.13.58-.3.58s-.29-.26-.29-.58.13-.59.29-.59S76.66,26.25,76.66,26.57Z" style="fill:#af925d"/><ellipse cx="47.48" cy="16.4" rx="0.29" ry="0.58" style="fill:#af925d"/><path d="M45.19,18.31c0,.32-.13.58-.29.58s-.29-.26-.29-.58.13-.59.29-.59S45.19,18,45.19,18.31Z" style="fill:#af925d"/><path d="M50,31.56c0,.32-.13.58-.29.58s-.29-.26-.29-.58.13-.59.29-.59S50,31.24,50,31.56Z" style="fill:#af925d"/><path d="M48,32.91c0,.32-.13.58-.29.58s-.29-.26-.29-.58.13-.59.29-.59S48,32.58,48,32.91Z" style="fill:#af925d"/><path d="M46.54,43.35c0,.33-.13.59-.29.59s-.29-.26-.29-.59.13-.58.29-.58S46.54,43,46.54,43.35Z" style="fill:#af925d"/><path d="M44,46.5c0,.32-.13.58-.3.58s-.29-.26-.29-.58.13-.59.29-.59S44,46.17,44,46.5Z" style="fill:#af925d"/><path d="M46.9,15.05c0,.32-.13.58-.29.58s-.3-.26-.3-.58.14-.59.3-.59S46.9,14.72,46.9,15.05Z" style="fill:#af925d"/><path d="M81,13.23c0,.32-.13.58-.29.58s-.29-.26-.29-.58.13-.59.29-.59S81,12.9,81,13.23Z" style="fill:#8f774c"/><path d="M97.61,49.32c0,.32-.13.58-.29.58s-.29-.26-.29-.58.13-.59.29-.59S97.61,49,97.61,49.32Z" style="fill:#af925d"/><path d="M94,57.61a.88.88,0,1,1-.88-.88A.87.87,0,0,1,94,57.61Z" style="fill:#8f774c"/><path d="M91.68,61.41c0,.32-.13.58-.29.58s-.29-.26-.29-.58.13-.59.29-.59S91.68,61.08,91.68,61.41Z" style="fill:#af925d"/><ellipse cx="93.73" cy="62.28" rx="0.29" ry="0.58" style="fill:#8f774c"/><path d="M94.31,60c0,.32-.13.58-.29.58s-.29-.26-.29-.58.13-.59.29-.59S94.31,59.62,94.31,60Z" style="fill:#af925d"/><path d="M66.11,108.46a.88.88,0,1,1-.88-.88A.87.87,0,0,1,66.11,108.46Z" style="fill:#8f774c"/><ellipse cx="64.58" cy="104.36" rx="0.29" ry="0.58" style="fill:#af925d"/><ellipse cx="64.35" cy="34.77" rx="0.29" ry="0.58" style="fill:#af925d"/><path d="M63.35,29.6c0,.32-.13.59-.29.59s-.3-.27-.3-.59.13-.58.3-.58S63.35,29.28,63.35,29.6Z" style="fill:#af925d"/><path d="M65.72,59.6a.88.88,0,1,1-.87-.88A.87.87,0,0,1,65.72,59.6Z" style="fill:#af925d"/><path d="M67.1,35.6a.88.88,0,1,1-.88-.88A.87.87,0,0,1,67.1,35.6Z" style="fill:#af925d"/><path d="M63.54,12.07a.88.88,0,1,1-.87-.87A.87.87,0,0,1,63.54,12.07Z" style="fill:#af925d"/><ellipse cx="60.91" cy="15.87" rx="0.29" ry="0.58" style="fill:#af925d"/><path d="M63.54,16.75c0,.32-.13.58-.29.58s-.29-.26-.29-.58.13-.59.29-.59S63.54,16.42,63.54,16.75Z" style="fill:#af925d"/><path d="M63.84,14.41c0,.32-.13.59-.3.59s-.29-.27-.29-.59.13-.58.29-.58S63.84,14.09,63.84,14.41Z" style="fill:#af925d"/><ellipse cx="62.72" cy="6.02" rx="0.29" ry="0.58" style="fill:#8f774c"/><path d="M65.47,6.85A.88.88,0,1,1,64.6,6,.87.87,0,0,1,65.47,6.85Z" style="fill:#af925d"/><path d="M64.72,56a.88.88,0,1,1-.87-.87A.87.87,0,0,1,64.72,56Z" style="fill:#af925d"/><path d="M65.47,75.1a.88.88,0,1,1-.87-.88A.87.87,0,0,1,65.47,75.1Z" style="fill:#af925d"/><path d="M65.47,74.22a.88.88,0,1,1-.87-.87A.87.87,0,0,1,65.47,74.22Z" style="fill:#af925d"/><ellipse cx="63.09" cy="63.4" rx="0.29" ry="0.58" style="fill:#af925d"/><path d="M65.72,64.28c0,.32-.13.58-.29.58s-.29-.26-.29-.58.13-.59.29-.59S65.72,64,65.72,64.28Z" style="fill:#af925d"/><ellipse cx="63.39" cy="66.91" rx="0.29" ry="0.58" style="fill:#af925d"/><path d="M64.56,63.11c0,.32-.14.58-.3.58s-.29-.26-.29-.58.13-.59.29-.59S64.56,62.79,64.56,63.11Z" style="fill:#8f774c"/><path d="M42.66,79s4.09,1.46,6.43-.87l-.29-5.26s-2.49-.4-5.7-1a28.27,28.27,0,0,0,6.57-1.64l-.29-7.9s-5,.88-6.43-.58c2.34-.58,6.72.58,8.48-1.46L50,79.27C50,79.18,48.35,83.35,42.66,79Z" style="fill:#af925d"/><path d="M49.1,79.1l-.25,36.25s-2.75,2-5.25.75c1.08.69,3.32,2.12,4.85,1.72a27.58,27.58,0,0,0,.9,5.28S50.85,81.35,49.1,79.1Z" style="fill:#9d8354"/><path d="M40.18-14.9,40,4.92s7.34,4,11.34-.67V-13.9Z" style="fill:#dcbe8c"/><path d="M40.85,3.92S47.6,7,51.35,4.25C51.35,6.5,47.1,8.42,40.85,3.92Z" style="fill:#af925d"/><path d="M40.6,53.6s8.25,2.5,10.75.5C49.35,57.35,46.6,56.6,40.6,53.6Z" style="fill:#998052"/><path d="M59.1-14.4s6.5,1.75,8.5,0l-.5,2.75.25,90.5.25,1.75s-5,2.75-9.25.25c3.5.5,7.25,0,7.5-2.25V53.85s-.75.75-3.75-.5l4-1.25V7.6s-6,1.25-8.25-1c2.25.25,7.5.5,8-.75L65.35-8.9s-2.75.5-4.5-.5c0,0,4,.25,4.75-1.25l-.75-1S60.85-12.15,59.1-14.4Z" style="fill:#9f8555"/><path d="M41.35,33.1s7.45,1.5,9.22-.75l0,21.5s-4.25,1.5-7-.75a46.8,46.8,0,0,0,6-.5l-.5-13.25s-4.25,1-4.75-1.5a6.35,6.35,0,0,0,4.75-.5l-.25-2.75S46.35,35.1,41.35,33.1Z" style="fill:#a38857"/><path d="M53.38,9.54s7.28,7.72,17.31,6.29c-1.07-5.67-8-12.17-18.29-9.17,7.38,0,10.33,4.94,12.38,6.11C62.54,12.84,54.45,7.83,53.38,9.54Z" style="fill:#558c2a"/><path d="M53.38,9.54c1.07-1.71,9.16,3.3,11.4,3.23-2.05-1.17-5-6.11-12.38-6.11l-1.88.63Z" style="fill:#7aa830"/><path d="M70.33,33.5S61.25,39,52,34.94c2.54-5.18,10.94-9.6,20.08-3.95-7.12-2-11.28,2-13.57,2.58C60.62,34.23,69.76,31.56,70.33,33.5Z" style="fill:#7aa830"/><path d="M70.33,33.5c-.57-1.94-9.71.73-11.85.07C60.77,33,64.93,29,72.05,31l1.63,1.11Z" style="fill:#558c2a"/><path d="M74.11,35.81S74,46.42,65.72,52.2C62.64,47.32,63.28,37.85,72.87,33c-5.4,5-4.2,10.65-4.91,12.9C69.65,44.46,72.17,35.28,74.11,35.81Z" style="fill:#558c2a"/><path d="M74.11,35.81c-1.94-.53-4.46,8.65-6.15,10.12.71-2.25-.49-7.88,4.91-12.9l1.81-.81Z" style="fill:#7aa830"/><path d="M75.7,34.15s7.36,7.64,5.46,17.59C75.55,50.4,69.38,43.18,72.87,33c-.35,7.37,4.45,10.55,5.51,12.66C78.56,43.46,73.94,35.13,75.7,34.15Z" style="fill:#7aa830"/><path d="M75.7,34.15c-1.76,1,2.86,9.31,2.68,11.54C77.32,43.58,72.52,40.4,72.87,33l.73-1.84Z" style="fill:#558c2a"/><path d="M103.74,22.26S114,19.43,117.39,9.9c-5.51-1.7-14.49,1.36-16.65,11.88,3.45-6.52,9.19-6.82,11.18-8.08C110.94,15.7,102.73,20.52,103.74,22.26Z" style="fill:#7aa830"/><path d="M103.74,22.26c-1-1.74,7.2-6.56,8.18-8.56-2,1.26-7.73,1.56-11.18,8.08l-.32,2Z" style="fill:#558c2a"/><path d="M103.72,25.25s8.89,5.8,18.3,2.07c-2.36-5.27-10.6-10-19.93-4.64,7.18-1.73,11.2,2.39,13.47,3C113.4,26.31,104.36,23.34,103.72,25.25Z" style="fill:#558c2a"/><path d="M103.72,25.25c.64-1.91,9.68,1.06,11.84.47-2.27-.65-6.29-4.77-13.47-3l-1.67,1.06Z" style="fill:#7aa830"/><path d="M101.47,27.21S103,37.72,112,42.31c2.39-5.26.46-14.55-9.7-18,6,4.24,5.62,10,6.62,12.12C107.07,35.18,103.33,26.43,101.47,27.21Z" style="fill:#7aa830"/><path d="M101.47,27.21c1.86-.78,5.6,8,7.47,9.2-1-2.14-.58-7.88-6.62-12.12l-1.9-.55Z" style="fill:#558c2a"/><path d="M79.36,36.63l2.2.37-1.1,27.48s-4,3.67-6.23,1.47a8.58,8.58,0,0,0,8.43.73V36.27S81.93,35.17,79.36,36.63Z" style="fill:#af925d"/><path d="M83,67.78l1.32,58.9a7.7,7.7,0,0,1-10.48-.05c3.3,1.1,9.16-1.47,9.16-1.47l-1.1-18.54s-6.23,2.2-7.33-.37a7.36,7.36,0,0,0,7.33-1.46l.37-5.87s-4.4-.73-6.23-1.83c2.93.74,6.59-.73,6.59-.73L82.3,69.25s-7,2.19-8.8-.37C77.17,69.61,83,67.78,83,67.78Z" style="fill:#af925d"/><path d="M91.09,113.21a10.58,10.58,0,0,0,8.91.89l-.34-60.55s-3.07,1.77-4.91.67a10.63,10.63,0,0,0,3.67,2.2l.73,26.38s-7.33,2.57-8.79,0C93.65,86.47,99,84.38,99,84.38v28.71A16.27,16.27,0,0,1,91.09,113.21Z" style="fill:#998052"/><path d="M100.1,24.85S92.92,26,90.36,23.08c1.1,4.76,5.49,3.66,8.06,2.93l.36,6.59s-4.76,1.47-6.59.74c0,0,4.39,2.2,5.86.73l.73,8.79S100.83,26.32,100.1,24.85Z" style="fill:#af925d"/><path d="M83.07,1.35l.3,28.75c-1.49,3-8.86,1-9.5-1.16,11,4.07,8.42-2.26,8.42-2.26a6.21,6.21,0,0,1-4.76-1c1.1.74,4.77-.36,4.77-.36V16.35c-1.47,1.1-3.67-.6-3.67-.6,1.1.37,3.67-.73,3.67-.73l.21-5.78c-1.14-.31-4.35,1.56-6.55-1,2.57,1.1,6.7-.19,6.7-.19L82.4,2.69c-3.66,1.55-8.66.22-8.66.22C76.65,3.35,82.07,2.46,83.07,1.35Z" style="fill:#af925d"/><path d="M67.51,111s-2.9,2.26-9.72.06c3.32.48,7.38.53,8.52-1.37l.45-8.87s-5.91,2.5-8.58-.67c2.42,1,8.42,1.67,8.75-.91l-.5-8.75s-4.83.83-6.17-.34c1.75.17,6.34-.16,6.92-1.08Z" style="fill:#af925d"/><path d="M97.67,111.41a.88.88,0,1,1-.87-.87A.87.87,0,0,1,97.67,111.41Z" style="fill:#af925d"/><path d="M98.62,110.54a.88.88,0,1,1-.88-.88A.87.87,0,0,1,98.62,110.54Z" style="fill:#8f774c"/><ellipse cx="97.02" cy="106.92" rx="0.29" ry="0.58" style="fill:#af925d"/><path d="M98,104.58c0,.33-.14.59-.3.59s-.29-.26-.29-.59.13-.58.29-.58S98,104.26,98,104.58Z" style="fill:#af925d"/><path d="M101,15.72l-.27-27s.67.43,1.49-2.76c.77-3-.85-3.83-.85-3.83s-4.11,3.17-11.27,0c0,0-.46,2.6-.53,3.6-.23,3,1.75,3.5,1.75,3.5L91,16Z" style="fill:#dcbe8c"/><path d="M98.41-6.48a.87.87,0,0,1-.88.87.87.87,0,0,1-.87-.87.87.87,0,0,1,.87-.88A.87.87,0,0,1,98.41-6.48Z" style="fill:#af925d"/><path d="M98-5.55a.87.87,0,0,1-.88.88.87.87,0,0,1-.87-.88.87.87,0,0,1,.87-.87A.87.87,0,0,1,98-5.55Z" style="fill:#af925d"/><path d="M96.32-13.43c0,.32-.13.58-.29.58s-.29-.26-.29-.58S95.87-14,96-14,96.32-13.76,96.32-13.43Z" style="fill:#af925d"/><path d="M98.66-12.56c0,.33-.13.59-.29.59s-.29-.26-.29-.59.13-.58.29-.58S98.66-12.88,98.66-12.56Z" style="fill:#af925d"/><path d="M96.61-9.93c0,.33-.13.59-.29.59S96-9.6,96-9.93s.13-.58.29-.58S96.61-10.25,96.61-9.93Z" style="fill:#af925d"/><path d="M97.49-13.73c0,.33-.13.59-.29.59s-.29-.26-.29-.59.13-.58.29-.58S97.49-14,97.49-13.73Z" style="fill:#8f774c"/><path d="M98.56-7,99-8.74s-5.21.21-7-2c0,0,6.5,1.75,8.5,0L100.06-8l.06,24.33L99.06,15s-6,1.25-8.25-1c2.25.25,7.5.5,8-.75L99-4.48Z" style="fill:#9f8555"/><path d="M53.59,138.77s10.52-1.35,15.27-10.3c-5.22-2.47-14.54-.7-18.18,9.4,4.34-6,10.07-5.45,12.22-6.42C61.64,133.3,52.83,136.9,53.59,138.77Z" style="fill:#7aa830"/><path d="M53.59,138.77c-.76-1.87,8-5.47,9.31-7.32-2.15,1-7.88.45-12.22,6.42l-.59,1.89Z" style="fill:#558c2a"/><path d="M48.87,137.9S42,129.81,44.52,120c5.52,1.68,11.22,9.27,7.1,19.19.82-7.34-3.77-10.81-4.71-13C46.6,128.43,50.68,137,48.87,137.9Z" style="fill:#558c2a"/><path d="M48.87,137.9c1.81-.87-2.27-9.47-2-11.68.94,2.17,5.53,5.64,4.71,13L50.78,141Z" style="fill:#7aa830"/><path d="M100.38,26.52S95.05,35.7,85,36.59c-.25-5.76,5-13.67,15.72-13.1C93.5,25.18,91.75,30.66,90,32.26,92.21,31.82,99,25.1,100.38,26.52Z" style="fill:#7aa830"/><path d="M100.38,26.52C99,25.1,92.21,31.82,90,32.26c1.73-1.6,3.48-7.08,10.66-8.77l2,.19Z" style="fill:#558c2a"/><path d="M107.82,57.31s-9.08,5.49-18.35,1.44c2.54-5.17,10.94-9.59,20.07-4-7.11-2-11.27,2-13.56,2.58C98.12,58.05,107.25,55.38,107.82,57.31Z" style="fill:#7aa830"/><path d="M107.82,57.31c-.57-1.93-9.7.74-11.84.07,2.29-.58,6.45-4.55,13.56-2.58l1.64,1.11Z" style="fill:#558c2a"/><path d="M111.61,59.62s-.08,10.61-8.39,16.39c-3.08-4.88-2.45-14.34,7.15-19.16-5.41,5-4.2,10.65-4.91,12.9C107.14,68.28,109.66,59.1,111.61,59.62Z" style="fill:#558c2a"/><path d="M111.61,59.62c-2-.52-4.47,8.66-6.15,10.13.71-2.25-.5-7.88,4.91-12.9l1.8-.82Z" style="fill:#7aa830"/><circle cx="64.74" cy="106.74" r="0.33" style="fill:#8f774c"/><circle cx="63.79" cy="107.7" r="0.44" style="fill:#8f774c"/><path d="M68.21,84.17s-3.6,10-13.36,12.68C53.57,91.23,57.31,82.51,68,81.14c-6.77,3-7.5,8.66-8.91,10.54C61.12,90.85,66.54,83,68.21,84.17Z" style="fill:#7aa830"/><path d="M68.21,84.17c-1.67-1.14-7.09,6.68-9.16,7.51,1.41-1.88,2.14-7.59,8.91-10.54l2-.17Z" style="fill:#558c2a"/><path d="M71,83.66s1.53,10.5,10.55,15.09c2.38-5.25.46-14.54-9.71-18,6,4.24,5.62,10,6.63,12.11C76.59,91.62,72.84,82.88,71,83.66Z" style="fill:#7aa830"/><path d="M71,83.66c1.85-.78,5.6,8,7.47,9.19-1-2.13-.58-7.87-6.63-12.11l-1.68-.25Z" style="fill:#558c2a"/><path d="M71.27,83.58s4,9.83-1.49,18.35C65.07,98.6,62,89.61,69.06,81.48c-3.08,6.71.19,11.45.39,13.8C70.45,93.28,69.27,83.83,71.27,83.58Z" style="fill:#7aa830"/><path d="M71.27,83.58c-2,.25-.82,9.7-1.82,11.7-.2-2.35-3.47-7.09-.39-13.8l1.45-1.12Z" style="fill:#558c2a"/><path d="M72.35,82.62s9.27,5.17,18.39.79c-2.72-5.08-11.27-9.2-20.2-3.24,7-2.22,11.34,1.6,13.65,2.1C82.08,83,72.85,80.67,72.35,82.62Z" style="fill:#558c2a"/><path d="M72.35,82.62c.5-2,9.73.39,11.84-.35-2.31-.5-6.61-4.32-13.65-2.1L69,81.34Z" style="fill:#7aa830"/><path d="M104.28,115s9.8,4.06,18.36-1.35c-3.29-4.73-12.26-7.84-20.44-.88,6.73-3,11.45.28,13.79.51C114,114.27,104.55,113,104.28,115Z" style="fill:#558c2a"/><path d="M104.28,115c.27-2,9.7-.74,11.71-1.72-2.34-.23-7.06-3.53-13.79-.51l-1.45,1.35Z" style="fill:#7aa830"/><path d="M103.82,112.19s9.71-4.29,11.72-14.21c-5.7-.89-14.14,3.45-14.76,14.17,2.47-7,8.11-8.08,9.9-9.62C110,104.66,102.56,110.61,103.82,112.19Z" style="fill:#558c2a"/><path d="M103.82,112.19c-1.26-1.58,6.17-7.53,6.86-9.66-1.79,1.54-7.43,2.66-9.9,9.62l0,2Z" style="fill:#7aa830"/><path d="M50.17,9.66a.88.88,0,1,1-.88-.87A.87.87,0,0,1,50.17,9.66Z" style="fill:#8f774c"/><path d="M44.47,2.24c0,.33-.13.59-.29.59s-.29-.26-.29-.59.13-.58.29-.58S44.47,1.92,44.47,2.24Z" style="fill:#af925d"/><path d="M43.53,1.34c0,.33-.13.59-.29.59S43,1.67,43,1.34s.13-.58.29-.58S43.53,1,43.53,1.34Z" style="fill:#af925d"/><path d="M44.43.33c0,.33-.13.59-.29.59s-.3-.26-.3-.59.13-.58.3-.58S44.43,0,44.43.33Z" style="fill:#af925d"/><path d="M52.62,58.64S58.9,67.19,69,67c-.36-5.76-6.43-13.06-17-11.34,7.33.9,9.65,6.17,11.54,7.58C61.31,63,53.88,57.07,52.62,58.64Z" style="fill:#558c2a"/><path d="M52.62,58.64c1.26-1.57,8.69,4.39,10.91,4.6-1.89-1.41-4.21-6.68-11.54-7.58l-1.94.41Z" style="fill:#7aa830"/><path d="M48.65,59s-5.07,9.32-.59,18.4c5.06-2.78,9.08-11.37,3-20.23,2.31,7-1.47,11.35-1.94,13.66C48.37,68.74,50.6,59.49,48.65,59Z" style="fill:#7aa830"/><path d="M48.65,59c2,.48-.28,9.73.48,11.83.47-2.31,4.25-6.65,1.94-13.66l-1.18-1.59Z" style="fill:#558c2a"/><path d="M51.08,54.09s3.75-9.93,13.54-12.48C65.83,47.26,62,55.92,51.29,57.13c6.81-2.85,7.62-8.55,9.06-10.41C58.26,47.52,52.73,55.26,51.08,54.09Z" style="fill:#558c2a"/><path d="M51.08,54.09c1.65,1.17,7.18-6.57,9.27-7.37-1.44,1.86-2.25,7.56-9.06,10.41l-2,.13Z" style="fill:#7aa830"/><polygon points="34.87 112.25 -0.4 112.25 -0.94 111.24 -2.42 112 -7.36 112.57 -11.04 111.74 -12.14 111.21 -12.73 112.25 -34.8 112.25 -34.8 -21.97 34.87 -21.97 34.87 112.25" style="fill:#c36721"/><path d="M4.31,31.68s-2.54-.08-2.59.92,2.53,5.5,2.53,5.5l-.61,89.25s7.33,4,11.33-.67L14,38.1s1.72-1.75,1.75-2.75a13.5,13.5,0,0,0-.25-3.75S8,34.85,4.31,31.68Z" style="fill:#dcbe8c"/><path d="M2.5-4.4S2-1.9,2-.9s1.78,4,1.78,4l.16,27.42S10,34.77,14,30.1l.47-28a24.66,24.66,0,0,0,2-3.25c.44-.89-1-3.5-1-3.5A15,15,0,0,1,2.5-4.4Z" style="fill:#dcbe8c"/><path d="M-12.28,81.35a15,15,0,0,0-1,3.25c0,1,1.75,5.75,1.75,5.75L-11.59,111s6.21,2.48,9.76.23l.55-19.89A14.94,14.94,0,0,1,.47,86.1a4.61,4.61,0,0,0,0-4.75A14.89,14.89,0,0,1-12.28,81.35Z" style="fill:#dcbe8c"/><path d="M17.72,15.6a9.7,9.7,0,0,0-.25,2.5c.5,4.75,3,5.75,3,5.75l.5,89s4.75,5,10.5.75l-.75-88.75s.33-.63,1.75-3-.25-5.5-.25-5.5A22.23,22.23,0,0,1,17.72,15.6Z" style="fill:#dcbe8c"/><path d="M-12.22-20.57a18.1,18.1,0,0,0-.56,2.67C-13-14.9-11-14.4-11-14.4l-1.08,94.92s7.33,4,11.33-.67L-1.55-12.9s1-.06,1.77-3.25A3.63,3.63,0,0,0-1.55-20.4S-5-17.4-12.22-20.57Z" style="fill:#dcbe8c"/><path d="M8,105.22c0,.32-.14.58-.3.58s-.29-.26-.29-.58.13-.59.29-.59S8,104.9,8,105.22Z" style="fill:#af925d"/><path d="M8.82,101.42c0,.32-.13.58-.29.58s-.29-.26-.29-.58.13-.59.29-.59S8.82,101.1,8.82,101.42Z" style="fill:#af925d"/><path d="M11.09,111.75c0,.32-.13.58-.29.58s-.29-.26-.29-.58.13-.59.29-.59S11.09,111.42,11.09,111.75Z" style="fill:#af925d"/><ellipse cx="8.75" cy="114.38" rx="0.29" ry="0.58" style="fill:#af925d"/><ellipse cx="9.63" cy="110.58" rx="0.29" ry="0.58" style="fill:#8f774c"/><ellipse cx="11.53" cy="115.05" rx="0.29" ry="0.58" style="fill:#af925d"/><path d="M9.78,117.68c0,.32-.13.58-.29.58s-.3-.26-.3-.58.13-.59.3-.59S9.78,117.35,9.78,117.68Z" style="fill:#8f774c"/><path d="M10.65,113.88c0,.32-.13.58-.29.58s-.29-.26-.29-.58.13-.59.29-.59S10.65,113.55,10.65,113.88Z" style="fill:#8f774c"/><path d="M7.41,77.38a.88.88,0,1,1-.88-.87A.87.87,0,0,1,7.41,77.38Z" style="fill:#af925d"/><path d="M10.91,80.88A.88.88,0,1,1,10,80,.87.87,0,0,1,10.91,80.88Z" style="fill:#8f774c"/><path d="M10.91,85.63a.88.88,0,1,1-.88-.87A.87.87,0,0,1,10.91,85.63Z" style="fill:#af925d"/><path d="M8.3,87.79a.88.88,0,1,1-.87-.88A.87.87,0,0,1,8.3,87.79Z" style="fill:#8f774c"/><path d="M10.87,90.72a.88.88,0,1,1-.88-.88A.88.88,0,0,1,10.87,90.72Z" style="fill:#af925d"/><path d="M10.87,94a.88.88,0,1,1-.88-.88A.87.87,0,0,1,10.87,94Z" style="fill:#af925d"/><path d="M8.82,73.93c0,.33-.13.59-.29.59s-.29-.26-.29-.59.13-.58.29-.58S8.82,73.61,8.82,73.93Z" style="fill:#af925d"/><path d="M11.16,74.81c0,.32-.13.59-.29.59s-.29-.27-.29-.59.13-.58.29-.58S11.16,74.49,11.16,74.81Z" style="fill:#8f774c"/><path d="M9.11,77.44c0,.32-.13.59-.29.59s-.29-.27-.29-.59.13-.58.29-.58S9.11,77.12,9.11,77.44Z" style="fill:#af925d"/><ellipse cx="9.7" cy="73.64" rx="0.29" ry="0.58" style="fill:#af925d"/><path d="M26.11,41.85a.88.88,0,1,1-.87-.88A.87.87,0,0,1,26.11,41.85Z" style="fill:#af925d"/><path d="M11.45,21.52a.88.88,0,1,1-.88-.87A.87.87,0,0,1,11.45,21.52Z" style="fill:#8f774c"/><path d="M7.45,17.64a.88.88,0,1,1-.87-.88A.87.87,0,0,1,7.45,17.64Z" style="fill:#af925d"/><ellipse cx="23.48" cy="45.65" rx="0.29" ry="0.58" style="fill:#af925d"/><path d="M26.11,46.53c0,.32-.13.58-.29.58s-.29-.26-.29-.58.13-.59.29-.59S26.11,46.2,26.11,46.53Z" style="fill:#af925d"/><path d="M26.41,44.19c0,.32-.13.58-.3.58s-.29-.26-.29-.58.13-.59.29-.59S26.41,43.87,26.41,44.19Z" style="fill:#af925d"/><path d="M28,47a.88.88,0,1,1-.88-.88A.88.88,0,0,1,28,47Z" style="fill:#8f774c"/><path d="M25.61,50.78c0,.32-.13.59-.29.59s-.3-.27-.3-.59.13-.58.3-.58S25.61,50.46,25.61,50.78Z" style="fill:#af925d"/><path d="M28,51.66c0,.32-.14.58-.3.58s-.29-.26-.29-.58.13-.59.29-.59S28,51.33,28,51.66Z" style="fill:#af925d"/><path d="M9.28,12.35c0,.32-.13.59-.29.59s-.29-.27-.29-.59.13-.58.29-.58S9.28,12,9.28,12.35Z" style="fill:#8f774c"/><path d="M10.28,14.13c0,.32-.13.58-.29.58s-.29-.26-.29-.58.13-.59.29-.59S10.28,13.8,10.28,14.13Z" style="fill:#af925d"/><path d="M7.28,15.24c0,.32-.13.58-.29.58s-.29-.26-.29-.58.13-.59.29-.59S7.28,14.92,7.28,15.24Z" style="fill:#af925d"/><path d="M10.84,19.57c0,.32-.13.59-.29.59s-.3-.27-.3-.59.13-.58.3-.58S10.84,19.25,10.84,19.57Z" style="fill:#af925d"/><path d="M10.06,23.35c0,.32-.13.58-.29.58s-.29-.26-.29-.58.13-.59.29-.59S10.06,23,10.06,23.35Z" style="fill:#af925d"/><path d="M7.28,26.57c0,.32-.13.58-.29.58s-.29-.26-.29-.58S6.83,26,7,26,7.28,26.25,7.28,26.57Z" style="fill:#af925d"/><path d="M11.62,13.23c0,.32-.13.58-.29.58s-.29-.26-.29-.58.13-.59.29-.59S11.62,12.9,11.62,13.23Z" style="fill:#8f774c"/><path d="M28.24,49.32c0,.32-.13.58-.29.58s-.3-.26-.3-.58.14-.59.3-.59S28.24,49,28.24,49.32Z" style="fill:#af925d"/><path d="M24.65,57.61a.88.88,0,1,1-.88-.88A.88.88,0,0,1,24.65,57.61Z" style="fill:#8f774c"/><path d="M22.31,61.41c0,.32-.13.58-.29.58s-.29-.26-.29-.58.13-.59.29-.59S22.31,61.08,22.31,61.41Z" style="fill:#af925d"/><path d="M24.65,62.28c0,.33-.13.59-.29.59s-.3-.26-.3-.59.13-.58.3-.58S24.65,62,24.65,62.28Z" style="fill:#8f774c"/><path d="M24.94,60c0,.32-.13.58-.29.58s-.29-.26-.29-.58.13-.59.29-.59S24.94,59.62,24.94,60Z" style="fill:#af925d"/><path d="M-16,9.54s7.28,7.72,17.3,6.29C.25,10.16-6.66,3.66-17,6.66c7.38,0,10.33,4.94,12.37,6.11C-6.83,12.84-14.92,7.83-16,9.54Z" style="fill:#558c2a"/><path d="M1,33.5S-8.12,39-17.4,34.94c2.54-5.18,10.94-9.6,20.07-3.95-7.11-2-11.27,2-13.56,2.58C-8.75,34.23.39,31.56,1,33.5Z" style="fill:#7aa830"/><path d="M1,33.5c-.57-1.94-9.71.73-11.85.07C-8.6,33-4.44,29,2.67,31L4.31,32.1Z" style="fill:#558c2a"/><path d="M4.74,35.81S4.66,46.42-3.65,52.2C-6.73,47.32-6.09,37.85,3.5,33c-5.41,5-4.2,10.65-4.91,12.9C.28,44.46,2.79,35.28,4.74,35.81Z" style="fill:#558c2a"/><path d="M4.74,35.81C2.79,35.28.28,44.46-1.41,45.93c.71-2.25-.5-7.88,4.91-12.9l1.81-.81Z" style="fill:#7aa830"/><path d="M6.33,34.15s7.36,7.64,5.46,17.59C6.17,50.4,0,43.18,3.5,33,3.15,40.4,7.94,43.58,9,45.69,9.19,43.46,4.57,35.13,6.33,34.15Z" style="fill:#7aa830"/><path d="M6.33,34.15c-1.76,1,2.86,9.31,2.68,11.54C7.94,43.58,3.15,40.4,3.5,33l.72-1.84Z" style="fill:#558c2a"/><path d="M34.37,22.26S44.59,19.43,48,9.9c-5.51-1.7-14.49,1.36-16.66,11.88,3.45-6.52,9.2-6.82,11.19-8.08C41.57,15.7,33.35,20.52,34.37,22.26Z" style="fill:#7aa830"/><path d="M34.37,22.26c-1-1.74,7.2-6.56,8.18-8.56-2,1.26-7.74,1.56-11.19,8.08l-.31,2Z" style="fill:#558c2a"/><path d="M34.35,25.25s8.89,5.8,18.3,2.07c-2.37-5.27-10.61-10-19.93-4.64,7.18-1.73,11.2,2.39,13.47,3C44,26.31,35,23.34,34.35,25.25Z" style="fill:#558c2a"/><path d="M34.35,25.25c.64-1.91,9.68,1.06,11.84.47-2.27-.65-6.29-4.77-13.47-3l-1.67,1.06Z" style="fill:#7aa830"/><path d="M32.1,27.21s1.53,10.51,10.55,15.1c2.38-5.26.46-14.55-9.7-18,6,4.24,5.61,10,6.62,12.12C37.7,35.18,34,26.43,32.1,27.21Z" style="fill:#7aa830"/><path d="M32.1,27.21c1.85-.78,5.6,8,7.47,9.2-1-2.14-.58-7.88-6.62-12.12l-1.9-.55Z" style="fill:#558c2a"/><path d="M10,36.63l2.2.37-1.1,27.48s-4,3.67-6.23,1.47a8.59,8.59,0,0,0,8.43.73V36.27S12.56,35.17,10,36.63Z" style="fill:#af925d"/><path d="M13.66,67.78,15,126.68a7.69,7.69,0,0,1-10.47-.05c3.29,1.1,9.16-1.47,9.16-1.47l-1.1-18.54s-6.23,2.2-7.33-.37a7.36,7.36,0,0,0,7.33-1.46l.36-5.87s-4.39-.73-6.23-1.83c2.94.74,6.6-.73,6.6-.73l-.37-27.11s-7,2.19-8.79-.37C7.79,69.61,13.66,67.78,13.66,67.78Z" style="fill:#af925d"/><path d="M21.72,113.21a10.58,10.58,0,0,0,8.91.89l-.35-60.55s-3.07,1.77-4.9.67A10.66,10.66,0,0,0,29,56.42l.74,26.38s-7.33,2.57-8.8,0c3.3,3.67,8.66,1.58,8.66,1.58v28.71A16.22,16.22,0,0,1,21.72,113.21Z" style="fill:#998052"/><path d="M30.72,24.85S23.55,26,21,23.08c1.1,4.76,5.5,3.66,8.06,2.93l.37,6.59s-4.76,1.47-6.59.74c0,0,4.39,2.2,5.86.73l.73,8.79S31.46,26.32,30.72,24.85Z" style="fill:#af925d"/><path d="M13.7,1.35,14,30.1c-1.49,3-8.87,1-9.5-1.16,11,4.07,8.42-2.26,8.42-2.26a6.21,6.21,0,0,1-4.76-1c1.1.74,4.76-.36,4.76-.36V16.35c-1.46,1.1-3.66-.6-3.66-.6,1.1.37,3.66-.73,3.66-.73l.22-5.78c-1.15-.31-4.35,1.56-6.55-1,2.56,1.1,6.7-.19,6.7-.19L13,2.69c-3.66,1.55-8.66.22-8.66.22C7.28,3.35,12.7,2.46,13.7,1.35Z" style="fill:#af925d"/><path d="M28.3,111.41a.88.88,0,1,1-.88-.87A.87.87,0,0,1,28.3,111.41Z" style="fill:#af925d"/><path d="M29.25,110.54a.88.88,0,1,1-.88-.88A.88.88,0,0,1,29.25,110.54Z" style="fill:#8f774c"/><path d="M27.94,106.92c0,.32-.13.59-.29.59s-.29-.27-.29-.59.13-.58.29-.58S27.94,106.6,27.94,106.92Z" style="fill:#af925d"/><path d="M28.58,104.58c0,.33-.13.59-.29.59s-.29-.26-.29-.59.13-.58.29-.58S28.58,104.26,28.58,104.58Z" style="fill:#af925d"/><path d="M31.62,15.72l-.27-27s.66.43,1.48-2.76c.78-3-.85-3.83-.85-3.83s-4.1,3.17-11.27,0c0,0-.45,2.6-.52,3.6-.23,3,1.75,3.5,1.75,3.5L21.63,16Z" style="fill:#dcbe8c"/><path d="M29.19-7l.45-1.71s-5.2.21-6.95-2c0,0,6.5,1.75,8.5,0L30.69-8l0,24.33-1-1.29s-6,1.25-8.25-1c2.25.25,7.5.5,8-.75l.2-17.74Z" style="fill:#9f8555"/><path d="M31,26.52S25.67,35.7,15.59,36.59c-.25-5.76,5-13.67,15.72-13.1-7.19,1.69-8.93,7.17-10.66,8.77C22.84,31.82,29.58,25.1,31,26.52Z" style="fill:#7aa830"/><path d="M31,26.52c-1.43-1.42-8.17,5.3-10.36,5.74,1.73-1.6,3.47-7.08,10.66-8.77l2,.19Z" style="fill:#558c2a"/><path d="M38.45,57.31s-9.08,5.49-18.36,1.44c2.55-5.17,10.94-9.59,20.08-4-7.12-2-11.28,2-13.56,2.58C28.74,58.05,37.88,55.38,38.45,57.31Z" style="fill:#7aa830"/><path d="M38.45,57.31c-.57-1.93-9.71.74-11.84.07,2.28-.58,6.44-4.55,13.56-2.58l1.63,1.11Z" style="fill:#558c2a"/><path d="M42.23,59.62S42.15,70.23,33.84,76C30.76,71.13,31.4,61.67,41,56.85c-5.41,5-4.21,10.65-4.91,12.9C37.77,68.28,40.29,59.1,42.23,59.62Z" style="fill:#558c2a"/><path d="M42.23,59.62c-1.94-.52-4.46,8.66-6.14,10.13.7-2.25-.5-7.88,4.91-12.9L42.8,56Z" style="fill:#7aa830"/><path d="M-1.17,84.17c-1.66-1.14-7.08,6.68-9.16,7.51,1.42-1.88,2.15-7.59,8.91-10.54l2-.17Z" style="fill:#558c2a"/><path d="M1.61,83.66s1.53,10.5,10.55,15.09c2.39-5.25.46-14.54-9.7-18,6,4.24,5.62,10,6.62,12.11C7.22,91.62,3.47,82.88,1.61,83.66Z" style="fill:#7aa830"/><path d="M1.61,83.66c1.86-.78,5.61,8,7.47,9.19-1-2.13-.58-7.87-6.62-12.11L.78,80.49Z" style="fill:#558c2a"/><path d="M1.89,83.58s4,9.83-1.49,18.35C-4.31,98.6-7.34,89.61-.31,81.48c-3.08,6.71.18,11.45.39,13.8C1.07,93.28-.11,83.83,1.89,83.58Z" style="fill:#7aa830"/><path d="M1.89,83.58c-2,.25-.82,9.7-1.81,11.7-.21-2.35-3.47-7.09-.39-13.8l1.45-1.12Z" style="fill:#558c2a"/><path d="M3,82.62s9.26,5.17,18.39.79c-2.72-5.08-11.27-9.2-20.2-3.24,7-2.22,11.34,1.6,13.64,2.1C12.7,83,3.48,80.67,3,82.62Z" style="fill:#558c2a"/><path d="M3,82.62c.5-2,9.72.39,11.83-.35-2.3-.5-6.6-4.32-13.64-2.1l-1.6,1.17Z" style="fill:#7aa830"/><path d="M34.9,115s9.81,4.06,18.37-1.35c-3.3-4.73-12.26-7.84-20.44-.88,6.73-3,11.45.28,13.79.51C44.61,114.27,35.17,113,34.9,115Z" style="fill:#558c2a"/><path d="M34.9,115c.27-2,9.71-.74,11.72-1.72-2.34-.23-7.06-3.53-13.79-.51l-1.45,1.35Z" style="fill:#7aa830"/><path d="M34.45,112.19S44.16,107.9,46.17,98c-5.7-.89-14.14,3.45-14.76,14.17,2.47-7,8.11-8.08,9.89-9.62C40.62,104.66,33.19,110.61,34.45,112.19Z" style="fill:#558c2a"/><path d="M34.45,112.19c-1.26-1.58,6.17-7.53,6.85-9.66-1.78,1.54-7.42,2.66-9.89,9.62l0,2Z" style="fill:#7aa830"/><path d="M110.05-75.81s-1.78,1.42-1.83,2.42,1.77,4,1.77,4l-.6,74.31s7.33,4,11.33-.67V-70.39s1.28-1,1.25-2c-.07-2.74-1.25-3.25-1.25-3.25S117.22-72.64,110.05-75.81Z" style="fill:#dcbe8c"/><path d="M123,6.53s10.53-1.36,15.27-10.3c-5.22-2.47-14.54-.7-18.17,9.4,4.34-6,10.07-5.45,12.22-6.42C131,1.06,122.21,4.66,123,6.53Z" style="fill:#7aa830"/><path d="M123,6.53c-.75-1.87,8.06-5.47,9.32-7.32-2.15,1-7.88.45-12.22,6.42l-.59,1.89Z" style="fill:#558c2a"/><path d="M118.24,5.66s-6.87-8.09-4.34-17.89C119.41-10.55,125.11-3,121,7c.82-7.34-3.77-10.82-4.7-13C116-3.81,120.06,4.79,118.24,5.66Z" style="fill:#558c2a"/><path d="M118.24,5.66C120.06,4.79,116-3.81,116.29-6c.93,2.16,5.52,5.64,4.7,13l-.83,1.79Z" style="fill:#7aa830"/><path d="M40.68-75.81s-1.78,1.42-1.83,2.42,1.77,4,1.77,4L40,4.92s7.34,4,11.34-.67V-70.39s1.28-1,1.25-2c-.08-2.74-1.25-3.25-1.25-3.25S47.85-72.64,40.68-75.81Z" style="fill:#dcbe8c"/><path d="M53.59,6.53S64.11,5.17,68.86-3.77c-5.22-2.47-14.54-.7-18.18,9.4C55-.34,60.75.18,62.9-.79,61.64,1.06,52.83,4.66,53.59,6.53Z" style="fill:#7aa830"/><path d="M53.59,6.53c-.76-1.87,8-5.47,9.31-7.32C60.75.18,55-.34,50.68,5.63l-.59,1.89Z" style="fill:#558c2a"/><path d="M48.87,5.66S42-2.43,44.52-12.23C50-10.55,55.74-3,51.62,7c.82-7.34-3.77-10.82-4.71-13C46.6-3.81,50.68,4.79,48.87,5.66Z" style="fill:#558c2a"/><path d="M48.87,5.66c1.81-.87-2.27-9.47-2-11.68.94,2.16,5.53,5.64,4.71,13l-.84,1.79Z" style="fill:#7aa830"/></pattern></defs><title>navTexture</title><g id="Layer_2" data-name="Layer 2"><g id="Layer_1-2" data-name="Layer 1"><rect width="235" height="758.67" style="fill:url(#Bamboo_Color)"/><rect width="235" height="758.67" style="fill:#fff;opacity:0.35000000000000003"/></g></g></svg>