<svg xmlns="http://www.w3.org/2000/svg" xmlns:xlink="http://www.w3.org/1999/xlink" viewBox="0 0 397 215"><defs><pattern id="Lines" data-name="Lines" width="72" height="72" patternUnits="userSpaceOnUse" viewBox="0 0 72 72"><rect width="72" height="72" style="fill:none"/><line x1="29.44" y1="73.63" x2="29.44" y2="70.13" style="fill:none;stroke:#000;stroke-linecap:square;stroke-width:0.30000000000000004px"/><line x1="71" y1="9.63" x2="93.69" y2="9.63" style="fill:none;stroke:#000;stroke-linecap:square;stroke-width:0.30000000000000004px"/><line x1="78.19" y1="13.88" x2="71" y2="13.88" style="fill:none;stroke:#000;stroke-linecap:square;stroke-width:0.30000000000000004px"/><line x1="71" y1="25.38" x2="94.94" y2="25.38" style="fill:none;stroke:#000;stroke-linecap:square;stroke-width:0.30000000000000004px"/><line x1="71" y1="34.63" x2="101.69" y2="34.63" style="fill:none;stroke:#000;stroke-linecap:square;stroke-width:0.30000000000000004px"/><line x1="71" y1="50.38" x2="102.94" y2="50.38" style="fill:none;stroke:#000;stroke-linecap:square;stroke-width:0.30000000000000004px"/><line x1="71" y1="59.13" x2="73.69" y2="59.13" style="fill:none;stroke:#000;stroke-linecap:square;stroke-width:0.30000000000000004px"/><line x1="71" y1="53.38" x2="107.69" y2="53.38" style="fill:none;stroke:#000;stroke-linecap:square;stroke-width:0.30000000000000004px"/><line x1="81.19" y1="41.88" x2="71" y2="41.88" style="fill:none;stroke:#000;stroke-linecap:square;stroke-width:0.30000000000000004px"/><line x1="71" y1="66.38" x2="81.19" y2="66.38" style="fill:none;stroke:#000;stroke-linecap:square;stroke-width:0.30000000000000004px"/><line x1="71" y1="63.38" x2="95.19" y2="63.38" style="fill:none;stroke:#000;stroke-linecap:square;stroke-width:0.30000000000000004px"/><line x1="-1" y1="9.63" x2="21.69" y2="9.63" style="fill:none;stroke:#000;stroke-linecap:square;stroke-width:0.30000000000000004px"/><line x1="11.94" y1="3.88" x2="55.69" y2="3.88" style="fill:none;stroke:#000;stroke-linecap:square;stroke-width:0.30000000000000004px"/><line x1="16.19" y1="9.63" x2="16.19" y2="3.88" style="fill:none;stroke:#000;stroke-linecap:square;stroke-width:0.30000000000000004px"/><line x1="34.44" y1="5.63" x2="65.94" y2="5.63" style="fill:none;stroke:#000;stroke-linecap:square;stroke-width:0.30000000000000004px"/><line x1="20.44" y1="7.38" x2="59.94" y2="7.38" style="fill:none;stroke:#000;stroke-linecap:square;stroke-width:0.30000000000000004px"/><line x1="48.94" y1="16.88" x2="69.19" y2="16.88" style="fill:none;stroke:#000;stroke-linecap:square;stroke-width:0.30000000000000004px"/><line x1="62.19" y1="16.88" x2="62.19" y2="13.38" style="fill:none;stroke:#000;stroke-linecap:square;stroke-width:0.30000000000000004px"/><line x1="70.69" y1="13.88" x2="64.44" y2="13.88" style="fill:none;stroke:#000;stroke-linecap:square;stroke-width:0.30000000000000004px"/><line x1="6.19" y1="13.88" x2="-1" y2="13.88" style="fill:none;stroke:#000;stroke-linecap:square;stroke-width:0.30000000000000004px"/><line x1="4.94" y1="16.88" x2="29.19" y2="16.88" style="fill:none;stroke:#000;stroke-linecap:square;stroke-width:0.30000000000000004px"/><line x1="38.19" y1="9.63" x2="71.19" y2="9.63" style="fill:none;stroke:#000;stroke-linecap:square;stroke-width:0.30000000000000004px"/><line x1="18.94" y1="13.88" x2="43.19" y2="13.88" style="fill:none;stroke:#000;stroke-linecap:square;stroke-width:0.30000000000000004px"/><line x1="51.44" y1="22.13" x2="73" y2="22.13" style="fill:none;stroke:#000;stroke-linecap:square;stroke-width:0.30000000000000004px"/><line x1="51.19" y1="23.38" x2="73" y2="23.38" style="fill:none;stroke:#000;stroke-linecap:square;stroke-width:0.30000000000000004px"/><line x1="7.19" y1="22.13" x2="25.94" y2="22.13" style="fill:none;stroke:#000;stroke-linecap:square;stroke-width:0.30000000000000004px"/><line x1="6.94" y1="23.38" x2="19.44" y2="23.38" style="fill:none;stroke:#000;stroke-linecap:square;stroke-width:0.30000000000000004px"/><line x1="21.69" y1="19.13" x2="45.94" y2="19.13" style="fill:none;stroke:#000;stroke-linecap:square;stroke-width:0.30000000000000004px"/><line x1="33.44" y1="25.38" x2="53.69" y2="25.38" style="fill:none;stroke:#000;stroke-linecap:square;stroke-width:0.30000000000000004px"/><line x1="46.69" y1="25.38" x2="46.69" y2="21.88" style="fill:none;stroke:#000;stroke-linecap:square;stroke-width:0.30000000000000004px"/><line x1="-1" y1="25.38" x2="22.94" y2="25.38" style="fill:none;stroke:#000;stroke-linecap:square;stroke-width:0.30000000000000004px"/><line x1="3.94" y1="25.38" x2="3.94" y2="21.88" style="fill:none;stroke:#000;stroke-linecap:square;stroke-width:0.30000000000000004px"/><line x1="57.94" y1="25.38" x2="70.44" y2="25.38" style="fill:none;stroke:#000;stroke-linecap:square;stroke-width:0.30000000000000004px"/><line x1="29.69" y1="22.13" x2="33.44" y2="22.13" style="fill:none;stroke:#000;stroke-linecap:square;stroke-width:0.30000000000000004px"/><line x1="-1" y1="34.63" x2="29.69" y2="34.63" style="fill:none;stroke:#000;stroke-linecap:square;stroke-width:0.30000000000000004px"/><line x1="19.94" y1="28.88" x2="63.69" y2="28.88" style="fill:none;stroke:#000;stroke-linecap:square;stroke-width:0.30000000000000004px"/><line x1="24.19" y1="34.63" x2="24.19" y2="28.88" style="fill:none;stroke:#000;stroke-linecap:square;stroke-width:0.30000000000000004px"/><line x1="42.44" y1="30.63" x2="73" y2="30.63" style="fill:none;stroke:#000;stroke-linecap:square;stroke-width:0.30000000000000004px"/><line x1="28.44" y1="32.38" x2="67.94" y2="32.38" style="fill:none;stroke:#000;stroke-linecap:square;stroke-width:0.30000000000000004px"/><line x1="56.94" y1="41.88" x2="73" y2="41.88" style="fill:none;stroke:#000;stroke-linecap:square;stroke-width:0.30000000000000004px"/><line x1="70.19" y1="41.88" x2="70.19" y2="38.38" style="fill:none;stroke:#000;stroke-linecap:square;stroke-width:0.30000000000000004px"/><line x1="55.94" y1="38.88" x2="53.94" y2="38.88" style="fill:none;stroke:#000;stroke-linecap:square;stroke-width:0.30000000000000004px"/><line x1="14.19" y1="38.88" x2="7.94" y2="38.88" style="fill:none;stroke:#000;stroke-linecap:square;stroke-width:0.30000000000000004px"/><line x1="12.94" y1="41.88" x2="37.19" y2="41.88" style="fill:none;stroke:#000;stroke-linecap:square;stroke-width:0.30000000000000004px"/><line x1="46.69" y1="34.63" x2="73" y2="34.63" style="fill:none;stroke:#000;stroke-linecap:square;stroke-width:0.30000000000000004px"/><line x1="26.94" y1="38.88" x2="51.19" y2="38.88" style="fill:none;stroke:#000;stroke-linecap:square;stroke-width:0.30000000000000004px"/><line x1="59.44" y1="47.13" x2="73" y2="47.13" style="fill:none;stroke:#000;stroke-linecap:square;stroke-width:0.30000000000000004px"/><line x1="59.19" y1="48.38" x2="73" y2="48.38" style="fill:none;stroke:#000;stroke-linecap:square;stroke-width:0.30000000000000004px"/><line x1="15.19" y1="47.13" x2="33.94" y2="47.13" style="fill:none;stroke:#000;stroke-linecap:square;stroke-width:0.30000000000000004px"/><line x1="14.94" y1="48.38" x2="27.44" y2="48.38" style="fill:none;stroke:#000;stroke-linecap:square;stroke-width:0.30000000000000004px"/><line x1="29.69" y1="44.13" x2="53.94" y2="44.13" style="fill:none;stroke:#000;stroke-linecap:square;stroke-width:0.30000000000000004px"/><line x1="41.44" y1="50.38" x2="61.69" y2="50.38" style="fill:none;stroke:#000;stroke-linecap:square;stroke-width:0.30000000000000004px"/><line x1="54.69" y1="50.38" x2="54.69" y2="46.88" style="fill:none;stroke:#000;stroke-linecap:square;stroke-width:0.30000000000000004px"/><line x1="-1" y1="50.38" x2="30.94" y2="50.38" style="fill:none;stroke:#000;stroke-linecap:square;stroke-width:0.30000000000000004px"/><line x1="11.94" y1="50.38" x2="11.94" y2="46.88" style="fill:none;stroke:#000;stroke-linecap:square;stroke-width:0.30000000000000004px"/><line x1="65.94" y1="50.38" x2="73" y2="50.38" style="fill:none;stroke:#000;stroke-linecap:square;stroke-width:0.30000000000000004px"/><line x1="37.69" y1="47.13" x2="41.44" y2="47.13" style="fill:none;stroke:#000;stroke-linecap:square;stroke-width:0.30000000000000004px"/><line x1="-1" y1="59.13" x2="1.69" y2="59.13" style="fill:none;stroke:#000;stroke-linecap:square;stroke-width:0.30000000000000004px"/><line x1="-1" y1="53.38" x2="35.69" y2="53.38" style="fill:none;stroke:#000;stroke-linecap:square;stroke-width:0.30000000000000004px"/><line x1="14.44" y1="55.13" x2="45.94" y2="55.13" style="fill:none;stroke:#000;stroke-linecap:square;stroke-width:0.30000000000000004px"/><line x1="1.75" y1="56.88" x2="39.94" y2="56.88" style="fill:none;stroke:#000;stroke-linecap:square;stroke-width:0.30000000000000004px"/><line x1="28.94" y1="66.38" x2="49.19" y2="66.38" style="fill:none;stroke:#000;stroke-linecap:square;stroke-width:0.30000000000000004px"/><line x1="42.19" y1="66.38" x2="42.19" y2="62.88" style="fill:none;stroke:#000;stroke-linecap:square;stroke-width:0.30000000000000004px"/><line x1="51.69" y1="63.38" x2="45.44" y2="63.38" style="fill:none;stroke:#000;stroke-linecap:square;stroke-width:0.30000000000000004px"/><line x1="9.19" y1="41.88" x2="-1" y2="41.88" style="fill:none;stroke:#000;stroke-linecap:square;stroke-width:0.30000000000000004px"/><line x1="-1" y1="66.38" x2="9.19" y2="66.38" style="fill:none;stroke:#000;stroke-linecap:square;stroke-width:0.30000000000000004px"/><line x1="18.69" y1="59.13" x2="51.69" y2="59.13" style="fill:none;stroke:#000;stroke-linecap:square;stroke-width:0.30000000000000004px"/><line x1="-1" y1="63.38" x2="23.19" y2="63.38" style="fill:none;stroke:#000;stroke-linecap:square;stroke-width:0.30000000000000004px"/><line x1="58.94" y1="59.13" x2="73" y2="59.13" style="fill:none;stroke:#000;stroke-linecap:square;stroke-width:0.30000000000000004px"/><line x1="37.44" y1="68.63" x2="61.44" y2="68.63" style="fill:none;stroke:#000;stroke-linecap:square;stroke-width:0.30000000000000004px"/><line x1="62.44" y1="63.38" x2="73" y2="63.38" style="fill:none;stroke:#000;stroke-linecap:square;stroke-width:0.30000000000000004px"/><line x1="1.69" y1="68.63" x2="25.94" y2="68.63" style="fill:none;stroke:#000;stroke-linecap:square;stroke-width:0.30000000000000004px"/><line x1="29.44" y1="73.63" x2="29.44" y2="70.13" style="fill:none;stroke:#000;stroke-linecap:square;stroke-width:0.30000000000000004px"/><line x1="62.44" y1="54.88" x2="73" y2="54.88" style="fill:none;stroke:#000;stroke-linecap:square;stroke-width:0.30000000000000004px"/><line x1="65.19" y1="68.63" x2="68.94" y2="68.63" style="fill:none;stroke:#000;stroke-linecap:square;stroke-width:0.30000000000000004px"/><line x1="16.19" y1="1.63" x2="36.44" y2="1.63" style="fill:none;stroke:#000;stroke-linecap:square;stroke-width:0.30000000000000004px"/><line x1="29.44" y1="1.63" x2="29.44" y2="-1.88" style="fill:none;stroke:#000;stroke-linecap:square;stroke-width:0.30000000000000004px"/><line x1="2.69" y1="4.13" x2="6.44" y2="4.13" style="fill:none;stroke:#000;stroke-linecap:square;stroke-width:0.30000000000000004px"/><line x1="-20.56" y1="22.13" x2="1" y2="22.13" style="fill:none;stroke:#000;stroke-linecap:square;stroke-width:0.30000000000000004px"/><line x1="-20.81" y1="23.38" x2="1" y2="23.38" style="fill:none;stroke:#000;stroke-linecap:square;stroke-width:0.30000000000000004px"/><line x1="-29.56" y1="30.63" x2="1" y2="30.63" style="fill:none;stroke:#000;stroke-linecap:square;stroke-width:0.30000000000000004px"/><line x1="-15.06" y1="41.88" x2="1" y2="41.88" style="fill:none;stroke:#000;stroke-linecap:square;stroke-width:0.30000000000000004px"/><line x1="-25.31" y1="34.63" x2="1" y2="34.63" style="fill:none;stroke:#000;stroke-linecap:square;stroke-width:0.30000000000000004px"/><line x1="-12.56" y1="47.13" x2="1" y2="47.13" style="fill:none;stroke:#000;stroke-linecap:square;stroke-width:0.30000000000000004px"/><line x1="-12.81" y1="48.38" x2="1" y2="48.38" style="fill:none;stroke:#000;stroke-linecap:square;stroke-width:0.30000000000000004px"/><line x1="-6.06" y1="50.38" x2="1" y2="50.38" style="fill:none;stroke:#000;stroke-linecap:square;stroke-width:0.30000000000000004px"/><line x1="-13.06" y1="59.13" x2="1" y2="59.13" style="fill:none;stroke:#000;stroke-linecap:square;stroke-width:0.30000000000000004px"/><line x1="-9.56" y1="63.38" x2="1" y2="63.38" style="fill:none;stroke:#000;stroke-linecap:square;stroke-width:0.30000000000000004px"/><line x1="-9.56" y1="54.88" x2="1" y2="54.88" style="fill:none;stroke:#000;stroke-linecap:square;stroke-width:0.30000000000000004px"/><line x1="29.44" y1="1.63" x2="29.44" y2="-1.88" style="fill:none;stroke:#000;stroke-linecap:square;stroke-width:0.30000000000000004px"/></pattern></defs><title>signTexture</title><g id="Layer_2" data-name="Layer 2"><g id="Layer_1-2" data-name="Layer 1"><rect width="397" height="215" style="fill:url(#Lines)"/></g></g></svg>